<svg xmlns="http://www.w3.org/2000/svg" xmlns:xlink="http://www.w3.org/1999/xlink" width="452" zoomAndPan="magnify" viewBox="0 0 339 338.999992" height="452" preserveAspectRatio="xMidYMid meet" version="1.0"><defs><g/><clipPath id="fc13cd2740"><path d="M 108.441406 54.066406 L 216.78125 54.066406 L 216.78125 177.429688 L 108.441406 177.429688 Z M 108.441406 54.066406 " clip-rule="nonzero"/></clipPath><clipPath id="8c20fdeef3"><path d="M 129.917969 12.679688 L 149.226562 12.679688 L 149.226562 65.242188 L 129.917969 65.242188 Z M 129.917969 12.679688 " clip-rule="nonzero"/></clipPath><clipPath id="4e67092f70"><path d="M 153.050781 12.679688 L 172.359375 12.679688 L 172.359375 65.242188 L 153.050781 65.242188 Z M 153.050781 12.679688 " clip-rule="nonzero"/></clipPath><clipPath id="e153f3a1be"><path d="M 176.183594 12.679688 L 195.492188 12.679688 L 195.492188 65.242188 L 176.183594 65.242188 Z M 176.183594 12.679688 " clip-rule="nonzero"/></clipPath><clipPath id="6910c75c01"><path d="M 164.21875 27.542969 L 183.527344 27.542969 L 183.527344 80.105469 L 164.21875 80.105469 Z M 164.21875 27.542969 " clip-rule="nonzero"/></clipPath><clipPath id="606a74bc00"><path d="M 143.660156 27.542969 L 162.96875 27.542969 L 162.96875 80.105469 L 143.660156 80.105469 Z M 143.660156 27.542969 " clip-rule="nonzero"/></clipPath></defs><g fill="#4bde80" fill-opacity="1"><g transform="translate(19.10063, 212.986121)"><g><path d="M 20.515625 -22.625 C 20.367188 -20.601562 20.296875 -18.789062 20.296875 -17.1875 C 20.296875 -16.1875 20.328125 -15.378906 20.390625 -14.765625 L 19.65625 -14.765625 C 19.144531 -17.378906 18.445312 -19.21875 17.5625 -20.28125 C 16.675781 -21.351562 15.46875 -21.890625 13.9375 -21.890625 L 13.203125 -21.890625 L 13.203125 -3.640625 C 13.203125 -2.742188 13.289062 -2.09375 13.46875 -1.6875 C 13.644531 -1.289062 13.960938 -1.019531 14.421875 -0.875 C 14.878906 -0.738281 15.609375 -0.660156 16.609375 -0.640625 L 16.609375 0 C 13.929688 -0.0625 11.910156 -0.09375 10.546875 -0.09375 C 9.203125 -0.09375 7.253906 -0.0625 4.703125 0 L 4.703125 -0.640625 C 5.703125 -0.660156 6.429688 -0.738281 6.890625 -0.875 C 7.347656 -1.019531 7.664062 -1.289062 7.84375 -1.6875 C 8.019531 -2.09375 8.109375 -2.742188 8.109375 -3.640625 L 8.109375 -21.890625 L 7.40625 -21.890625 C 6.382812 -21.890625 5.515625 -21.664062 4.796875 -21.21875 C 4.085938 -20.769531 3.476562 -20.03125 2.96875 -19 C 2.457031 -17.96875 2.019531 -16.554688 1.65625 -14.765625 L 0.921875 -14.765625 C 0.984375 -15.378906 1.015625 -16.1875 1.015625 -17.1875 C 1.015625 -18.789062 0.941406 -20.601562 0.796875 -22.625 C 2.734375 -22.5625 6.023438 -22.53125 10.671875 -22.53125 C 15.316406 -22.53125 18.597656 -22.5625 20.515625 -22.625 Z M 20.515625 -22.625 "/></g></g></g><g fill="#4bde80" fill-opacity="1"><g transform="translate(43.741767, 212.986121)"><g><path d="M 24.515625 -21.984375 C 23.785156 -21.941406 23.257812 -21.851562 22.9375 -21.71875 C 22.625 -21.59375 22.40625 -21.347656 22.28125 -20.984375 C 22.164062 -20.628906 22.109375 -20.046875 22.109375 -19.234375 L 22.109375 -3.390625 C 22.109375 -2.578125 22.164062 -1.988281 22.28125 -1.625 C 22.40625 -1.269531 22.625 -1.023438 22.9375 -0.890625 C 23.257812 -0.765625 23.785156 -0.679688 24.515625 -0.640625 L 24.515625 0 C 23.460938 -0.0625 21.84375 -0.09375 19.65625 -0.09375 C 17.5 -0.09375 15.828125 -0.0625 14.640625 0 L 14.640625 -0.640625 C 15.335938 -0.679688 15.847656 -0.765625 16.171875 -0.890625 C 16.503906 -1.023438 16.726562 -1.269531 16.84375 -1.625 C 16.96875 -1.988281 17.03125 -2.578125 17.03125 -3.390625 L 17.03125 -11.0625 L 8.5625 -11.0625 L 8.5625 -3.390625 C 8.5625 -2.578125 8.617188 -1.988281 8.734375 -1.625 C 8.859375 -1.269531 9.078125 -1.023438 9.390625 -0.890625 C 9.710938 -0.765625 10.234375 -0.679688 10.953125 -0.640625 L 10.953125 0 C 9.804688 -0.0625 8.203125 -0.09375 6.140625 -0.09375 C 3.859375 -0.09375 2.175781 -0.0625 1.09375 0 L 1.09375 -0.640625 C 1.789062 -0.679688 2.300781 -0.765625 2.625 -0.890625 C 2.957031 -1.023438 3.179688 -1.269531 3.296875 -1.625 C 3.421875 -1.988281 3.484375 -2.578125 3.484375 -3.390625 L 3.484375 -19.234375 C 3.484375 -20.046875 3.421875 -20.628906 3.296875 -20.984375 C 3.179688 -21.347656 2.957031 -21.59375 2.625 -21.71875 C 2.300781 -21.851562 1.789062 -21.941406 1.09375 -21.984375 L 1.09375 -22.625 C 2.175781 -22.5625 3.859375 -22.53125 6.140625 -22.53125 C 8.203125 -22.53125 9.804688 -22.5625 10.953125 -22.625 L 10.953125 -21.984375 C 10.234375 -21.941406 9.710938 -21.851562 9.390625 -21.71875 C 9.078125 -21.59375 8.859375 -21.347656 8.734375 -20.984375 C 8.617188 -20.628906 8.5625 -20.046875 8.5625 -19.234375 L 8.5625 -11.6875 L 17.03125 -11.6875 L 17.03125 -19.234375 C 17.03125 -20.046875 16.96875 -20.628906 16.84375 -20.984375 C 16.726562 -21.347656 16.503906 -21.59375 16.171875 -21.71875 C 15.847656 -21.851562 15.335938 -21.941406 14.640625 -21.984375 L 14.640625 -22.625 C 15.828125 -22.5625 17.5 -22.53125 19.65625 -22.53125 C 21.84375 -22.53125 23.460938 -22.5625 24.515625 -22.625 Z M 24.515625 -21.984375 "/></g></g></g><g fill="#4bde80" fill-opacity="1"><g transform="translate(72.601481, 212.986121)"><g><path d="M 18.59375 -4.859375 C 18.59375 -2.898438 18.671875 -1.28125 18.828125 0 C 17.367188 -0.0625 14.925781 -0.09375 11.5 -0.09375 C 6.851562 -0.09375 3.382812 -0.0625 1.09375 0 L 1.09375 -0.640625 C 1.789062 -0.679688 2.300781 -0.765625 2.625 -0.890625 C 2.957031 -1.023438 3.179688 -1.269531 3.296875 -1.625 C 3.421875 -1.988281 3.484375 -2.578125 3.484375 -3.390625 L 3.484375 -19.234375 C 3.484375 -20.046875 3.421875 -20.628906 3.296875 -20.984375 C 3.179688 -21.347656 2.957031 -21.59375 2.625 -21.71875 C 2.300781 -21.851562 1.789062 -21.941406 1.09375 -21.984375 L 1.09375 -22.625 C 3.382812 -22.5625 6.851562 -22.53125 11.5 -22.53125 C 14.632812 -22.53125 16.863281 -22.5625 18.1875 -22.625 C 18.03125 -20.851562 17.953125 -19.273438 17.953125 -17.890625 C 17.953125 -16.953125 17.984375 -16.226562 18.046875 -15.71875 L 17.3125 -15.71875 C 17 -18 16.425781 -19.597656 15.59375 -20.515625 C 14.757812 -21.429688 13.585938 -21.890625 12.078125 -21.890625 L 10.765625 -21.890625 C 10.109375 -21.890625 9.628906 -21.832031 9.328125 -21.71875 C 9.035156 -21.613281 8.832031 -21.40625 8.71875 -21.09375 C 8.613281 -20.789062 8.5625 -20.300781 8.5625 -19.625 L 8.5625 -11.6875 L 9.578125 -11.6875 C 10.710938 -11.6875 11.570312 -12.101562 12.15625 -12.9375 C 12.738281 -13.769531 13.148438 -14.757812 13.390625 -15.90625 L 14.125 -15.90625 C 14.0625 -15.019531 14.03125 -14.019531 14.03125 -12.90625 L 14.03125 -11.375 C 14.03125 -10.289062 14.09375 -8.78125 14.21875 -6.84375 L 13.484375 -6.84375 C 13.035156 -9.65625 11.734375 -11.0625 9.578125 -11.0625 L 8.5625 -11.0625 L 8.5625 -3 C 8.5625 -2.320312 8.613281 -1.828125 8.71875 -1.515625 C 8.832031 -1.203125 9.035156 -0.992188 9.328125 -0.890625 C 9.628906 -0.785156 10.109375 -0.734375 10.765625 -0.734375 L 12.328125 -0.734375 C 13.847656 -0.734375 15.066406 -1.25 15.984375 -2.28125 C 16.910156 -3.3125 17.566406 -5.066406 17.953125 -7.546875 L 18.6875 -7.546875 C 18.625 -6.835938 18.59375 -5.941406 18.59375 -4.859375 Z M 18.59375 -4.859375 "/></g></g></g><g fill="#4bde80" fill-opacity="1"><g transform="translate(96.15602, 212.986121)"><g/></g></g><g fill="#4bde80" fill-opacity="1"><g transform="translate(106.895034, 212.986121)"><g><path d="M 18.1875 -22.625 C 18.03125 -20.8125 17.953125 -19.191406 17.953125 -17.765625 C 17.953125 -16.765625 17.984375 -15.957031 18.046875 -15.34375 L 17.3125 -15.34375 C 16.882812 -17.75 16.242188 -19.441406 15.390625 -20.421875 C 14.546875 -21.398438 13.359375 -21.890625 11.828125 -21.890625 L 10.765625 -21.890625 C 10.109375 -21.890625 9.628906 -21.832031 9.328125 -21.71875 C 9.035156 -21.613281 8.832031 -21.40625 8.71875 -21.09375 C 8.613281 -20.789062 8.5625 -20.300781 8.5625 -19.625 L 8.5625 -11.5625 L 9.6875 -11.5625 C 10.8125 -11.5625 11.664062 -11.976562 12.25 -12.8125 C 12.832031 -13.644531 13.242188 -14.632812 13.484375 -15.78125 L 14.21875 -15.78125 C 14.15625 -14.882812 14.125 -13.882812 14.125 -12.78125 L 14.125 -11.25 C 14.125 -10.164062 14.1875 -8.648438 14.3125 -6.703125 L 13.578125 -6.703125 C 13.128906 -9.515625 11.832031 -10.921875 9.6875 -10.921875 L 8.5625 -10.921875 L 8.5625 -3.578125 C 8.5625 -2.722656 8.648438 -2.097656 8.828125 -1.703125 C 9.015625 -1.316406 9.335938 -1.054688 9.796875 -0.921875 C 10.253906 -0.796875 10.984375 -0.722656 11.984375 -0.703125 L 11.984375 0 C 9.359375 -0.0625 7.410156 -0.09375 6.140625 -0.09375 C 5.066406 -0.09375 3.722656 -0.0703125 2.109375 -0.03125 L 1.09375 0 L 1.09375 -0.640625 C 1.789062 -0.679688 2.300781 -0.765625 2.625 -0.890625 C 2.957031 -1.023438 3.179688 -1.269531 3.296875 -1.625 C 3.421875 -1.988281 3.484375 -2.578125 3.484375 -3.390625 L 3.484375 -19.234375 C 3.484375 -20.046875 3.421875 -20.628906 3.296875 -20.984375 C 3.179688 -21.347656 2.957031 -21.59375 2.625 -21.71875 C 2.300781 -21.851562 1.789062 -21.941406 1.09375 -21.984375 L 1.09375 -22.625 C 3.382812 -22.5625 6.851562 -22.53125 11.5 -22.53125 C 14.632812 -22.53125 16.863281 -22.5625 18.1875 -22.625 Z M 18.1875 -22.625 "/></g></g></g><g fill="#4bde80" fill-opacity="1"><g transform="translate(129.107306, 212.986121)"><g><path d="M 21.4375 -21.984375 C 20.738281 -21.878906 20.222656 -21.695312 19.890625 -21.4375 C 19.554688 -21.1875 19.332031 -20.78125 19.21875 -20.21875 C 19.101562 -19.664062 19.046875 -18.847656 19.046875 -17.765625 L 19.046875 -9.296875 C 19.046875 -6.253906 18.609375 -4 17.734375 -2.53125 C 17.160156 -1.59375 16.328125 -0.859375 15.234375 -0.328125 C 14.148438 0.191406 12.820312 0.453125 11.25 0.453125 C 8.78125 0.453125 6.863281 -0.0820312 5.5 -1.15625 C 4.519531 -1.9375 3.859375 -2.925781 3.515625 -4.125 C 3.171875 -5.332031 3 -7.023438 3 -9.203125 L 3 -19.234375 C 3 -20.046875 2.941406 -20.628906 2.828125 -20.984375 C 2.710938 -21.347656 2.488281 -21.59375 2.15625 -21.71875 C 1.820312 -21.851562 1.304688 -21.941406 0.609375 -21.984375 L 0.609375 -22.625 C 1.691406 -22.5625 3.351562 -22.53125 5.59375 -22.53125 C 7.8125 -22.53125 9.503906 -22.5625 10.671875 -22.625 L 10.671875 -21.984375 C 9.898438 -21.941406 9.335938 -21.851562 8.984375 -21.71875 C 8.640625 -21.59375 8.398438 -21.347656 8.265625 -20.984375 C 8.140625 -20.628906 8.078125 -20.046875 8.078125 -19.234375 L 8.078125 -7.1875 C 8.078125 -4.945312 8.398438 -3.300781 9.046875 -2.25 C 9.703125 -1.195312 10.851562 -0.671875 12.5 -0.671875 C 14.625 -0.671875 16.125 -1.390625 17 -2.828125 C 17.875 -4.265625 18.3125 -6.304688 18.3125 -8.953125 L 18.3125 -17.375 C 18.3125 -18.613281 18.234375 -19.53125 18.078125 -20.125 C 17.929688 -20.726562 17.644531 -21.160156 17.21875 -21.421875 C 16.789062 -21.691406 16.117188 -21.878906 15.203125 -21.984375 L 15.203125 -22.625 C 16.015625 -22.5625 17.164062 -22.53125 18.65625 -22.53125 C 19.851562 -22.53125 20.78125 -22.5625 21.4375 -22.625 Z M 21.4375 -21.984375 "/></g></g></g><g fill="#4bde80" fill-opacity="1"><g transform="translate(154.419585, 212.986121)"><g><path d="M 11.15625 -21.984375 C 10.382812 -21.941406 9.820312 -21.851562 9.46875 -21.71875 C 9.125 -21.59375 8.882812 -21.347656 8.75 -20.984375 C 8.625 -20.628906 8.5625 -20.046875 8.5625 -19.234375 L 8.5625 -3 C 8.5625 -2.320312 8.613281 -1.828125 8.71875 -1.515625 C 8.832031 -1.203125 9.019531 -0.992188 9.28125 -0.890625 C 9.550781 -0.785156 9.984375 -0.734375 10.578125 -0.734375 L 12.140625 -0.734375 C 13.585938 -0.734375 14.835938 -1.382812 15.890625 -2.6875 C 16.953125 -3.988281 17.640625 -5.710938 17.953125 -7.859375 L 18.6875 -7.859375 C 18.625 -7.140625 18.59375 -6.203125 18.59375 -5.046875 C 18.59375 -3.003906 18.671875 -1.320312 18.828125 0 C 17.367188 -0.0625 14.925781 -0.09375 11.5 -0.09375 C 6.851562 -0.09375 3.382812 -0.0625 1.09375 0 L 1.09375 -0.640625 C 1.789062 -0.679688 2.300781 -0.765625 2.625 -0.890625 C 2.957031 -1.023438 3.179688 -1.269531 3.296875 -1.625 C 3.421875 -1.988281 3.484375 -2.578125 3.484375 -3.390625 L 3.484375 -19.234375 C 3.484375 -20.046875 3.421875 -20.628906 3.296875 -20.984375 C 3.179688 -21.347656 2.957031 -21.59375 2.625 -21.71875 C 2.300781 -21.851562 1.789062 -21.941406 1.09375 -21.984375 L 1.09375 -22.625 C 2.175781 -22.5625 3.859375 -22.53125 6.140625 -22.53125 C 8.304688 -22.53125 9.976562 -22.5625 11.15625 -22.625 Z M 11.15625 -21.984375 "/></g></g></g><g fill="#4bde80" fill-opacity="1"><g transform="translate(177.239059, 212.986121)"><g><path d="M 11.15625 -21.984375 C 10.382812 -21.941406 9.820312 -21.851562 9.46875 -21.71875 C 9.125 -21.59375 8.882812 -21.347656 8.75 -20.984375 C 8.625 -20.628906 8.5625 -20.046875 8.5625 -19.234375 L 8.5625 -3 C 8.5625 -2.320312 8.613281 -1.828125 8.71875 -1.515625 C 8.832031 -1.203125 9.019531 -0.992188 9.28125 -0.890625 C 9.550781 -0.785156 9.984375 -0.734375 10.578125 -0.734375 L 12.140625 -0.734375 C 13.585938 -0.734375 14.835938 -1.382812 15.890625 -2.6875 C 16.953125 -3.988281 17.640625 -5.710938 17.953125 -7.859375 L 18.6875 -7.859375 C 18.625 -7.140625 18.59375 -6.203125 18.59375 -5.046875 C 18.59375 -3.003906 18.671875 -1.320312 18.828125 0 C 17.367188 -0.0625 14.925781 -0.09375 11.5 -0.09375 C 6.851562 -0.09375 3.382812 -0.0625 1.09375 0 L 1.09375 -0.640625 C 1.789062 -0.679688 2.300781 -0.765625 2.625 -0.890625 C 2.957031 -1.023438 3.179688 -1.269531 3.296875 -1.625 C 3.421875 -1.988281 3.484375 -2.578125 3.484375 -3.390625 L 3.484375 -19.234375 C 3.484375 -20.046875 3.421875 -20.628906 3.296875 -20.984375 C 3.179688 -21.347656 2.957031 -21.59375 2.625 -21.71875 C 2.300781 -21.851562 1.789062 -21.941406 1.09375 -21.984375 L 1.09375 -22.625 C 2.175781 -22.5625 3.859375 -22.53125 6.140625 -22.53125 C 8.304688 -22.53125 9.976562 -22.5625 11.15625 -22.625 Z M 11.15625 -21.984375 "/></g></g></g><g fill="#4bde80" fill-opacity="1"><g transform="translate(200.058534, 212.986121)"><g><path d="M 9.078125 -23.03125 C 10.179688 -23.03125 11.0625 -22.925781 11.71875 -22.71875 C 12.382812 -22.507812 13.054688 -22.203125 13.734375 -21.796875 C 13.972656 -21.660156 14.179688 -21.550781 14.359375 -21.46875 C 14.546875 -21.382812 14.703125 -21.34375 14.828125 -21.34375 C 15.015625 -21.34375 15.160156 -21.453125 15.265625 -21.671875 C 15.378906 -21.898438 15.46875 -22.257812 15.53125 -22.75 L 16.265625 -22.75 C 16.160156 -21.320312 16.109375 -18.894531 16.109375 -15.46875 L 15.375 -15.46875 C 15.28125 -16.613281 15.015625 -17.707031 14.578125 -18.75 C 14.148438 -19.800781 13.535156 -20.648438 12.734375 -21.296875 C 11.929688 -21.941406 11 -22.265625 9.9375 -22.265625 C 8.894531 -22.265625 8.046875 -21.972656 7.390625 -21.390625 C 6.742188 -20.804688 6.421875 -20.015625 6.421875 -19.015625 C 6.421875 -18.265625 6.578125 -17.613281 6.890625 -17.0625 C 7.210938 -16.507812 7.660156 -16.003906 8.234375 -15.546875 C 8.816406 -15.085938 9.703125 -14.460938 10.890625 -13.671875 L 11.921875 -12.96875 C 13.171875 -12.144531 14.15625 -11.421875 14.875 -10.796875 C 15.601562 -10.179688 16.195312 -9.460938 16.65625 -8.640625 C 17.113281 -7.816406 17.34375 -6.863281 17.34375 -5.78125 C 17.34375 -4.414062 16.988281 -3.269531 16.28125 -2.34375 C 15.582031 -1.414062 14.628906 -0.71875 13.421875 -0.25 C 12.222656 0.21875 10.890625 0.453125 9.421875 0.453125 C 8.234375 0.453125 7.242188 0.34375 6.453125 0.125 C 5.660156 -0.0820312 4.9375 -0.367188 4.28125 -0.734375 C 3.8125 -1.035156 3.445312 -1.1875 3.1875 -1.1875 C 3 -1.1875 2.851562 -1.070312 2.75 -0.84375 C 2.644531 -0.625 2.5625 -0.269531 2.5 0.21875 L 1.75 0.21875 C 1.84375 -1.125 1.890625 -4 1.890625 -8.40625 L 2.625 -8.40625 C 2.769531 -6.019531 3.300781 -4.085938 4.21875 -2.609375 C 5.132812 -1.128906 6.539062 -0.390625 8.4375 -0.390625 C 9.582031 -0.390625 10.523438 -0.695312 11.265625 -1.3125 C 12.015625 -1.925781 12.390625 -2.8125 12.390625 -3.96875 C 12.390625 -5.15625 12.003906 -6.175781 11.234375 -7.03125 C 10.472656 -7.882812 9.265625 -8.84375 7.609375 -9.90625 C 6.328125 -10.738281 5.300781 -11.460938 4.53125 -12.078125 C 3.769531 -12.691406 3.144531 -13.421875 2.65625 -14.265625 C 2.164062 -15.109375 1.921875 -16.082031 1.921875 -17.1875 C 1.921875 -18.46875 2.242188 -19.550781 2.890625 -20.4375 C 3.535156 -21.320312 4.398438 -21.972656 5.484375 -22.390625 C 6.578125 -22.816406 7.773438 -23.03125 9.078125 -23.03125 Z M 9.078125 -23.03125 "/></g></g></g><g fill="#4bde80" fill-opacity="1"><g transform="translate(222.01512, 212.986121)"><g><path d="M 20.515625 -22.625 C 20.367188 -20.601562 20.296875 -18.789062 20.296875 -17.1875 C 20.296875 -16.1875 20.328125 -15.378906 20.390625 -14.765625 L 19.65625 -14.765625 C 19.144531 -17.378906 18.445312 -19.21875 17.5625 -20.28125 C 16.675781 -21.351562 15.46875 -21.890625 13.9375 -21.890625 L 13.203125 -21.890625 L 13.203125 -3.640625 C 13.203125 -2.742188 13.289062 -2.09375 13.46875 -1.6875 C 13.644531 -1.289062 13.960938 -1.019531 14.421875 -0.875 C 14.878906 -0.738281 15.609375 -0.660156 16.609375 -0.640625 L 16.609375 0 C 13.929688 -0.0625 11.910156 -0.09375 10.546875 -0.09375 C 9.203125 -0.09375 7.253906 -0.0625 4.703125 0 L 4.703125 -0.640625 C 5.703125 -0.660156 6.429688 -0.738281 6.890625 -0.875 C 7.347656 -1.019531 7.664062 -1.289062 7.84375 -1.6875 C 8.019531 -2.09375 8.109375 -2.742188 8.109375 -3.640625 L 8.109375 -21.890625 L 7.40625 -21.890625 C 6.382812 -21.890625 5.515625 -21.664062 4.796875 -21.21875 C 4.085938 -20.769531 3.476562 -20.03125 2.96875 -19 C 2.457031 -17.96875 2.019531 -16.554688 1.65625 -14.765625 L 0.921875 -14.765625 C 0.984375 -15.378906 1.015625 -16.1875 1.015625 -17.1875 C 1.015625 -18.789062 0.941406 -20.601562 0.796875 -22.625 C 2.734375 -22.5625 6.023438 -22.53125 10.671875 -22.53125 C 15.316406 -22.53125 18.597656 -22.5625 20.515625 -22.625 Z M 20.515625 -22.625 "/></g></g></g><g fill="#4bde80" fill-opacity="1"><g transform="translate(246.656253, 212.986121)"><g><path d="M 19.515625 -2.6875 C 19.796875 -1.976562 20.117188 -1.460938 20.484375 -1.140625 C 20.847656 -0.828125 21.195312 -0.660156 21.53125 -0.640625 L 21.53125 0 C 20.257812 -0.0625 18.640625 -0.09375 16.671875 -0.09375 C 14.503906 -0.09375 12.890625 -0.0625 11.828125 0 L 11.828125 -0.640625 C 12.628906 -0.679688 13.203125 -0.78125 13.546875 -0.9375 C 13.890625 -1.101562 14.0625 -1.390625 14.0625 -1.796875 C 14.0625 -2.171875 13.929688 -2.679688 13.671875 -3.328125 L 11.765625 -8.5625 L 4.796875 -8.5625 L 3.96875 -6.359375 C 3.363281 -4.828125 3.0625 -3.644531 3.0625 -2.8125 C 3.0625 -2.019531 3.300781 -1.46875 3.78125 -1.15625 C 4.257812 -0.851562 4.96875 -0.679688 5.90625 -0.640625 L 5.90625 0 C 4.457031 -0.0625 3.140625 -0.09375 1.953125 -0.09375 C 0.972656 -0.09375 0.160156 -0.0625 -0.484375 0 L -0.484375 -0.640625 C 0.566406 -0.828125 1.484375 -1.945312 2.265625 -4 L 9.546875 -22.6875 C 9.785156 -22.664062 10.160156 -22.65625 10.671875 -22.65625 C 11.179688 -22.65625 11.546875 -22.664062 11.765625 -22.6875 Z M 11.53125 -9.203125 L 8.375 -17.828125 L 5.046875 -9.203125 Z M 11.53125 -9.203125 "/></g></g></g><g fill="#4bde80" fill-opacity="1"><g transform="translate(271.265429, 212.986121)"><g><path d="M 12.6875 -23.0625 C 13.96875 -23.0625 15.050781 -22.878906 15.9375 -22.515625 C 16.832031 -22.160156 17.707031 -21.65625 18.5625 -21 C 18.800781 -20.800781 19.003906 -20.703125 19.171875 -20.703125 C 19.597656 -20.703125 19.875 -21.34375 20 -22.625 L 20.734375 -22.625 C 20.648438 -21.175781 20.609375 -18.597656 20.609375 -14.890625 L 19.875 -14.890625 C 19.6875 -16.460938 19.429688 -17.664062 19.109375 -18.5 C 18.785156 -19.332031 18.242188 -20.054688 17.484375 -20.671875 C 16.941406 -21.179688 16.320312 -21.566406 15.625 -21.828125 C 14.925781 -22.097656 14.191406 -22.234375 13.421875 -22.234375 C 11.265625 -22.234375 9.664062 -21.179688 8.625 -19.078125 C 7.582031 -16.984375 7.0625 -14.375 7.0625 -11.25 C 7.0625 -8.132812 7.601562 -5.53125 8.6875 -3.4375 C 9.78125 -1.351562 11.398438 -0.3125 13.546875 -0.3125 C 14.273438 -0.3125 14.992188 -0.445312 15.703125 -0.71875 C 16.421875 -0.988281 17.023438 -1.378906 17.515625 -1.890625 C 18.296875 -2.484375 18.84375 -3.226562 19.15625 -4.125 C 19.46875 -5.019531 19.707031 -6.328125 19.875 -8.046875 L 20.609375 -8.046875 C 20.609375 -4.191406 20.648438 -1.507812 20.734375 0 L 20 0 C 19.9375 -0.675781 19.847656 -1.160156 19.734375 -1.453125 C 19.617188 -1.742188 19.453125 -1.890625 19.234375 -1.890625 C 19.066406 -1.890625 18.84375 -1.800781 18.5625 -1.625 C 17.601562 -0.945312 16.6875 -0.429688 15.8125 -0.078125 C 14.9375 0.273438 13.882812 0.453125 12.65625 0.453125 C 10.394531 0.453125 8.414062 -0.00390625 6.71875 -0.921875 C 5.03125 -1.835938 3.71875 -3.164062 2.78125 -4.90625 C 1.84375 -6.644531 1.375 -8.71875 1.375 -11.125 C 1.375 -13.46875 1.851562 -15.539062 2.8125 -17.34375 C 3.769531 -19.15625 5.101562 -20.5625 6.8125 -21.5625 C 8.53125 -22.5625 10.488281 -23.0625 12.6875 -23.0625 Z M 12.6875 -23.0625 "/></g></g></g><g fill="#4bde80" fill-opacity="1"><g transform="translate(297.089045, 212.986121)"><g><path d="M 20.828125 -2.59375 C 21.148438 -2.101562 21.476562 -1.707031 21.8125 -1.40625 C 22.15625 -1.101562 22.597656 -0.847656 23.140625 -0.640625 L 23.140625 0 C 21.640625 -0.0625 19.976562 -0.09375 18.15625 -0.09375 C 16.75 -0.09375 15.394531 -0.0625 14.09375 0 L 14.09375 -0.640625 C 14.6875 -0.679688 15.113281 -0.742188 15.375 -0.828125 C 15.644531 -0.910156 15.78125 -1.0625 15.78125 -1.28125 C 15.78125 -1.445312 15.664062 -1.710938 15.4375 -2.078125 L 10.796875 -9.578125 C 10.367188 -10.265625 10.007812 -10.722656 9.71875 -10.953125 C 9.4375 -11.191406 9.050781 -11.332031 8.5625 -11.375 L 8.5625 -3.390625 C 8.5625 -2.578125 8.617188 -1.988281 8.734375 -1.625 C 8.859375 -1.269531 9.078125 -1.023438 9.390625 -0.890625 C 9.710938 -0.765625 10.234375 -0.679688 10.953125 -0.640625 L 10.953125 0 C 9.804688 -0.0625 8.203125 -0.09375 6.140625 -0.09375 C 3.859375 -0.09375 2.175781 -0.0625 1.09375 0 L 1.09375 -0.640625 C 1.789062 -0.679688 2.300781 -0.765625 2.625 -0.890625 C 2.957031 -1.023438 3.179688 -1.269531 3.296875 -1.625 C 3.421875 -1.988281 3.484375 -2.578125 3.484375 -3.390625 L 3.484375 -19.234375 C 3.484375 -20.046875 3.421875 -20.628906 3.296875 -20.984375 C 3.179688 -21.347656 2.957031 -21.59375 2.625 -21.71875 C 2.300781 -21.851562 1.789062 -21.941406 1.09375 -21.984375 L 1.09375 -22.625 C 2.175781 -22.5625 3.859375 -22.53125 6.140625 -22.53125 C 8.203125 -22.53125 9.804688 -22.5625 10.953125 -22.625 L 10.953125 -21.984375 C 10.234375 -21.941406 9.710938 -21.851562 9.390625 -21.71875 C 9.078125 -21.59375 8.859375 -21.347656 8.734375 -20.984375 C 8.617188 -20.628906 8.5625 -20.046875 8.5625 -19.234375 L 8.5625 -12.046875 C 9.414062 -12.085938 10.191406 -12.34375 10.890625 -12.8125 C 11.597656 -13.28125 12.398438 -14.023438 13.296875 -15.046875 L 15.171875 -17.3125 C 16.148438 -18.445312 16.640625 -19.441406 16.640625 -20.296875 C 16.640625 -20.804688 16.429688 -21.207031 16.015625 -21.5 C 15.609375 -21.800781 15.03125 -21.972656 14.28125 -22.015625 L 14.28125 -22.625 C 15.832031 -22.5625 17.410156 -22.53125 19.015625 -22.53125 C 20.242188 -22.53125 21.242188 -22.5625 22.015625 -22.625 L 22.015625 -22.015625 C 20.304688 -21.609375 18.757812 -20.585938 17.375 -18.953125 L 13.390625 -14.1875 Z M 20.828125 -2.59375 "/></g></g></g><g fill="#4bde80" fill-opacity="1"><g transform="translate(71.370179, 257.210404)"><g><path d="M 9.078125 -23.03125 C 10.179688 -23.03125 11.0625 -22.925781 11.71875 -22.71875 C 12.382812 -22.507812 13.054688 -22.203125 13.734375 -21.796875 C 13.972656 -21.660156 14.179688 -21.550781 14.359375 -21.46875 C 14.546875 -21.382812 14.703125 -21.34375 14.828125 -21.34375 C 15.015625 -21.34375 15.160156 -21.453125 15.265625 -21.671875 C 15.378906 -21.898438 15.46875 -22.257812 15.53125 -22.75 L 16.265625 -22.75 C 16.160156 -21.320312 16.109375 -18.894531 16.109375 -15.46875 L 15.375 -15.46875 C 15.28125 -16.613281 15.015625 -17.707031 14.578125 -18.75 C 14.148438 -19.800781 13.535156 -20.648438 12.734375 -21.296875 C 11.929688 -21.941406 11 -22.265625 9.9375 -22.265625 C 8.894531 -22.265625 8.046875 -21.972656 7.390625 -21.390625 C 6.742188 -20.804688 6.421875 -20.015625 6.421875 -19.015625 C 6.421875 -18.265625 6.578125 -17.613281 6.890625 -17.0625 C 7.210938 -16.507812 7.660156 -16.003906 8.234375 -15.546875 C 8.816406 -15.085938 9.703125 -14.460938 10.890625 -13.671875 L 11.921875 -12.96875 C 13.171875 -12.144531 14.15625 -11.421875 14.875 -10.796875 C 15.601562 -10.179688 16.195312 -9.460938 16.65625 -8.640625 C 17.113281 -7.816406 17.34375 -6.863281 17.34375 -5.78125 C 17.34375 -4.414062 16.988281 -3.269531 16.28125 -2.34375 C 15.582031 -1.414062 14.628906 -0.71875 13.421875 -0.25 C 12.222656 0.21875 10.890625 0.453125 9.421875 0.453125 C 8.234375 0.453125 7.242188 0.34375 6.453125 0.125 C 5.660156 -0.0820312 4.9375 -0.367188 4.28125 -0.734375 C 3.8125 -1.035156 3.445312 -1.1875 3.1875 -1.1875 C 3 -1.1875 2.851562 -1.070312 2.75 -0.84375 C 2.644531 -0.625 2.5625 -0.269531 2.5 0.21875 L 1.75 0.21875 C 1.84375 -1.125 1.890625 -4 1.890625 -8.40625 L 2.625 -8.40625 C 2.769531 -6.019531 3.300781 -4.085938 4.21875 -2.609375 C 5.132812 -1.128906 6.539062 -0.390625 8.4375 -0.390625 C 9.582031 -0.390625 10.523438 -0.695312 11.265625 -1.3125 C 12.015625 -1.925781 12.390625 -2.8125 12.390625 -3.96875 C 12.390625 -5.15625 12.003906 -6.175781 11.234375 -7.03125 C 10.472656 -7.882812 9.265625 -8.84375 7.609375 -9.90625 C 6.328125 -10.738281 5.300781 -11.460938 4.53125 -12.078125 C 3.769531 -12.691406 3.144531 -13.421875 2.65625 -14.265625 C 2.164062 -15.109375 1.921875 -16.082031 1.921875 -17.1875 C 1.921875 -18.46875 2.242188 -19.550781 2.890625 -20.4375 C 3.535156 -21.320312 4.398438 -21.972656 5.484375 -22.390625 C 6.578125 -22.816406 7.773438 -23.03125 9.078125 -23.03125 Z M 9.078125 -23.03125 "/></g></g></g><g fill="#4bde80" fill-opacity="1"><g transform="translate(93.32677, 257.210404)"><g><path d="M 12.6875 -23.0625 C 13.96875 -23.0625 15.050781 -22.878906 15.9375 -22.515625 C 16.832031 -22.160156 17.707031 -21.65625 18.5625 -21 C 18.800781 -20.800781 19.003906 -20.703125 19.171875 -20.703125 C 19.597656 -20.703125 19.875 -21.34375 20 -22.625 L 20.734375 -22.625 C 20.648438 -21.175781 20.609375 -18.597656 20.609375 -14.890625 L 19.875 -14.890625 C 19.6875 -16.460938 19.429688 -17.664062 19.109375 -18.5 C 18.785156 -19.332031 18.242188 -20.054688 17.484375 -20.671875 C 16.941406 -21.179688 16.320312 -21.566406 15.625 -21.828125 C 14.925781 -22.097656 14.191406 -22.234375 13.421875 -22.234375 C 11.265625 -22.234375 9.664062 -21.179688 8.625 -19.078125 C 7.582031 -16.984375 7.0625 -14.375 7.0625 -11.25 C 7.0625 -8.132812 7.601562 -5.53125 8.6875 -3.4375 C 9.78125 -1.351562 11.398438 -0.3125 13.546875 -0.3125 C 14.273438 -0.3125 14.992188 -0.445312 15.703125 -0.71875 C 16.421875 -0.988281 17.023438 -1.378906 17.515625 -1.890625 C 18.296875 -2.484375 18.84375 -3.226562 19.15625 -4.125 C 19.46875 -5.019531 19.707031 -6.328125 19.875 -8.046875 L 20.609375 -8.046875 C 20.609375 -4.191406 20.648438 -1.507812 20.734375 0 L 20 0 C 19.9375 -0.675781 19.847656 -1.160156 19.734375 -1.453125 C 19.617188 -1.742188 19.453125 -1.890625 19.234375 -1.890625 C 19.066406 -1.890625 18.84375 -1.800781 18.5625 -1.625 C 17.601562 -0.945312 16.6875 -0.429688 15.8125 -0.078125 C 14.9375 0.273438 13.882812 0.453125 12.65625 0.453125 C 10.394531 0.453125 8.414062 -0.00390625 6.71875 -0.921875 C 5.03125 -1.835938 3.71875 -3.164062 2.78125 -4.90625 C 1.84375 -6.644531 1.375 -8.71875 1.375 -11.125 C 1.375 -13.46875 1.851562 -15.539062 2.8125 -17.34375 C 3.769531 -19.15625 5.101562 -20.5625 6.8125 -21.5625 C 8.53125 -22.5625 10.488281 -23.0625 12.6875 -23.0625 Z M 12.6875 -23.0625 "/></g></g></g><g fill="#4bde80" fill-opacity="1"><g transform="translate(119.150385, 257.210404)"><g><path d="M 10.953125 -21.984375 C 10.234375 -21.941406 9.710938 -21.851562 9.390625 -21.71875 C 9.078125 -21.59375 8.859375 -21.347656 8.734375 -20.984375 C 8.617188 -20.628906 8.5625 -20.046875 8.5625 -19.234375 L 8.5625 -3.390625 C 8.5625 -2.578125 8.617188 -1.988281 8.734375 -1.625 C 8.859375 -1.269531 9.078125 -1.023438 9.390625 -0.890625 C 9.710938 -0.765625 10.234375 -0.679688 10.953125 -0.640625 L 10.953125 0 C 9.804688 -0.0625 8.203125 -0.09375 6.140625 -0.09375 C 3.859375 -0.09375 2.175781 -0.0625 1.09375 0 L 1.09375 -0.640625 C 1.789062 -0.679688 2.300781 -0.765625 2.625 -0.890625 C 2.957031 -1.023438 3.179688 -1.269531 3.296875 -1.625 C 3.421875 -1.988281 3.484375 -2.578125 3.484375 -3.390625 L 3.484375 -19.234375 C 3.484375 -20.046875 3.421875 -20.628906 3.296875 -20.984375 C 3.179688 -21.347656 2.957031 -21.59375 2.625 -21.71875 C 2.300781 -21.851562 1.789062 -21.941406 1.09375 -21.984375 L 1.09375 -22.625 C 2.175781 -22.5625 3.859375 -22.53125 6.140625 -22.53125 C 8.203125 -22.53125 9.804688 -22.5625 10.953125 -22.625 Z M 10.953125 -21.984375 "/></g></g></g><g fill="#4bde80" fill-opacity="1"><g transform="translate(134.45953, 257.210404)"><g><path d="M 18.59375 -4.859375 C 18.59375 -2.898438 18.671875 -1.28125 18.828125 0 C 17.367188 -0.0625 14.925781 -0.09375 11.5 -0.09375 C 6.851562 -0.09375 3.382812 -0.0625 1.09375 0 L 1.09375 -0.640625 C 1.789062 -0.679688 2.300781 -0.765625 2.625 -0.890625 C 2.957031 -1.023438 3.179688 -1.269531 3.296875 -1.625 C 3.421875 -1.988281 3.484375 -2.578125 3.484375 -3.390625 L 3.484375 -19.234375 C 3.484375 -20.046875 3.421875 -20.628906 3.296875 -20.984375 C 3.179688 -21.347656 2.957031 -21.59375 2.625 -21.71875 C 2.300781 -21.851562 1.789062 -21.941406 1.09375 -21.984375 L 1.09375 -22.625 C 3.382812 -22.5625 6.851562 -22.53125 11.5 -22.53125 C 14.632812 -22.53125 16.863281 -22.5625 18.1875 -22.625 C 18.03125 -20.851562 17.953125 -19.273438 17.953125 -17.890625 C 17.953125 -16.953125 17.984375 -16.226562 18.046875 -15.71875 L 17.3125 -15.71875 C 17 -18 16.425781 -19.597656 15.59375 -20.515625 C 14.757812 -21.429688 13.585938 -21.890625 12.078125 -21.890625 L 10.765625 -21.890625 C 10.109375 -21.890625 9.628906 -21.832031 9.328125 -21.71875 C 9.035156 -21.613281 8.832031 -21.40625 8.71875 -21.09375 C 8.613281 -20.789062 8.5625 -20.300781 8.5625 -19.625 L 8.5625 -11.6875 L 9.578125 -11.6875 C 10.710938 -11.6875 11.570312 -12.101562 12.15625 -12.9375 C 12.738281 -13.769531 13.148438 -14.757812 13.390625 -15.90625 L 14.125 -15.90625 C 14.0625 -15.019531 14.03125 -14.019531 14.03125 -12.90625 L 14.03125 -11.375 C 14.03125 -10.289062 14.09375 -8.78125 14.21875 -6.84375 L 13.484375 -6.84375 C 13.035156 -9.65625 11.734375 -11.0625 9.578125 -11.0625 L 8.5625 -11.0625 L 8.5625 -3 C 8.5625 -2.320312 8.613281 -1.828125 8.71875 -1.515625 C 8.832031 -1.203125 9.035156 -0.992188 9.328125 -0.890625 C 9.628906 -0.785156 10.109375 -0.734375 10.765625 -0.734375 L 12.328125 -0.734375 C 13.847656 -0.734375 15.066406 -1.25 15.984375 -2.28125 C 16.910156 -3.3125 17.566406 -5.066406 17.953125 -7.546875 L 18.6875 -7.546875 C 18.625 -6.835938 18.59375 -5.941406 18.59375 -4.859375 Z M 18.59375 -4.859375 "/></g></g></g><g fill="#4bde80" fill-opacity="1"><g transform="translate(158.01407, 257.210404)"><g><path d="M 22.140625 -21.984375 C 21.441406 -21.878906 20.925781 -21.695312 20.59375 -21.4375 C 20.257812 -21.1875 20.035156 -20.78125 19.921875 -20.21875 C 19.804688 -19.664062 19.75 -18.847656 19.75 -17.765625 L 19.75 0.0625 L 18.984375 0.03125 L 18.125 0.0625 L 4.25 -17.515625 L 4.25 -5.234375 C 4.25 -3.984375 4.3125 -3.0625 4.4375 -2.46875 C 4.570312 -1.882812 4.847656 -1.457031 5.265625 -1.1875 C 5.691406 -0.925781 6.382812 -0.742188 7.34375 -0.640625 L 7.34375 0 C 6.519531 -0.0625 5.367188 -0.09375 3.890625 -0.09375 C 2.722656 -0.09375 1.800781 -0.0625 1.125 0 L 1.125 -0.640625 C 1.820312 -0.742188 2.332031 -0.921875 2.65625 -1.171875 C 2.988281 -1.429688 3.210938 -1.835938 3.328125 -2.390625 C 3.453125 -2.953125 3.515625 -3.773438 3.515625 -4.859375 L 3.515625 -19.234375 C 3.515625 -20.046875 3.453125 -20.628906 3.328125 -20.984375 C 3.210938 -21.347656 2.988281 -21.59375 2.65625 -21.71875 C 2.332031 -21.851562 1.820312 -21.941406 1.125 -21.984375 L 1.125 -22.625 C 1.800781 -22.5625 2.722656 -22.53125 3.890625 -22.53125 C 4.960938 -22.53125 5.878906 -22.5625 6.640625 -22.625 L 19.015625 -7.375 L 19.015625 -17.375 C 19.015625 -18.632812 18.945312 -19.554688 18.8125 -20.140625 C 18.6875 -20.734375 18.410156 -21.160156 17.984375 -21.421875 C 17.554688 -21.691406 16.863281 -21.878906 15.90625 -21.984375 L 15.90625 -22.625 C 16.738281 -22.5625 17.890625 -22.53125 19.359375 -22.53125 C 20.554688 -22.53125 21.484375 -22.5625 22.140625 -22.625 Z M 22.140625 -21.984375 "/></g></g></g><g fill="#4bde80" fill-opacity="1"><g transform="translate(184.380997, 257.210404)"><g><path d="M 20.515625 -22.625 C 20.367188 -20.601562 20.296875 -18.789062 20.296875 -17.1875 C 20.296875 -16.1875 20.328125 -15.378906 20.390625 -14.765625 L 19.65625 -14.765625 C 19.144531 -17.378906 18.445312 -19.21875 17.5625 -20.28125 C 16.675781 -21.351562 15.46875 -21.890625 13.9375 -21.890625 L 13.203125 -21.890625 L 13.203125 -3.640625 C 13.203125 -2.742188 13.289062 -2.09375 13.46875 -1.6875 C 13.644531 -1.289062 13.960938 -1.019531 14.421875 -0.875 C 14.878906 -0.738281 15.609375 -0.660156 16.609375 -0.640625 L 16.609375 0 C 13.929688 -0.0625 11.910156 -0.09375 10.546875 -0.09375 C 9.203125 -0.09375 7.253906 -0.0625 4.703125 0 L 4.703125 -0.640625 C 5.703125 -0.660156 6.429688 -0.738281 6.890625 -0.875 C 7.347656 -1.019531 7.664062 -1.289062 7.84375 -1.6875 C 8.019531 -2.09375 8.109375 -2.742188 8.109375 -3.640625 L 8.109375 -21.890625 L 7.40625 -21.890625 C 6.382812 -21.890625 5.515625 -21.664062 4.796875 -21.21875 C 4.085938 -20.769531 3.476562 -20.03125 2.96875 -19 C 2.457031 -17.96875 2.019531 -16.554688 1.65625 -14.765625 L 0.921875 -14.765625 C 0.984375 -15.378906 1.015625 -16.1875 1.015625 -17.1875 C 1.015625 -18.789062 0.941406 -20.601562 0.796875 -22.625 C 2.734375 -22.5625 6.023438 -22.53125 10.671875 -22.53125 C 15.316406 -22.53125 18.597656 -22.5625 20.515625 -22.625 Z M 20.515625 -22.625 "/></g></g></g><g fill="#4bde80" fill-opacity="1"><g transform="translate(209.02213, 257.210404)"><g><path d="M 10.953125 -21.984375 C 10.234375 -21.941406 9.710938 -21.851562 9.390625 -21.71875 C 9.078125 -21.59375 8.859375 -21.347656 8.734375 -20.984375 C 8.617188 -20.628906 8.5625 -20.046875 8.5625 -19.234375 L 8.5625 -3.390625 C 8.5625 -2.578125 8.617188 -1.988281 8.734375 -1.625 C 8.859375 -1.269531 9.078125 -1.023438 9.390625 -0.890625 C 9.710938 -0.765625 10.234375 -0.679688 10.953125 -0.640625 L 10.953125 0 C 9.804688 -0.0625 8.203125 -0.09375 6.140625 -0.09375 C 3.859375 -0.09375 2.175781 -0.0625 1.09375 0 L 1.09375 -0.640625 C 1.789062 -0.679688 2.300781 -0.765625 2.625 -0.890625 C 2.957031 -1.023438 3.179688 -1.269531 3.296875 -1.625 C 3.421875 -1.988281 3.484375 -2.578125 3.484375 -3.390625 L 3.484375 -19.234375 C 3.484375 -20.046875 3.421875 -20.628906 3.296875 -20.984375 C 3.179688 -21.347656 2.957031 -21.59375 2.625 -21.71875 C 2.300781 -21.851562 1.789062 -21.941406 1.09375 -21.984375 L 1.09375 -22.625 C 2.175781 -22.5625 3.859375 -22.53125 6.140625 -22.53125 C 8.203125 -22.53125 9.804688 -22.5625 10.953125 -22.625 Z M 10.953125 -21.984375 "/></g></g></g><g fill="#4bde80" fill-opacity="1"><g transform="translate(224.331269, 257.210404)"><g><path d="M 9.078125 -23.03125 C 10.179688 -23.03125 11.0625 -22.925781 11.71875 -22.71875 C 12.382812 -22.507812 13.054688 -22.203125 13.734375 -21.796875 C 13.972656 -21.660156 14.179688 -21.550781 14.359375 -21.46875 C 14.546875 -21.382812 14.703125 -21.34375 14.828125 -21.34375 C 15.015625 -21.34375 15.160156 -21.453125 15.265625 -21.671875 C 15.378906 -21.898438 15.46875 -22.257812 15.53125 -22.75 L 16.265625 -22.75 C 16.160156 -21.320312 16.109375 -18.894531 16.109375 -15.46875 L 15.375 -15.46875 C 15.28125 -16.613281 15.015625 -17.707031 14.578125 -18.75 C 14.148438 -19.800781 13.535156 -20.648438 12.734375 -21.296875 C 11.929688 -21.941406 11 -22.265625 9.9375 -22.265625 C 8.894531 -22.265625 8.046875 -21.972656 7.390625 -21.390625 C 6.742188 -20.804688 6.421875 -20.015625 6.421875 -19.015625 C 6.421875 -18.265625 6.578125 -17.613281 6.890625 -17.0625 C 7.210938 -16.507812 7.660156 -16.003906 8.234375 -15.546875 C 8.816406 -15.085938 9.703125 -14.460938 10.890625 -13.671875 L 11.921875 -12.96875 C 13.171875 -12.144531 14.15625 -11.421875 14.875 -10.796875 C 15.601562 -10.179688 16.195312 -9.460938 16.65625 -8.640625 C 17.113281 -7.816406 17.34375 -6.863281 17.34375 -5.78125 C 17.34375 -4.414062 16.988281 -3.269531 16.28125 -2.34375 C 15.582031 -1.414062 14.628906 -0.71875 13.421875 -0.25 C 12.222656 0.21875 10.890625 0.453125 9.421875 0.453125 C 8.234375 0.453125 7.242188 0.34375 6.453125 0.125 C 5.660156 -0.0820312 4.9375 -0.367188 4.28125 -0.734375 C 3.8125 -1.035156 3.445312 -1.1875 3.1875 -1.1875 C 3 -1.1875 2.851562 -1.070312 2.75 -0.84375 C 2.644531 -0.625 2.5625 -0.269531 2.5 0.21875 L 1.75 0.21875 C 1.84375 -1.125 1.890625 -4 1.890625 -8.40625 L 2.625 -8.40625 C 2.769531 -6.019531 3.300781 -4.085938 4.21875 -2.609375 C 5.132812 -1.128906 6.539062 -0.390625 8.4375 -0.390625 C 9.582031 -0.390625 10.523438 -0.695312 11.265625 -1.3125 C 12.015625 -1.925781 12.390625 -2.8125 12.390625 -3.96875 C 12.390625 -5.15625 12.003906 -6.175781 11.234375 -7.03125 C 10.472656 -7.882812 9.265625 -8.84375 7.609375 -9.90625 C 6.328125 -10.738281 5.300781 -11.460938 4.53125 -12.078125 C 3.769531 -12.691406 3.144531 -13.421875 2.65625 -14.265625 C 2.164062 -15.109375 1.921875 -16.082031 1.921875 -17.1875 C 1.921875 -18.46875 2.242188 -19.550781 2.890625 -20.4375 C 3.535156 -21.320312 4.398438 -21.972656 5.484375 -22.390625 C 6.578125 -22.816406 7.773438 -23.03125 9.078125 -23.03125 Z M 9.078125 -23.03125 "/></g></g></g><g fill="#4bde80" fill-opacity="1"><g transform="translate(246.287855, 257.210404)"><g><path d="M 20.515625 -22.625 C 20.367188 -20.601562 20.296875 -18.789062 20.296875 -17.1875 C 20.296875 -16.1875 20.328125 -15.378906 20.390625 -14.765625 L 19.65625 -14.765625 C 19.144531 -17.378906 18.445312 -19.21875 17.5625 -20.28125 C 16.675781 -21.351562 15.46875 -21.890625 13.9375 -21.890625 L 13.203125 -21.890625 L 13.203125 -3.640625 C 13.203125 -2.742188 13.289062 -2.09375 13.46875 -1.6875 C 13.644531 -1.289062 13.960938 -1.019531 14.421875 -0.875 C 14.878906 -0.738281 15.609375 -0.660156 16.609375 -0.640625 L 16.609375 0 C 13.929688 -0.0625 11.910156 -0.09375 10.546875 -0.09375 C 9.203125 -0.09375 7.253906 -0.0625 4.703125 0 L 4.703125 -0.640625 C 5.703125 -0.660156 6.429688 -0.738281 6.890625 -0.875 C 7.347656 -1.019531 7.664062 -1.289062 7.84375 -1.6875 C 8.019531 -2.09375 8.109375 -2.742188 8.109375 -3.640625 L 8.109375 -21.890625 L 7.40625 -21.890625 C 6.382812 -21.890625 5.515625 -21.664062 4.796875 -21.21875 C 4.085938 -20.769531 3.476562 -20.03125 2.96875 -19 C 2.457031 -17.96875 2.019531 -16.554688 1.65625 -14.765625 L 0.921875 -14.765625 C 0.984375 -15.378906 1.015625 -16.1875 1.015625 -17.1875 C 1.015625 -18.789062 0.941406 -20.601562 0.796875 -22.625 C 2.734375 -22.5625 6.023438 -22.53125 10.671875 -22.53125 C 15.316406 -22.53125 18.597656 -22.5625 20.515625 -22.625 Z M 20.515625 -22.625 "/></g></g></g><g fill="#000000" fill-opacity="1"><g transform="translate(27.900207, 306.379988)"><g><path d="M 16.964844 -15.328125 C 16.964844 -16.625 16.074219 -17.335938 14.46875 -17.335938 C 12.519531 -17.335938 9.628906 -16.140625 7.472656 -14.449219 C 4.683594 -12.257812 2.414062 -9.253906 2.078125 -7.28125 L 2.066406 -7.210938 C 2.066406 -6.988281 2.246094 -6.804688 2.472656 -6.804688 C 2.675781 -6.804688 2.84375 -6.953125 2.878906 -7.144531 C 3.171875 -8.917969 5.351562 -11.75 7.96875 -13.816406 C 10 -15.394531 12.6875 -16.523438 14.46875 -16.523438 C 15.632812 -16.523438 16.152344 -16.152344 16.152344 -15.328125 C 16.152344 -12.84375 12.222656 -7.03125 9.539062 -3.78125 C 8.601562 -2.640625 7.6875 -1.601562 6.796875 -0.632812 C 6.773438 -0.609375 6.785156 -0.621094 6.761719 -0.621094 C 5.769531 -1.050781 4.59375 -1.277344 3.328125 -1.277344 C -1.332031 -1.277344 -8.125 2.539062 -8.125 6.367188 C -8.125 7.609375 -7.246094 8.339844 -5.757812 8.339844 C -2.28125 8.339844 1.886719 5.746094 6.886719 0.460938 L 6.976562 0.382812 C 8.023438 0.972656 8.757812 1.839844 9.152344 2.945312 C 9.210938 3.105469 9.367188 3.21875 9.539062 3.21875 C 9.761719 3.21875 9.945312 3.035156 9.945312 2.808594 C 9.945312 2.753906 9.933594 2.707031 9.921875 2.664062 C 9.46875 1.421875 8.667969 0.453125 7.527344 -0.238281 C 8.386719 -1.164062 9.265625 -2.179688 10.167969 -3.261719 C 12.878906 -6.535156 16.964844 -12.597656 16.964844 -15.328125 Z M -5.757812 7.527344 C -6.796875 7.527344 -7.3125 7.132812 -7.3125 6.367188 C -7.3125 3.308594 -1.445312 -0.460938 3.328125 -0.460938 C 4.378906 -0.460938 5.351562 -0.304688 6.195312 0 C 1.398438 5.046875 -2.539062 7.527344 -5.757812 7.527344 Z M -5.757812 7.527344 "/></g></g></g><g fill="#000000" fill-opacity="1"><g transform="translate(42.809511, 306.379988)"><g><path d="M 12.203125 -4.582031 C 12.121094 -4.582031 12.054688 -4.558594 12 -4.515625 C 9.617188 -3.171875 6.117188 -3.339844 3.375 -4.921875 C 3.375 -4.921875 3.386719 -4.933594 3.398438 -4.933594 C 3.441406 -4.957031 3.488281 -4.964844 3.53125 -4.976562 C 3.703125 -5.035156 3.816406 -5.191406 3.816406 -5.371094 C 3.816406 -5.585938 3.625 -5.777344 3.410156 -5.777344 C 3.375 -5.777344 3.320312 -5.769531 3.273438 -5.757812 C 3.015625 -5.667969 2.765625 -5.574219 2.539062 -5.464844 C 2.515625 -5.453125 2.496094 -5.453125 2.449219 -5.464844 C 2.179688 -5.53125 1.886719 -5.382812 1.804688 -5.113281 C 1.785156 -5.078125 1.773438 -5.066406 1.75 -5.046875 C -0.113281 -3.929688 -1.398438 -2.179688 -1.398438 -0.757812 C -1.398438 0.0234375 -0.972656 0.542969 -0.316406 0.542969 C 1.320312 0.542969 3.015625 -2.222656 2.730469 -4.34375 C 5.757812 -2.503906 9.707031 -2.28125 12.394531 -3.816406 C 12.527344 -3.894531 12.609375 -4.03125 12.609375 -4.175781 C 12.609375 -4.390625 12.414062 -4.582031 12.203125 -4.582031 Z M -0.316406 -0.269531 C -0.496094 -0.269531 -0.585938 -0.417969 -0.585938 -0.757812 C -0.585938 -1.828125 0.441406 -3.238281 1.929688 -4.210938 C 2.109375 -2.585938 0.789062 -0.269531 -0.316406 -0.269531 Z M -0.316406 -0.269531 "/></g></g></g><g fill="#000000" fill-opacity="1"><g transform="translate(53.858873, 306.379988)"><g><path d="M 0.65625 5.621094 C 3.78125 5.621094 12.6875 -0.148438 17.789062 -3.847656 C 17.890625 -3.917969 17.957031 -4.039062 17.957031 -4.175781 C 17.957031 -4.402344 17.777344 -4.582031 17.550781 -4.582031 C 17.460938 -4.582031 17.382812 -4.558594 17.316406 -4.503906 C 12.222656 -0.824219 3.53125 4.808594 0.65625 4.808594 C 0.148438 4.808594 -0.0234375 4.648438 -0.0234375 4.175781 C -0.0234375 2.730469 2.527344 0.226562 5.035156 -2.246094 C 7.246094 -4.425781 9.449219 -6.589844 9.449219 -7.878906 C 9.449219 -8.363281 9.007812 -8.746094 8.441406 -9.253906 C 8.273438 -9.390625 8.09375 -9.550781 7.921875 -9.71875 C 10.023438 -11.964844 11.265625 -13.691406 11.265625 -14.390625 C 11.265625 -14.84375 11.003906 -15.113281 10.566406 -15.113281 C 8.917969 -15.113281 5.316406 -12.347656 5.316406 -11.0625 C 5.316406 -10.621094 5.65625 -10.261719 6.691406 -9.570312 C 5 -7.8125 2.933594 -5.925781 0.914062 -4.503906 C 0.800781 -4.425781 0.734375 -4.300781 0.734375 -4.164062 C 0.734375 -3.9375 0.914062 -3.757812 1.140625 -3.757812 C 1.230469 -3.757812 1.308594 -3.78125 1.378906 -3.835938 C 3.226562 -5.148438 5.472656 -7.191406 7.359375 -9.132812 C 8.285156 -8.511719 8.632812 -8.171875 8.632812 -7.878906 C 8.632812 -6.941406 6.671875 -5 4.457031 -2.820312 C 1.953125 -0.351562 -0.835938 2.394531 -0.835938 4.175781 C -0.835938 5.101562 -0.304688 5.621094 0.65625 5.621094 Z M 7.246094 -10.167969 C 6.523438 -10.65625 6.128906 -10.984375 6.128906 -11.0625 C 6.128906 -11.796875 8.996094 -13.996094 10.167969 -14.246094 C 10.316406 -14.265625 10.40625 -14.210938 10.363281 -14.074219 C 10.058594 -13.339844 8.320312 -11.308594 7.246094 -10.167969 Z M 7.246094 -10.167969 "/></g></g></g><g fill="#000000" fill-opacity="1"><g transform="translate(70.246696, 306.379988)"><g><path d="M 14.988281 -4.59375 C 14.910156 -4.59375 14.820312 -4.570312 14.765625 -4.527344 C 11.378906 -2.210938 6.964844 -0.664062 5.160156 -0.664062 C 4.335938 -0.664062 4.019531 -0.902344 4.019531 -1.480469 C 4.019531 -1.863281 4.390625 -2.664062 5.125 -3.847656 C 5.191406 -3.734375 5.316406 -3.667969 5.464844 -3.667969 C 5.675781 -3.667969 5.859375 -3.835938 5.871094 -4.050781 C 5.890625 -4.3125 5.859375 -4.570312 5.746094 -4.820312 C 6.027344 -5.226562 6.332031 -5.675781 6.660156 -6.140625 C 14.277344 -13.238281 24.808594 -24.15625 24.808594 -25.554688 C 24.808594 -26.050781 24.515625 -26.332031 23.960938 -26.332031 C 22.054688 -26.332031 11.5 -14.265625 6.230469 -6.863281 L 6.253906 -6.875 C 5.777344 -6.433594 5.328125 -6.015625 4.910156 -5.621094 C 4.648438 -5.722656 4.378906 -5.777344 4.074219 -5.777344 C 1.738281 -5.777344 -1.886719 -2.730469 -1.886719 -0.746094 C -1.886719 -0.25 -1.546875 0.0546875 -1.003906 0.0546875 C -0.484375 0.0546875 1.164062 -1.183594 3.835938 -3.554688 C 4.007812 -3.714844 4.109375 -3.644531 3.996094 -3.441406 C 3.464844 -2.515625 3.207031 -1.851562 3.207031 -1.480469 C 3.207031 -0.429688 3.894531 0.148438 5.160156 0.148438 C 7.101562 0.148438 11.703125 -1.457031 15.203125 -3.835938 C 15.328125 -3.929688 15.394531 -4.050781 15.394531 -4.1875 C 15.394531 -4.414062 15.214844 -4.59375 14.988281 -4.59375 Z M 23.960938 -25.519531 C 24.007812 -25.519531 24.019531 -25.496094 24.019531 -25.464844 C 24.019531 -24.605469 14.03125 -14.390625 9.71875 -10.191406 C 15.621094 -17.730469 22.84375 -25.519531 23.960938 -25.519531 Z M -0.960938 -0.757812 C -1.015625 -0.757812 -1.074219 -0.765625 -1.074219 -0.859375 C -1.074219 -2.269531 2.199219 -4.964844 4.074219 -4.964844 L 4.1875 -4.964844 C 1.242188 -2.269531 -0.632812 -0.757812 -0.960938 -0.757812 Z M -0.960938 -0.757812 "/></g></g></g><g fill="#000000" fill-opacity="1"><g transform="translate(84.072509, 306.379988)"><g><path d="M 16.074219 -4.582031 C 15.984375 -4.582031 15.902344 -4.558594 15.835938 -4.503906 C 12.96875 -2.359375 8.464844 -0.664062 6.886719 -0.664062 C 6.074219 -0.664062 5.746094 -0.902344 5.746094 -1.480469 C 5.746094 -2.425781 6.546875 -3.601562 7.144531 -4.457031 C 7.507812 -4.976562 7.730469 -5.316406 7.730469 -5.574219 C 7.730469 -5.847656 7.515625 -6.050781 7.246094 -6.050781 C 7 -6.050781 6.613281 -5.8125 5.339844 -4.886719 C 5.035156 -5.382812 4.628906 -5.585938 3.90625 -5.585938 C 2.121094 -5.585938 -2.574219 -2.652344 -2.574219 -0.859375 C -2.574219 -0.304688 -2.167969 0.0546875 -1.546875 0.0546875 C -0.078125 0.0546875 3.148438 -2.300781 5.304688 -3.859375 C 5.464844 -3.972656 5.621094 -4.085938 5.769531 -4.199219 C 5.949219 -4.335938 6.027344 -4.253906 5.914062 -4.0625 C 5.40625 -3.25 4.933594 -2.335938 4.933594 -1.480469 C 4.933594 -0.429688 5.621094 0.148438 6.886719 0.148438 C 8.714844 0.148438 13.441406 -1.792969 16.296875 -3.835938 C 16.410156 -3.917969 16.480469 -4.039062 16.480469 -4.175781 C 16.480469 -4.390625 16.289062 -4.582031 16.074219 -4.582031 Z M 4.671875 -4.414062 C 1.839844 -2.359375 -0.460938 -0.757812 -1.546875 -0.757812 C -1.683594 -0.757812 -1.761719 -0.8125 -1.761719 -0.949219 C -1.761719 -1.996094 2.222656 -4.773438 3.90625 -4.773438 C 4.367188 -4.773438 4.503906 -4.707031 4.671875 -4.414062 Z M 4.671875 -4.414062 "/></g></g></g><g fill="#000000" fill-opacity="1"><g transform="translate(98.993097, 306.379988)"><g><path d="M -1.433594 0.0898438 C -1.277344 0.0898438 -1.039062 -0.046875 -0.382812 -0.53125 C -0.292969 -0.597656 -0.191406 -0.664062 -0.0898438 -0.746094 C 1.894531 -2.179688 5.925781 -5.078125 7.449219 -5.078125 C 7.574219 -5.078125 7.628906 -5 7.628906 -4.898438 C 7.628906 -4.695312 7.449219 -3.9375 7.269531 -3.183594 C 7.109375 -2.515625 6.953125 -1.851562 6.953125 -1.535156 C 6.953125 -0.847656 7.425781 -0.429688 8.207031 -0.429688 C 10.078125 -0.429688 13.296875 -1.75 16.46875 -3.835938 C 16.59375 -3.90625 16.660156 -4.039062 16.660156 -4.175781 C 16.660156 -4.402344 16.480469 -4.582031 16.253906 -4.582031 C 16.175781 -4.582031 16.09375 -4.558594 16.027344 -4.515625 C 13.003906 -2.527344 9.910156 -1.242188 8.207031 -1.242188 C 7.867188 -1.242188 7.765625 -1.320312 7.765625 -1.535156 C 7.765625 -1.761719 7.902344 -2.335938 8.058594 -2.992188 C 8.238281 -3.746094 8.441406 -4.59375 8.441406 -5.058594 C 8.441406 -5.574219 8.082031 -5.890625 7.496094 -5.890625 C 6.21875 -5.890625 3.929688 -4.628906 -0.0546875 -1.773438 C -0.226562 -1.660156 -0.269531 -1.75 -0.179688 -1.875 C 0.777344 -3.195312 2.933594 -5.734375 4.976562 -7.269531 C 5.078125 -7.347656 5.136719 -7.472656 5.136719 -7.597656 C 5.136719 -7.820312 4.957031 -8.003906 4.730469 -8.003906 C 4.640625 -8.003906 4.546875 -7.96875 4.480469 -7.921875 C 1.5 -5.65625 -1.785156 -1.265625 -1.929688 -0.5625 C -2.007812 -0.203125 -1.785156 0.0898438 -1.433594 0.0898438 Z M -1.433594 0.0898438 "/></g></g></g><g fill="#000000" fill-opacity="1"><g transform="translate(114.082978, 306.379988)"><g/></g></g><g fill="#000000" fill-opacity="1"><g transform="translate(125.369358, 306.379988)"><g><path d="M 23.375 -4.582031 C 23.273438 -4.582031 23.183594 -4.546875 23.105469 -4.480469 C 21.308594 -2.902344 15.882812 0.914062 12.585938 0.914062 C 10.992188 0.914062 9.933594 -0.960938 8.839844 -2.890625 C 8.792969 -2.96875 8.757812 -3.035156 8.714844 -3.105469 C 8.578125 -3.375 8.421875 -3.632812 8.273438 -3.882812 C 15.859375 -4.085938 22.460938 -9.503906 22.460938 -14.0625 C 22.460938 -16.265625 20.78125 -17.5625 17.945312 -17.5625 C 12.519531 -17.5625 5.40625 -13.929688 2.347656 -9.582031 C 2.292969 -9.515625 2.269531 -9.4375 2.269531 -9.347656 C 2.269531 -9.121094 2.449219 -8.941406 2.675781 -8.941406 C 2.808594 -8.941406 2.933594 -9.007812 3.015625 -9.121094 C 5.925781 -13.25 12.777344 -16.75 17.945312 -16.75 C 20.417969 -16.75 21.648438 -15.847656 21.648438 -14.0625 C 21.648438 -9.796875 15.328125 -4.695312 7.855469 -4.695312 L 7.777344 -4.695312 C 7.753906 -4.695312 7.753906 -4.695312 7.730469 -4.71875 C 7.574219 -4.957031 7.394531 -5.179688 7.210938 -5.382812 C 7.203125 -5.40625 7.191406 -5.394531 7.203125 -5.40625 C 9.234375 -7.902344 11.636719 -10.464844 13.816406 -12.304688 C 13.90625 -12.382812 13.960938 -12.496094 13.960938 -12.621094 C 13.960938 -12.84375 13.78125 -13.027344 13.554688 -13.027344 C 13.453125 -13.027344 13.363281 -12.992188 13.296875 -12.925781 C 11.074219 -11.039062 8.632812 -8.464844 6.589844 -5.949219 C 6.230469 -6.21875 5.847656 -6.355469 5.441406 -6.355469 C 4.945312 -6.355469 4.570312 -6.027344 4.570312 -5.585938 C 4.570312 -5.191406 4.886719 -4.785156 5.429688 -4.46875 C 2.5625 -0.699219 1.117188 1.660156 0.878906 2.96875 C 0.835938 3.238281 0.8125 3.375 0.8125 3.488281 L 0.824219 3.566406 C 0.859375 3.894531 1.140625 4.085938 1.433594 3.972656 C 1.683594 3.894531 1.851562 3.53125 1.976562 2.855469 C 2.007812 2.664062 1.976562 2.515625 1.863281 2.449219 C 2.382812 1.128906 3.726562 -0.914062 6.195312 -4.132812 L 6.207031 -4.140625 L 6.21875 -4.140625 C 6.511719 -4.039062 6.863281 -3.972656 7.257812 -3.917969 C 7.292969 -3.917969 7.3125 -3.90625 7.324219 -3.882812 C 7.574219 -3.464844 7.84375 -2.992188 8.125 -2.496094 C 9.222656 -0.5625 10.519531 1.726562 12.585938 1.726562 C 16.128906 1.726562 21.808594 -2.269531 23.648438 -3.871094 C 23.726562 -3.949219 23.78125 -4.0625 23.78125 -4.175781 C 23.78125 -4.402344 23.601562 -4.582031 23.375 -4.582031 Z M 5.949219 -5.136719 C 5.9375 -5.125 5.949219 -5.125 5.925781 -5.136719 C 5.632812 -5.28125 5.441406 -5.429688 5.394531 -5.542969 L 5.441406 -5.542969 C 5.65625 -5.542969 5.878906 -5.472656 6.09375 -5.328125 Z M 6.691406 -4.785156 C 6.703125 -4.808594 6.726562 -4.84375 6.738281 -4.84375 C 6.738281 -4.832031 6.726562 -4.808594 6.714844 -4.796875 C 6.703125 -4.785156 6.703125 -4.785156 6.691406 -4.785156 Z M 6.691406 -4.785156 "/></g></g></g><g fill="#000000" fill-opacity="1"><g transform="translate(147.580954, 306.379988)"><g><path d="M 0.519531 -0.0664062 C 0.800781 -0.0664062 1.140625 -0.28125 1.285156 -0.554688 C 1.457031 -0.867188 1.332031 -1.152344 1.003906 -1.152344 C 0.722656 -1.152344 0.382812 -0.9375 0.238281 -0.664062 C 0.0546875 -0.351562 0.191406 -0.0664062 0.519531 -0.0664062 Z M 0.519531 -0.0664062 "/></g></g></g><g fill="#000000" fill-opacity="1"><g transform="translate(154.262495, 306.379988)"><g/></g></g><g fill="#000000" fill-opacity="1"><g transform="translate(165.548875, 306.379988)"><g><path d="M 27.855469 -12.96875 C 27.664062 -12.96875 27.507812 -12.832031 27.449219 -12.640625 C 27 -10.292969 19.515625 -0.371094 15.328125 -0.371094 C 14.753906 -0.371094 14.492188 -0.632812 14.492188 -1.195312 C 14.492188 -2.496094 15.113281 -4.457031 16.230469 -6.738281 C 16.253906 -6.773438 16.265625 -6.796875 16.289062 -6.804688 C 20.621094 -10.585938 23.511719 -13.882812 23.511719 -15.101562 C 23.511719 -15.441406 23.273438 -15.679688 22.945312 -15.679688 C 20.996094 -15.679688 17.621094 -11.390625 15.53125 -7.191406 C 15.507812 -7.15625 15.496094 -7.132812 15.476562 -7.121094 C 10.734375 -3.046875 4.988281 0.9375 2.414062 0.9375 C 1.851562 0.9375 1.570312 0.609375 1.570312 -0.0234375 C 1.570312 -4.402344 11.027344 -16.523438 15.148438 -16.523438 C 15.363281 -16.523438 15.554688 -16.714844 15.554688 -16.929688 C 15.554688 -17.144531 15.363281 -17.335938 15.148438 -17.335938 C 10.621094 -17.335938 0.757812 -4.671875 0.757812 -0.0234375 C 0.757812 1.050781 1.410156 1.75 2.414062 1.75 C 4.921875 1.75 10.078125 -1.660156 14.652344 -5.417969 C 14.753906 -5.496094 14.796875 -5.542969 14.796875 -5.554688 C 14.796875 -5.542969 14.765625 -5.496094 14.730469 -5.417969 C 14.0625 -3.859375 13.679688 -2.324219 13.679688 -1.195312 C 13.679688 -0.179688 14.3125 0.441406 15.328125 0.441406 C 19.921875 0.441406 27.742188 -9.957031 28.253906 -12.472656 L 28.261719 -12.550781 C 28.273438 -12.777344 28.082031 -12.96875 27.855469 -12.96875 Z M 22.675781 -14.832031 L 22.675781 -14.820312 C 22.675781 -14.210938 20.148438 -11.34375 17.359375 -8.804688 C 19.085938 -11.796875 21.773438 -14.832031 22.675781 -14.832031 Z M 22.675781 -14.832031 "/></g></g></g><g fill="#000000" fill-opacity="1"><g transform="translate(191.191524, 306.379988)"><g><path d="M 3.703125 -6.457031 C 3.828125 -6.457031 3.949219 -6.511719 4.03125 -6.613281 C 4.0625 -6.671875 4.132812 -6.75 4.199219 -6.851562 C 4.367188 -7.066406 4.570312 -7.347656 4.671875 -7.460938 C 4.730469 -7.539062 4.761719 -7.628906 4.761719 -7.71875 C 4.761719 -7.945312 4.582031 -8.125 4.355469 -8.125 C 4.234375 -8.125 4.121094 -8.070312 4.039062 -7.980469 L 3.386719 -7.109375 C 3.328125 -7.042969 3.296875 -6.953125 3.296875 -6.863281 C 3.296875 -6.636719 3.476562 -6.457031 3.703125 -6.457031 Z M 0.429688 0.40625 C 2.144531 0.40625 7.5625 -2.097656 10.292969 -3.828125 C 10.40625 -3.894531 10.484375 -4.039062 10.484375 -4.175781 C 10.484375 -4.390625 10.292969 -4.582031 10.078125 -4.582031 C 10.011719 -4.582031 9.945312 -4.558594 9.863281 -4.527344 C 7.167969 -2.820312 1.964844 -0.40625 0.429688 -0.40625 C -0.078125 -0.40625 -0.269531 -0.585938 -0.269531 -1.027344 C -0.269531 -1.714844 0.914062 -3.398438 2.640625 -5.167969 L 2.652344 -5.179688 C 2.71875 -5.261719 2.753906 -5.351562 2.753906 -5.453125 C 2.753906 -5.667969 2.5625 -5.859375 2.347656 -5.859375 C 2.234375 -5.859375 2.132812 -5.8125 2.054688 -5.734375 C 0.0664062 -3.679688 -1.082031 -1.964844 -1.082031 -1.027344 C -1.082031 -0.125 -0.519531 0.40625 0.429688 0.40625 Z M 0.429688 0.40625 "/></g></g></g><g fill="#000000" fill-opacity="1"><g transform="translate(200.119048, 306.379988)"><g><path d="M 25.011719 -25.183594 C 25.011719 -25.902344 24.527344 -26.332031 23.738281 -26.332031 C 19.4375 -26.332031 -1.511719 -5.304688 -1.511719 0.777344 C -1.511719 1.875 -0.925781 2.382812 0.316406 2.382812 C 2.335938 2.382812 8.125 -0.8125 12.472656 -3.816406 C 12.585938 -3.894531 12.652344 -4.019531 12.652344 -4.152344 C 12.652344 -4.378906 12.472656 -4.558594 12.246094 -4.558594 C 12.15625 -4.558594 12.078125 -4.539062 12.007812 -4.480469 C 7.15625 -1.128906 1.929688 1.570312 0.316406 1.570312 C -0.484375 1.570312 -0.699219 1.398438 -0.699219 0.777344 C -0.699219 -0.179688 -0.101562 -1.648438 1.082031 -3.566406 C 9.785156 -8.839844 25.011719 -22.167969 25.011719 -25.183594 Z M 23.738281 -25.519531 C 24.097656 -25.519531 24.199219 -25.429688 24.199219 -25.183594 C 24.199219 -22.867188 11.253906 -11.140625 2.199219 -5.238281 C 8.015625 -13.511719 20.746094 -25.519531 23.738281 -25.519531 Z M 23.738281 -25.519531 "/></g></g></g><g fill="#000000" fill-opacity="1"><g transform="translate(211.236124, 306.379988)"><g><path d="M 25.011719 -25.183594 C 25.011719 -25.902344 24.527344 -26.332031 23.738281 -26.332031 C 19.4375 -26.332031 -1.511719 -5.304688 -1.511719 0.777344 C -1.511719 1.875 -0.925781 2.382812 0.316406 2.382812 C 2.335938 2.382812 8.125 -0.8125 12.472656 -3.816406 C 12.585938 -3.894531 12.652344 -4.019531 12.652344 -4.152344 C 12.652344 -4.378906 12.472656 -4.558594 12.246094 -4.558594 C 12.15625 -4.558594 12.078125 -4.539062 12.007812 -4.480469 C 7.15625 -1.128906 1.929688 1.570312 0.316406 1.570312 C -0.484375 1.570312 -0.699219 1.398438 -0.699219 0.777344 C -0.699219 -0.179688 -0.101562 -1.648438 1.082031 -3.566406 C 9.785156 -8.839844 25.011719 -22.167969 25.011719 -25.183594 Z M 23.738281 -25.519531 C 24.097656 -25.519531 24.199219 -25.429688 24.199219 -25.183594 C 24.199219 -22.867188 11.253906 -11.140625 2.199219 -5.238281 C 8.015625 -13.511719 20.746094 -25.519531 23.738281 -25.519531 Z M 23.738281 -25.519531 "/></g></g></g><g fill="#000000" fill-opacity="1"><g transform="translate(222.353212, 306.379988)"><g><path d="M 3.703125 -6.457031 C 3.828125 -6.457031 3.949219 -6.511719 4.03125 -6.613281 C 4.0625 -6.671875 4.132812 -6.75 4.199219 -6.851562 C 4.367188 -7.066406 4.570312 -7.347656 4.671875 -7.460938 C 4.730469 -7.539062 4.761719 -7.628906 4.761719 -7.71875 C 4.761719 -7.945312 4.582031 -8.125 4.355469 -8.125 C 4.234375 -8.125 4.121094 -8.070312 4.039062 -7.980469 L 3.386719 -7.109375 C 3.328125 -7.042969 3.296875 -6.953125 3.296875 -6.863281 C 3.296875 -6.636719 3.476562 -6.457031 3.703125 -6.457031 Z M 0.429688 0.40625 C 2.144531 0.40625 7.5625 -2.097656 10.292969 -3.828125 C 10.40625 -3.894531 10.484375 -4.039062 10.484375 -4.175781 C 10.484375 -4.390625 10.292969 -4.582031 10.078125 -4.582031 C 10.011719 -4.582031 9.945312 -4.558594 9.863281 -4.527344 C 7.167969 -2.820312 1.964844 -0.40625 0.429688 -0.40625 C -0.078125 -0.40625 -0.269531 -0.585938 -0.269531 -1.027344 C -0.269531 -1.714844 0.914062 -3.398438 2.640625 -5.167969 L 2.652344 -5.179688 C 2.71875 -5.261719 2.753906 -5.351562 2.753906 -5.453125 C 2.753906 -5.667969 2.5625 -5.859375 2.347656 -5.859375 C 2.234375 -5.859375 2.132812 -5.8125 2.054688 -5.734375 C 0.0664062 -3.679688 -1.082031 -1.964844 -1.082031 -1.027344 C -1.082031 -0.125 -0.519531 0.40625 0.429688 0.40625 Z M 0.429688 0.40625 "/></g></g></g><g fill="#000000" fill-opacity="1"><g transform="translate(231.280747, 306.379988)"><g><path d="M 14.59375 -4.582031 C 14.539062 -4.582031 14.492188 -4.570312 14.460938 -4.558594 C 12.925781 -4.039062 11.117188 -3.523438 9.347656 -3.003906 C 7.933594 -2.605469 6.546875 -2.191406 5.363281 -1.816406 C 5.382812 -1.894531 5.394531 -1.988281 5.40625 -2.054688 C 5.453125 -2.5625 5.058594 -2.855469 4.367188 -2.855469 C 3.949219 -2.855469 3.386719 -2.765625 2.84375 -2.675781 C 2.257812 -2.574219 1.691406 -2.484375 1.242188 -2.484375 C 0.847656 -2.484375 0.710938 -2.539062 0.710938 -2.707031 C 0.710938 -3.703125 3.351562 -5.699219 4.785156 -5.699219 C 4.910156 -5.699219 5.011719 -5.667969 5.011719 -5.574219 C 5.011719 -5.28125 4.617188 -4.742188 4.234375 -4.515625 C 4.109375 -4.445312 4.03125 -4.3125 4.03125 -4.164062 C 4.03125 -3.9375 4.210938 -3.757812 4.4375 -3.757812 C 4.503906 -3.757812 4.582031 -3.78125 4.648438 -3.816406 C 5.160156 -4.121094 5.644531 -4.773438 5.800781 -5.382812 C 5.8125 -5.441406 5.824219 -5.542969 5.824219 -5.621094 C 5.824219 -6.164062 5.417969 -6.511719 4.785156 -6.511719 C 2.867188 -6.511719 -0.101562 -4.164062 -0.101562 -2.628906 C -0.101562 -2.007812 0.382812 -1.671875 1.242188 -1.671875 C 1.75 -1.671875 2.394531 -1.773438 2.980469 -1.875 C 3.726562 -1.996094 4.527344 -2.191406 4.617188 -2.03125 C 4.660156 -1.953125 4.515625 -1.714844 4.367188 -1.5 L 4.300781 -1.457031 C 1.003906 -0.304688 -1.207031 0.949219 -1.207031 1.792969 C -1.207031 2.269531 -0.835938 2.5625 -0.214844 2.5625 C 1.511719 2.5625 3.757812 0.734375 4.808594 -0.746094 C 4.820312 -0.765625 4.84375 -0.777344 4.875 -0.800781 C 6.207031 -1.242188 7.855469 -1.714844 9.570312 -2.222656 C 11.34375 -2.742188 13.171875 -3.273438 14.71875 -3.792969 C 14.886719 -3.835938 15 -3.996094 15 -4.175781 C 15 -4.402344 14.820312 -4.582031 14.59375 -4.582031 Z M -0.0546875 1.75 C -0.167969 1.75 -0.226562 1.714844 -0.226562 1.671875 C -0.226562 1.613281 -0.167969 1.546875 -0.078125 1.488281 C 0.53125 1.0625 1.941406 0.339844 3.386719 -0.257812 C 2.191406 0.949219 0.777344 1.75 -0.0546875 1.75 Z M -0.0546875 1.75 "/></g></g></g><g fill="#000000" fill-opacity="1"><g transform="translate(244.7341, 306.379988)"><g/></g></g><g fill="#000000" fill-opacity="1"><g transform="translate(256.020492, 306.379988)"><g><path d="M 17.945312 -17.5625 C 12.519531 -17.5625 5.40625 -13.929688 2.347656 -9.582031 C 2.292969 -9.515625 2.269531 -9.4375 2.269531 -9.347656 C 2.269531 -9.121094 2.449219 -8.941406 2.675781 -8.941406 C 2.808594 -8.941406 2.933594 -9.007812 3.015625 -9.121094 C 5.925781 -13.25 12.777344 -16.75 17.945312 -16.75 C 20.578125 -16.75 21.964844 -15.746094 21.964844 -13.859375 C 21.964844 -9.335938 15.328125 -3.566406 7.855469 -3.566406 C 7.222656 -3.566406 6.546875 -3.644531 5.949219 -3.804688 C 8.183594 -6.761719 11.175781 -10.066406 13.816406 -12.304688 C 13.90625 -12.382812 13.960938 -12.496094 13.960938 -12.621094 C 13.960938 -12.84375 13.78125 -13.027344 13.554688 -13.027344 C 13.453125 -13.027344 13.363281 -12.992188 13.296875 -12.925781 C 10.507812 -10.566406 7.40625 -7.109375 5.136719 -4.074219 C 5.125 -4.050781 5.136719 -4.0625 5.101562 -4.0625 C 4.300781 -4.367188 3.726562 -4.785156 3.5 -5.214844 C 3.429688 -5.351562 3.285156 -5.441406 3.136719 -5.441406 C 2.914062 -5.441406 2.730469 -5.261719 2.730469 -5.035156 C 2.730469 -4.964844 2.742188 -4.898438 2.777344 -4.84375 C 3.09375 -4.265625 3.746094 -3.746094 4.628906 -3.386719 C 2.539062 -0.472656 1.421875 1.457031 1.195312 2.605469 C 1.128906 2.957031 1.117188 3.195312 1.164062 3.339844 C 1.242188 3.578125 1.5 3.703125 1.75 3.613281 C 1.996094 3.53125 2.167969 3.171875 2.292969 2.496094 C 2.324219 2.324219 2.292969 2.179688 2.179688 2.097656 C 2.617188 0.972656 3.632812 -0.65625 5.417969 -3.082031 C 5.441406 -3.125 5.417969 -3.105469 5.441406 -3.09375 C 6.207031 -2.878906 7.042969 -2.753906 7.855469 -2.753906 C 15.621094 -2.753906 22.777344 -8.972656 22.777344 -13.859375 C 22.777344 -16.21875 21.027344 -17.5625 17.945312 -17.5625 Z M 17.945312 -17.5625 "/></g></g></g><g fill="#000000" fill-opacity="1"><g transform="translate(273.6611, 306.379988)"><g><path d="M 17.324219 -4.582031 C 17.257812 -4.582031 17.191406 -4.558594 17.113281 -4.527344 C 14.46875 -2.820312 9.582031 -0.453125 7.371094 -0.453125 C 6.671875 -0.453125 6.367188 -0.6875 6.367188 -1.21875 C 6.367188 -1.636719 6.582031 -2.167969 6.816406 -2.777344 C 7.054688 -3.375 7.324219 -4.03125 7.324219 -4.570312 C 7.324219 -5.089844 7.007812 -5.429688 6.5 -5.429688 C 5.429688 -5.429688 3.441406 -4.039062 0.394531 -1.164062 C -0.496094 -0.316406 -1.34375 0.507812 -1.996094 1.152344 C -2.15625 1.308594 -2.269531 1.296875 -2.109375 1.0625 C -1.386719 -0.125 -0.15625 -1.816406 1.488281 -3.90625 C 12.425781 -10.8125 22.722656 -22.472656 22.722656 -25.113281 C 22.722656 -25.710938 22.359375 -26.050781 21.726562 -26.050781 C 18.839844 -26.050781 -3.644531 -0.597656 -3.644531 2.652344 C -3.644531 2.945312 -3.421875 3.171875 -3.125 3.171875 C -2.890625 3.171875 -2.664062 2.957031 -1.433594 1.726562 C -1.296875 1.589844 -1.152344 1.457031 -0.992188 1.308594 C -0.417969 0.746094 0.25 0.101562 0.960938 -0.574219 C 3.441406 -2.921875 5.328125 -4.355469 6.277344 -4.582031 C 6.421875 -4.617188 6.511719 -4.527344 6.488281 -4.367188 C 6.433594 -3.996094 6.265625 -3.566406 6.074219 -3.09375 C 5.835938 -2.484375 5.554688 -1.792969 5.554688 -1.21875 C 5.554688 -0.226562 6.230469 0.359375 7.371094 0.359375 C 9.761719 0.359375 14.855469 -2.097656 17.550781 -3.835938 C 17.664062 -3.917969 17.730469 -4.039062 17.730469 -4.175781 C 17.730469 -4.390625 17.539062 -4.582031 17.324219 -4.582031 Z M 21.726562 -25.238281 C 21.863281 -25.238281 21.910156 -25.191406 21.910156 -25.082031 C 21.910156 -22.945312 13.148438 -12.890625 3.148438 -5.972656 C 10.835938 -15.382812 20.328125 -25.238281 21.726562 -25.238281 Z M 21.726562 -25.238281 "/></g></g></g><g fill="#000000" fill-opacity="1"><g transform="translate(289.823178, 306.379988)"><g><path d="M 17.878906 -17.335938 C 11.492188 -17.335938 4.671875 -11.851562 2.121094 -8.117188 C 2.078125 -8.035156 2.054688 -7.96875 2.054688 -7.878906 C 2.054688 -7.652344 2.234375 -7.472656 2.460938 -7.472656 C 2.597656 -7.472656 2.71875 -7.539062 2.800781 -7.652344 C 5.269531 -11.296875 11.785156 -16.523438 17.878906 -16.523438 C 20.429688 -16.523438 21.671875 -15.238281 21.277344 -12.992188 C 19.976562 -5.609375 10.835938 2.292969 3.589844 2.292969 C 1.785156 2.292969 0.859375 1.683594 1.039062 0.644531 C 1.277344 -0.722656 2.992188 -2.394531 5.363281 -3.554688 C 4.140625 -1.894531 3.320312 -0.710938 3.058594 -0.191406 C 3.015625 -0.136719 3.003906 -0.0664062 3.003906 0 C 3.003906 0.226562 3.183594 0.40625 3.410156 0.40625 C 3.554688 0.40625 3.703125 0.316406 3.769531 0.179688 C 4.109375 -0.453125 5.328125 -2.179688 6.828125 -4.164062 C 6.851562 -4.1875 6.863281 -4.199219 6.90625 -4.222656 C 8.78125 -4.898438 10.859375 -5.25 13.015625 -5.25 C 14.085938 -5.25 15.179688 -5.160156 16.296875 -4.976562 L 16.367188 -4.964844 C 16.59375 -4.964844 16.773438 -5.148438 16.773438 -5.371094 C 16.773438 -5.574219 16.625 -5.746094 16.421875 -5.777344 C 15.292969 -5.960938 14.144531 -6.0625 13.015625 -6.0625 C 11.1875 -6.0625 9.390625 -5.8125 7.71875 -5.316406 C 10.023438 -8.273438 12.855469 -11.648438 15.070312 -13.703125 C 15.148438 -13.769531 15.191406 -13.882812 15.191406 -13.996094 C 15.191406 -14.222656 15.011719 -14.402344 14.785156 -14.402344 C 14.683594 -14.402344 14.582031 -14.367188 14.503906 -14.289062 C 12.042969 -12 8.78125 -8.046875 6.355469 -4.863281 C 6.332031 -4.84375 6.320312 -4.832031 6.277344 -4.808594 C 3.058594 -3.542969 0.5625 -1.367188 0.25 0.507812 C -0.046875 2.097656 1.265625 3.105469 3.589844 3.105469 C 11.242188 3.105469 20.710938 -5.066406 22.066406 -12.855469 C 22.5625 -15.609375 20.9375 -17.335938 17.878906 -17.335938 Z M 17.878906 -17.335938 "/></g></g></g><g clip-path="url(#fc13cd2740)"><path fill="#4bde80" d="M 211.894531 84.394531 L 113.328125 84.394531 L 118.902344 60.128906 C 119.128906 59.144531 120.003906 58.449219 121.015625 58.449219 L 130.109375 58.449219 C 131.304688 58.449219 132.273438 57.480469 132.273438 56.285156 C 132.273438 55.09375 131.304688 54.125 130.109375 54.125 C 130.109375 54.125 124.726562 54.125 121.015625 54.125 C 117.984375 54.125 115.355469 56.214844 114.679688 59.164062 L 108.503906 86.027344 C 108.480469 86.125 108.464844 86.226562 108.453125 86.328125 C 108.441406 86.417969 108.4375 86.507812 108.441406 86.597656 L 108.441406 108.179688 C 108.441406 109.839844 109.066406 111.355469 110.09375 112.503906 C 109.066406 113.652344 108.441406 115.167969 108.441406 116.828125 L 108.441406 125.476562 C 108.441406 126.671875 109.410156 127.640625 110.605469 127.640625 C 111.804688 127.640625 112.773438 126.671875 112.773438 125.476562 L 112.773438 116.828125 C 112.773438 115.636719 113.746094 114.667969 114.941406 114.667969 C 131.859375 114.667969 193.363281 114.667969 210.28125 114.667969 C 211.476562 114.667969 212.449219 115.636719 212.449219 116.828125 C 212.449219 116.828125 212.449219 138.449219 212.449219 138.449219 C 212.449219 139.644531 211.476562 140.613281 210.28125 140.613281 C 210.28125 140.613281 114.941406 140.613281 114.941406 140.613281 C 113.746094 140.613281 112.773438 139.644531 112.773438 138.449219 L 112.773438 134.125 C 112.773438 132.933594 111.804688 131.964844 110.605469 131.964844 C 109.410156 131.964844 108.441406 132.933594 108.441406 134.125 L 108.441406 138.449219 C 108.441406 140.113281 109.066406 141.628906 110.09375 142.773438 C 109.03125 143.960938 108.441406 145.5 108.441406 147.097656 C 108.441406 151.394531 108.441406 157.941406 108.441406 162.234375 C 108.441406 163.957031 109.125 165.605469 110.34375 166.820312 C 111.5625 168.039062 113.214844 168.722656 114.941406 168.722656 C 114.941406 168.722656 114.941406 175.207031 114.941406 175.207031 C 114.941406 176.402344 115.910156 177.371094 117.105469 177.371094 L 208.113281 177.371094 C 209.3125 177.371094 210.28125 176.402344 210.28125 175.207031 L 210.28125 168.722656 C 213.871094 168.722656 216.78125 165.816406 216.78125 162.234375 L 216.78125 157.910156 C 216.78125 156.71875 215.8125 155.75 214.617188 155.75 C 213.417969 155.75 212.449219 156.71875 212.449219 157.910156 L 212.449219 162.234375 C 212.449219 163.429688 211.476562 164.398438 210.28125 164.398438 C 193.363281 164.398438 131.859375 164.398438 114.941406 164.398438 C 114.367188 164.398438 113.8125 164.171875 113.410156 163.765625 C 113 163.359375 112.773438 162.808594 112.773438 162.234375 L 112.773438 147.097656 C 112.773438 146.527344 113 145.976562 113.410156 145.570312 C 113.8125 145.164062 114.367188 144.9375 114.941406 144.9375 C 114.941406 144.9375 210.28125 144.9375 210.28125 144.9375 C 211.476562 144.9375 212.449219 145.90625 212.449219 147.097656 L 212.449219 151.425781 C 212.449219 152.617188 213.417969 153.585938 214.617188 153.585938 C 215.8125 153.585938 216.78125 152.617188 216.78125 151.425781 L 216.78125 147.097656 C 216.78125 145.4375 216.15625 143.921875 215.128906 142.773438 C 216.15625 141.628906 216.78125 140.113281 216.78125 138.449219 L 216.78125 116.828125 C 216.78125 115.167969 216.15625 113.652344 215.128906 112.503906 C 216.191406 111.316406 216.78125 109.78125 216.78125 108.179688 C 216.78125 105.171875 216.78125 101.691406 216.78125 101.691406 C 216.78125 100.5 215.8125 99.53125 214.617188 99.53125 C 213.417969 99.53125 212.449219 100.5 212.449219 101.691406 C 212.449219 101.691406 212.449219 105.171875 212.449219 108.179688 C 212.449219 108.753906 212.222656 109.304688 211.8125 109.707031 C 211.410156 110.113281 210.855469 110.34375 210.28125 110.34375 C 193.363281 110.34375 131.859375 110.34375 114.941406 110.34375 C 113.746094 110.34375 112.773438 109.375 112.773438 108.179688 C 112.773438 108.179688 112.773438 88.71875 112.773438 88.71875 C 112.773438 88.71875 212.449219 88.71875 212.449219 88.71875 C 212.449219 88.71875 212.449219 95.207031 212.449219 95.207031 C 212.449219 96.398438 213.417969 97.367188 214.617188 97.367188 C 215.8125 97.367188 216.78125 96.398438 216.78125 95.207031 L 216.78125 86.597656 C 216.785156 86.507812 216.78125 86.417969 216.769531 86.328125 C 216.757812 86.226562 216.742188 86.125 216.71875 86.027344 L 210.542969 59.164062 C 209.867188 56.214844 207.238281 54.125 204.207031 54.125 L 147.441406 54.125 C 146.246094 54.125 145.277344 55.09375 145.277344 56.285156 C 145.277344 57.480469 146.246094 58.449219 147.441406 58.449219 L 204.207031 58.449219 C 205.21875 58.449219 206.09375 59.144531 206.320312 60.128906 Z M 205.949219 168.722656 L 119.273438 168.722656 L 119.273438 173.046875 C 119.273438 173.046875 205.949219 173.046875 205.949219 173.046875 Z M 201.613281 151.425781 C 199.222656 151.425781 197.28125 153.363281 197.28125 155.75 C 197.28125 158.136719 199.222656 160.074219 201.613281 160.074219 C 204.007812 160.074219 205.949219 158.136719 205.949219 155.75 C 205.949219 153.363281 204.007812 151.425781 201.613281 151.425781 Z M 188.613281 151.425781 C 186.222656 151.425781 184.28125 153.363281 184.28125 155.75 C 184.28125 158.136719 186.222656 160.074219 188.613281 160.074219 C 191.003906 160.074219 192.945312 158.136719 192.945312 155.75 C 192.945312 153.363281 191.003906 151.425781 188.613281 151.425781 Z M 119.273438 157.910156 L 145.277344 157.910156 C 146.472656 157.910156 147.441406 156.941406 147.441406 155.75 C 147.441406 154.554688 146.472656 153.585938 145.277344 153.585938 L 119.273438 153.585938 C 118.078125 153.585938 117.105469 154.554688 117.105469 155.75 C 117.105469 156.941406 118.078125 157.910156 119.273438 157.910156 Z M 201.613281 124.394531 C 199.222656 124.394531 197.28125 126.332031 197.28125 128.722656 C 197.28125 131.109375 199.222656 133.046875 201.613281 133.046875 C 204.007812 133.046875 205.949219 131.109375 205.949219 128.722656 C 205.949219 126.332031 204.007812 124.394531 201.613281 124.394531 Z M 188.613281 124.394531 C 186.222656 124.394531 184.28125 126.332031 184.28125 128.722656 C 184.28125 131.109375 186.222656 133.046875 188.613281 133.046875 C 191.003906 133.046875 192.945312 131.109375 192.945312 128.722656 C 192.945312 126.332031 191.003906 124.394531 188.613281 124.394531 Z M 119.273438 129.800781 L 145.277344 129.800781 C 146.472656 129.800781 147.441406 128.832031 147.441406 127.640625 C 147.441406 126.445312 146.472656 125.476562 145.277344 125.476562 L 119.273438 125.476562 C 118.078125 125.476562 117.105469 126.445312 117.105469 127.640625 C 117.105469 128.832031 118.078125 129.800781 119.273438 129.800781 Z M 201.613281 96.289062 C 199.222656 96.289062 197.28125 98.226562 197.28125 100.613281 C 197.28125 103 199.222656 104.9375 201.613281 104.9375 C 204.007812 104.9375 205.949219 103 205.949219 100.613281 C 205.949219 98.226562 204.007812 96.289062 201.613281 96.289062 Z M 188.613281 96.289062 C 186.222656 96.289062 184.28125 98.226562 184.28125 100.613281 C 184.28125 103 186.222656 104.9375 188.613281 104.9375 C 191.003906 104.9375 192.945312 103 192.945312 100.613281 C 192.945312 98.226562 191.003906 96.289062 188.613281 96.289062 Z M 119.273438 101.691406 L 145.277344 101.691406 C 146.472656 101.691406 147.441406 100.726562 147.441406 99.53125 C 147.441406 98.335938 146.472656 97.367188 145.277344 97.367188 L 119.273438 97.367188 C 118.078125 97.367188 117.105469 98.335938 117.105469 99.53125 C 117.105469 100.726562 118.078125 101.691406 119.273438 101.691406 Z M 136.609375 58.449219 L 140.941406 58.449219 C 142.140625 58.449219 143.109375 57.480469 143.109375 56.285156 C 143.109375 55.09375 142.140625 54.125 140.941406 54.125 L 136.609375 54.125 C 135.414062 54.125 134.441406 55.09375 134.441406 56.285156 C 134.441406 57.480469 135.414062 58.449219 136.609375 58.449219 Z M 136.609375 58.449219 " fill-opacity="1" fill-rule="evenodd"/></g><g clip-path="url(#8c20fdeef3)"><path fill="#323653" d="M 132.339844 32.820312 L 132.339844 51.023438 C 132.339844 53.066406 132.144531 55.210938 132.339844 57.089844 C 132.730469 60.839844 135.699219 64.453125 139.710938 64.398438 C 141.378906 64.378906 142.992188 63.589844 144.007812 62.746094 C 145.445312 61.546875 146.746094 59.320312 146.941406 56.882812 C 147.242188 53.148438 146.941406 48.933594 146.941406 44.816406 L 146.941406 32.75 C 143.433594 34.179688 136.144531 34.273438 132.339844 32.820312 Z M 138.640625 30.476562 C 136.378906 30.574219 134.101562 30.769531 132.625 31.578125 C 134.148438 32.644531 136.859375 32.839844 139.425781 32.886719 C 142.023438 32.933594 144.765625 32.542969 146.441406 31.714844 C 144.695312 30.542969 141.523438 30.347656 138.640625 30.476562 Z M 131.195312 16.546875 L 131.195312 18.40625 C 131.453125 18.804688 132.074219 18.847656 132.339844 19.234375 L 132.339844 30.476562 C 135.636719 29.199219 142.132812 29.109375 145.652344 30.128906 C 146.214844 30.292969 146.628906 30.523438 146.941406 30.476562 L 146.941406 19.234375 C 147.984375 19.042969 148.230469 17.71875 147.945312 16.476562 C 143.550781 17.96875 135.703125 17.847656 131.195312 16.546875 Z M 131.335938 15.167969 C 135.503906 16.851562 143.8125 16.929688 147.871094 15.097656 C 143.628906 13.460938 135.46875 13.34375 131.335938 15.167969 Z M 149.160156 14.617188 C 149.019531 16.347656 149.363281 17.195312 149.160156 18.269531 C 148.992188 19.164062 148.097656 19.335938 147.945312 20.0625 C 147.671875 21.335938 147.945312 23.152344 147.945312 24.75 L 147.945312 47.851562 C 147.945312 50.964844 148.179688 53.988281 147.945312 57.089844 C 147.648438 61.011719 144.664062 64.734375 140.855469 65.15625 C 137.265625 65.554688 135.15625 64.097656 133.699219 62.46875 C 132.46875 61.09375 131.527344 59.425781 131.335938 57.367188 C 131.074219 54.464844 131.335938 51.160156 131.335938 47.988281 L 131.335938 24.613281 C 131.335938 23.234375 131.65625 21.203125 131.335938 19.996094 C 131.171875 19.363281 130.355469 19.371094 130.121094 18.613281 C 129.921875 17.972656 129.820312 15.4375 130.050781 14.753906 C 130.363281 13.804688 132.0625 13.457031 133.269531 13.238281 C 136.648438 12.621094 140.53125 12.542969 144.222656 12.960938 C 146.160156 13.179688 148.050781 13.535156 149.160156 14.617188 " fill-opacity="1" fill-rule="evenodd"/></g><path fill="#f9fbef" d="M 147.871094 15.097656 C 143.8125 16.929688 135.503906 16.851562 131.339844 15.167969 C 135.46875 13.34375 143.628906 13.460938 147.871094 15.097656 " fill-opacity="1" fill-rule="evenodd"/><path fill="#f9fbef" d="M 143.148438 18.132812 C 139.714844 18.464844 135.773438 18.289062 132.984375 17.648438 C 132.476562 17.871094 131.910156 18.039062 131.695312 18.546875 C 136.125 19.765625 143.144531 19.71875 147.585938 18.546875 C 146.800781 17.085938 145.011719 17.953125 143.148438 18.132812 Z M 147.945312 16.476562 C 148.230469 17.71875 147.984375 19.042969 146.941406 19.234375 L 146.941406 30.476562 C 146.628906 30.523438 146.214844 30.292969 145.652344 30.128906 C 142.132812 29.109375 135.636719 29.199219 132.339844 30.476562 L 132.339844 19.234375 C 132.074219 18.847656 131.453125 18.804688 131.195312 18.40625 L 131.195312 16.546875 C 135.703125 17.847656 143.550781 17.96875 147.945312 16.476562 " fill-opacity="1" fill-rule="evenodd"/><path fill="#323653" d="M 147.585938 18.546875 C 143.144531 19.71875 136.125 19.765625 131.695312 18.546875 C 131.910156 18.039062 132.476562 17.871094 132.984375 17.648438 C 135.773438 18.289062 139.714844 18.464844 143.148438 18.132812 C 145.011719 17.953125 146.800781 17.085938 147.585938 18.546875 " fill-opacity="1" fill-rule="evenodd"/><path fill="#4bde80" d="M 146.441406 31.714844 C 144.765625 32.542969 142.023438 32.933594 139.425781 32.886719 C 136.859375 32.839844 134.148438 32.644531 132.625 31.578125 C 134.101562 30.769531 136.378906 30.574219 138.640625 30.476562 C 141.523438 30.347656 144.695312 30.542969 146.441406 31.714844 " fill-opacity="1" fill-rule="evenodd"/><path fill="#4bde80" d="M 146.941406 32.75 L 146.941406 44.816406 C 146.941406 48.933594 147.242188 53.148438 146.941406 56.882812 C 146.746094 59.320312 145.445312 61.546875 144.007812 62.746094 C 142.992188 63.589844 141.378906 64.378906 139.710938 64.398438 C 135.699219 64.453125 132.730469 60.839844 132.339844 57.089844 C 132.144531 55.210938 132.339844 53.066406 132.339844 51.023438 L 132.339844 32.820312 C 136.144531 34.273438 143.433594 34.179688 146.941406 32.75 " fill-opacity="1" fill-rule="evenodd"/><g clip-path="url(#4e67092f70)"><path fill="#323653" d="M 155.472656 32.820312 L 155.472656 51.023438 C 155.472656 53.066406 155.277344 55.210938 155.472656 57.089844 C 155.863281 60.839844 158.832031 64.453125 162.847656 64.398438 C 164.515625 64.378906 166.125 63.589844 167.140625 62.746094 C 168.578125 61.546875 169.878906 59.320312 170.074219 56.882812 C 170.375 53.148438 170.074219 48.933594 170.074219 44.816406 L 170.074219 32.75 C 166.566406 34.179688 159.28125 34.273438 155.472656 32.820312 Z M 161.773438 30.476562 C 159.511719 30.574219 157.234375 30.769531 155.757812 31.578125 C 157.285156 32.644531 159.992188 32.839844 162.558594 32.886719 C 165.160156 32.933594 167.898438 32.542969 169.574219 31.714844 C 167.828125 30.542969 164.65625 30.347656 161.773438 30.476562 Z M 154.328125 16.546875 L 154.328125 18.40625 C 154.585938 18.804688 155.207031 18.847656 155.472656 19.234375 L 155.472656 30.476562 C 158.769531 29.199219 165.265625 29.109375 168.785156 30.128906 C 169.347656 30.292969 169.761719 30.523438 170.074219 30.476562 L 170.074219 19.234375 C 171.117188 19.042969 171.363281 17.71875 171.078125 16.476562 C 166.683594 17.96875 158.835938 17.847656 154.328125 16.546875 Z M 154.472656 15.167969 C 158.636719 16.851562 166.945312 16.929688 171.003906 15.097656 C 166.761719 13.460938 158.601562 13.34375 154.472656 15.167969 Z M 172.292969 14.617188 C 172.152344 16.347656 172.496094 17.195312 172.292969 18.269531 C 172.125 19.164062 171.230469 19.335938 171.078125 20.0625 C 170.804688 21.335938 171.078125 23.152344 171.078125 24.75 L 171.078125 47.851562 C 171.078125 50.964844 171.3125 53.988281 171.078125 57.089844 C 170.78125 61.011719 167.796875 64.734375 163.992188 65.15625 C 160.398438 65.554688 158.289062 64.097656 156.832031 62.46875 C 155.601562 61.09375 154.660156 59.425781 154.472656 57.367188 C 154.207031 54.464844 154.472656 51.160156 154.472656 47.988281 L 154.472656 24.613281 C 154.472656 23.234375 154.789062 21.203125 154.472656 19.996094 C 154.304688 19.363281 153.488281 19.371094 153.253906 18.613281 C 153.054688 17.972656 152.953125 15.4375 153.183594 14.753906 C 153.496094 13.804688 155.195312 13.457031 156.402344 13.238281 C 159.78125 12.621094 163.667969 12.542969 167.355469 12.960938 C 169.292969 13.179688 171.183594 13.535156 172.292969 14.617188 " fill-opacity="1" fill-rule="evenodd"/></g><path fill="#f9fbef" d="M 171.003906 15.097656 C 166.945312 16.929688 158.636719 16.851562 154.472656 15.167969 C 158.601562 13.34375 166.761719 13.460938 171.003906 15.097656 " fill-opacity="1" fill-rule="evenodd"/><path fill="#f9fbef" d="M 166.28125 18.132812 C 162.847656 18.464844 158.90625 18.289062 156.117188 17.648438 C 155.609375 17.871094 155.042969 18.039062 154.828125 18.546875 C 159.257812 19.765625 166.277344 19.71875 170.71875 18.546875 C 169.933594 17.085938 168.148438 17.953125 166.28125 18.132812 Z M 171.078125 16.476562 C 171.363281 17.71875 171.117188 19.042969 170.074219 19.234375 L 170.074219 30.476562 C 169.761719 30.523438 169.351562 30.292969 168.785156 30.128906 C 165.265625 29.109375 158.769531 29.199219 155.472656 30.476562 L 155.472656 19.234375 C 155.207031 18.847656 154.585938 18.804688 154.328125 18.40625 L 154.328125 16.546875 C 158.835938 17.847656 166.683594 17.96875 171.078125 16.476562 " fill-opacity="1" fill-rule="evenodd"/><path fill="#323653" d="M 170.71875 18.546875 C 166.277344 19.71875 159.257812 19.765625 154.828125 18.546875 C 155.042969 18.039062 155.609375 17.871094 156.117188 17.648438 C 158.90625 18.289062 162.847656 18.464844 166.28125 18.132812 C 168.148438 17.953125 169.933594 17.085938 170.71875 18.546875 " fill-opacity="1" fill-rule="evenodd"/><path fill="#4bde80" d="M 169.574219 31.714844 C 167.898438 32.542969 165.160156 32.933594 162.558594 32.886719 C 159.992188 32.839844 157.285156 32.644531 155.757812 31.578125 C 157.234375 30.769531 159.511719 30.574219 161.773438 30.476562 C 164.65625 30.347656 167.828125 30.542969 169.574219 31.714844 " fill-opacity="1" fill-rule="evenodd"/><path fill="#4bde80" d="M 170.074219 32.75 L 170.074219 44.816406 C 170.074219 48.933594 170.375 53.148438 170.074219 56.882812 C 169.878906 59.320312 168.578125 61.546875 167.140625 62.746094 C 166.125 63.589844 164.515625 64.378906 162.847656 64.398438 C 158.832031 64.453125 155.863281 60.839844 155.472656 57.089844 C 155.277344 55.210938 155.472656 53.066406 155.472656 51.023438 L 155.472656 32.820312 C 159.28125 34.273438 166.566406 34.179688 170.074219 32.75 " fill-opacity="1" fill-rule="evenodd"/><g clip-path="url(#e153f3a1be)"><path fill="#323653" d="M 178.605469 32.820312 L 178.605469 51.023438 C 178.605469 53.066406 178.410156 55.210938 178.605469 57.089844 C 179 60.839844 181.964844 64.453125 185.980469 64.398438 C 187.648438 64.378906 189.257812 63.589844 190.273438 62.746094 C 191.714844 61.546875 193.015625 59.320312 193.207031 56.882812 C 193.507812 53.148438 193.207031 48.933594 193.207031 44.816406 L 193.207031 32.75 C 189.699219 34.179688 182.414062 34.273438 178.605469 32.820312 Z M 184.90625 30.476562 C 182.644531 30.574219 180.367188 30.769531 178.894531 31.578125 C 180.417969 32.644531 183.125 32.839844 185.691406 32.886719 C 188.292969 32.933594 191.03125 32.542969 192.707031 31.714844 C 190.960938 30.542969 187.789062 30.347656 184.90625 30.476562 Z M 177.460938 16.546875 L 177.460938 18.40625 C 177.71875 18.804688 178.339844 18.847656 178.605469 19.234375 L 178.605469 30.476562 C 181.902344 29.199219 188.398438 29.109375 191.917969 30.128906 C 192.484375 30.292969 192.894531 30.523438 193.207031 30.476562 L 193.207031 19.234375 C 194.25 19.042969 194.496094 17.71875 194.210938 16.476562 C 189.816406 17.96875 181.96875 17.847656 177.460938 16.546875 Z M 177.605469 15.167969 C 181.769531 16.851562 190.078125 16.929688 194.136719 15.097656 C 189.894531 13.460938 181.734375 13.34375 177.605469 15.167969 Z M 195.425781 14.617188 C 195.285156 16.347656 195.628906 17.195312 195.425781 18.269531 C 195.257812 19.164062 194.367188 19.335938 194.210938 20.0625 C 193.9375 21.335938 194.210938 23.152344 194.210938 24.75 L 194.210938 47.851562 C 194.210938 50.964844 194.445312 53.988281 194.210938 57.089844 C 193.914062 61.011719 190.929688 64.734375 187.125 65.15625 C 183.53125 65.554688 181.421875 64.097656 179.964844 62.46875 C 178.738281 61.09375 177.792969 59.425781 177.605469 57.367188 C 177.339844 54.464844 177.605469 51.160156 177.605469 47.988281 L 177.605469 24.613281 C 177.605469 23.234375 177.921875 21.203125 177.605469 19.996094 C 177.4375 19.363281 176.621094 19.371094 176.386719 18.613281 C 176.1875 17.972656 176.089844 15.4375 176.316406 14.753906 C 176.632812 13.804688 178.328125 13.457031 179.535156 13.238281 C 182.914062 12.621094 186.800781 12.542969 190.488281 12.960938 C 192.425781 13.179688 194.316406 13.535156 195.425781 14.617188 " fill-opacity="1" fill-rule="evenodd"/></g><path fill="#f9fbef" d="M 194.140625 15.097656 C 190.078125 16.929688 181.769531 16.851562 177.605469 15.167969 C 181.738281 13.34375 189.894531 13.460938 194.140625 15.097656 " fill-opacity="1" fill-rule="evenodd"/><path fill="#f9fbef" d="M 189.414062 18.132812 C 185.984375 18.464844 182.042969 18.289062 179.25 17.648438 C 178.742188 17.871094 178.175781 18.039062 177.960938 18.546875 C 182.390625 19.765625 189.410156 19.71875 193.851562 18.546875 C 193.070312 17.085938 191.28125 17.953125 189.414062 18.132812 Z M 194.210938 16.476562 C 194.496094 17.71875 194.25 19.042969 193.207031 19.234375 L 193.207031 30.476562 C 192.894531 30.523438 192.484375 30.292969 191.917969 30.128906 C 188.398438 29.109375 181.902344 29.199219 178.605469 30.476562 L 178.605469 19.234375 C 178.339844 18.847656 177.71875 18.804688 177.460938 18.40625 L 177.460938 16.546875 C 181.96875 17.847656 189.816406 17.96875 194.210938 16.476562 " fill-opacity="1" fill-rule="evenodd"/><path fill="#323653" d="M 193.851562 18.546875 C 189.410156 19.71875 182.390625 19.765625 177.960938 18.546875 C 178.175781 18.039062 178.742188 17.871094 179.25 17.648438 C 182.042969 18.289062 185.984375 18.464844 189.414062 18.132812 C 191.28125 17.953125 193.070312 17.085938 193.851562 18.546875 " fill-opacity="1" fill-rule="evenodd"/><path fill="#4bde80" d="M 192.707031 31.714844 C 191.03125 32.542969 188.292969 32.933594 185.691406 32.886719 C 183.125 32.839844 180.417969 32.644531 178.894531 31.578125 C 180.367188 30.769531 182.644531 30.574219 184.90625 30.476562 C 187.789062 30.347656 190.960938 30.542969 192.707031 31.714844 " fill-opacity="1" fill-rule="evenodd"/><path fill="#4bde80" d="M 193.207031 32.75 L 193.207031 44.816406 C 193.207031 48.933594 193.507812 53.148438 193.207031 56.882812 C 193.015625 59.320312 191.714844 61.546875 190.273438 62.746094 C 189.257812 63.589844 187.648438 64.378906 185.980469 64.398438 C 181.964844 64.453125 179 60.839844 178.605469 57.089844 C 178.410156 55.210938 178.605469 53.066406 178.605469 51.023438 L 178.605469 32.820312 C 182.414062 34.273438 189.699219 34.179688 193.207031 32.75 " fill-opacity="1" fill-rule="evenodd"/><g clip-path="url(#6910c75c01)"><path fill="#323653" d="M 166.640625 47.679688 L 166.640625 65.882812 C 166.640625 67.929688 166.445312 70.074219 166.640625 71.953125 C 167.03125 75.703125 170 79.3125 174.011719 79.261719 C 175.679688 79.238281 177.292969 78.453125 178.308594 77.605469 C 179.746094 76.40625 181.046875 74.179688 181.242188 71.746094 C 181.542969 68.007812 181.242188 63.796875 181.242188 59.679688 L 181.242188 47.613281 C 177.734375 49.042969 170.445312 49.132812 166.640625 47.679688 Z M 172.9375 45.335938 C 170.675781 45.4375 168.402344 45.632812 166.925781 46.441406 C 168.449219 47.507812 171.160156 47.703125 173.726562 47.75 C 176.324219 47.796875 179.0625 47.402344 180.742188 46.578125 C 178.996094 45.40625 175.824219 45.207031 172.9375 45.335938 Z M 165.496094 31.410156 L 165.496094 33.269531 C 165.753906 33.664062 166.375 33.710938 166.640625 34.097656 L 166.640625 45.335938 C 169.9375 44.0625 176.433594 43.96875 179.953125 44.992188 C 180.515625 45.15625 180.929688 45.386719 181.242188 45.335938 L 181.242188 34.097656 C 182.285156 33.90625 182.527344 32.578125 182.246094 31.339844 C 177.851562 32.832031 170.003906 32.707031 165.496094 31.410156 Z M 165.636719 30.03125 C 169.800781 31.714844 178.113281 31.792969 182.171875 29.960938 C 177.925781 28.320312 169.769531 28.207031 165.636719 30.03125 Z M 183.460938 29.476562 C 183.320312 31.210938 183.664062 32.058594 183.460938 33.132812 C 183.289062 34.027344 182.398438 34.199219 182.246094 34.925781 C 181.972656 36.199219 182.246094 38.015625 182.246094 39.613281 L 182.246094 62.714844 C 182.246094 65.828125 182.480469 68.847656 182.246094 71.953125 C 181.949219 75.871094 178.964844 79.597656 175.15625 80.019531 C 171.5625 80.417969 169.457031 78.957031 168 77.332031 C 166.769531 75.957031 165.824219 74.289062 165.636719 72.226562 C 165.371094 69.328125 165.636719 66.023438 165.636719 62.851562 L 165.636719 39.476562 C 165.636719 38.09375 165.957031 36.0625 165.636719 34.855469 C 165.472656 34.222656 164.65625 34.234375 164.421875 33.476562 C 164.21875 32.832031 164.121094 30.300781 164.347656 29.617188 C 164.664062 28.667969 166.363281 28.320312 167.570312 28.097656 C 170.949219 27.484375 174.832031 27.402344 178.523438 27.824219 C 180.457031 28.042969 182.351562 28.398438 183.460938 29.476562 " fill-opacity="1" fill-rule="evenodd"/></g><path fill="#f9fbef" d="M 182.171875 29.960938 C 178.113281 31.792969 169.800781 31.714844 165.640625 30.03125 C 169.769531 28.207031 177.929688 28.320312 182.171875 29.960938 " fill-opacity="1" fill-rule="evenodd"/><path fill="#f9fbef" d="M 177.449219 32.996094 C 174.015625 33.324219 170.074219 33.152344 167.285156 32.511719 C 166.777344 32.734375 166.207031 32.902344 165.996094 33.410156 C 170.425781 34.625 177.445312 34.582031 181.886719 33.410156 C 181.101562 31.949219 179.3125 32.816406 177.449219 32.996094 Z M 182.246094 31.339844 C 182.527344 32.578125 182.285156 33.90625 181.242188 34.097656 L 181.242188 45.335938 C 180.929688 45.386719 180.515625 45.15625 179.953125 44.992188 C 176.433594 43.96875 169.9375 44.0625 166.640625 45.335938 L 166.640625 34.097656 C 166.375 33.710938 165.753906 33.664062 165.496094 33.269531 L 165.496094 31.410156 C 170.003906 32.707031 177.851562 32.832031 182.242188 31.339844 " fill-opacity="1" fill-rule="evenodd"/><path fill="#323653" d="M 181.886719 33.410156 C 177.445312 34.582031 170.425781 34.625 165.996094 33.410156 C 166.207031 32.902344 166.777344 32.734375 167.285156 32.511719 C 170.074219 33.152344 174.015625 33.324219 177.449219 32.996094 C 179.3125 32.816406 181.101562 31.949219 181.886719 33.410156 " fill-opacity="1" fill-rule="evenodd"/><path fill="#4bde80" d="M 180.742188 46.578125 C 179.0625 47.402344 176.324219 47.796875 173.726562 47.75 C 171.160156 47.703125 168.449219 47.507812 166.925781 46.441406 C 168.402344 45.632812 170.675781 45.4375 172.9375 45.335938 C 175.824219 45.207031 178.996094 45.40625 180.742188 46.578125 " fill-opacity="1" fill-rule="evenodd"/><path fill="#4bde80" d="M 181.242188 47.613281 L 181.242188 59.679688 C 181.242188 63.796875 181.542969 68.007812 181.242188 71.746094 C 181.046875 74.179688 179.746094 76.40625 178.308594 77.605469 C 177.292969 78.453125 175.679688 79.238281 174.011719 79.261719 C 170 79.3125 167.03125 75.703125 166.640625 71.953125 C 166.445312 70.074219 166.640625 67.929688 166.640625 65.882812 L 166.640625 47.679688 C 170.445312 49.132812 177.734375 49.042969 181.242188 47.613281 " fill-opacity="1" fill-rule="evenodd"/><g clip-path="url(#606a74bc00)"><path fill="#323653" d="M 146.082031 47.679688 L 146.082031 65.882812 C 146.082031 67.929688 145.886719 70.074219 146.082031 71.953125 C 146.472656 75.703125 149.4375 79.3125 153.453125 79.261719 C 155.121094 79.238281 156.734375 78.453125 157.75 77.605469 C 159.1875 76.40625 160.488281 74.179688 160.683594 71.746094 C 160.980469 68.007812 160.683594 63.796875 160.683594 59.679688 L 160.683594 47.613281 C 157.171875 49.042969 149.886719 49.132812 146.082031 47.679688 Z M 152.378906 45.335938 C 150.117188 45.4375 147.84375 45.632812 146.367188 46.441406 C 147.890625 47.507812 150.597656 47.703125 153.167969 47.75 C 155.765625 47.796875 158.503906 47.402344 160.179688 46.578125 C 158.4375 45.40625 155.265625 45.207031 152.378906 45.335938 Z M 144.933594 31.410156 L 144.933594 33.269531 C 145.195312 33.664062 145.816406 33.710938 146.082031 34.097656 L 146.082031 45.335938 C 149.378906 44.0625 155.875 43.96875 159.394531 44.992188 C 159.957031 45.15625 160.367188 45.386719 160.683594 45.335938 L 160.683594 34.097656 C 161.726562 33.90625 161.96875 32.578125 161.683594 31.339844 C 157.292969 32.832031 149.445312 32.707031 144.9375 31.410156 Z M 145.078125 30.03125 C 149.242188 31.714844 157.550781 31.792969 161.613281 29.960938 C 157.367188 28.320312 149.210938 28.207031 145.078125 30.03125 Z M 162.902344 29.476562 C 162.757812 31.210938 163.105469 32.058594 162.902344 33.132812 C 162.730469 34.027344 161.839844 34.199219 161.683594 34.925781 C 161.410156 36.199219 161.683594 38.015625 161.683594 39.613281 L 161.683594 62.714844 C 161.683594 65.828125 161.917969 68.847656 161.683594 71.953125 C 161.386719 75.871094 158.402344 79.597656 154.597656 80.019531 C 151.003906 80.417969 148.894531 78.957031 147.441406 77.332031 C 146.210938 75.957031 145.265625 74.289062 145.078125 72.226562 C 144.8125 69.328125 145.078125 66.023438 145.078125 62.851562 L 145.078125 39.476562 C 145.078125 38.09375 145.394531 36.0625 145.078125 34.855469 C 144.910156 34.222656 144.097656 34.234375 143.863281 33.476562 C 143.660156 32.832031 143.5625 30.300781 143.789062 29.617188 C 144.105469 28.667969 145.804688 28.320312 147.011719 28.097656 C 150.390625 27.484375 154.273438 27.402344 157.960938 27.824219 C 159.898438 28.042969 161.789062 28.398438 162.902344 29.476562 " fill-opacity="1" fill-rule="evenodd"/></g><path fill="#f9fbef" d="M 161.613281 29.960938 C 157.550781 31.792969 149.242188 31.714844 145.078125 30.03125 C 149.210938 28.207031 157.367188 28.320312 161.613281 29.960938 " fill-opacity="1" fill-rule="evenodd"/><path fill="#f9fbef" d="M 156.890625 32.996094 C 153.457031 33.324219 149.515625 33.152344 146.726562 32.511719 C 146.214844 32.734375 145.648438 32.902344 145.4375 33.410156 C 149.863281 34.625 156.886719 34.582031 161.328125 33.410156 C 160.542969 31.949219 158.753906 32.816406 156.890625 32.996094 Z M 161.683594 31.339844 C 161.96875 32.578125 161.726562 33.90625 160.683594 34.097656 L 160.683594 45.335938 C 160.367188 45.386719 159.957031 45.15625 159.394531 44.992188 C 155.875 43.96875 149.378906 44.0625 146.082031 45.335938 L 146.082031 34.097656 C 145.816406 33.710938 145.195312 33.664062 144.933594 33.269531 L 144.933594 31.410156 C 149.445312 32.707031 157.292969 32.832031 161.683594 31.339844 " fill-opacity="1" fill-rule="evenodd"/><path fill="#323653" d="M 161.328125 33.410156 C 156.886719 34.582031 149.863281 34.625 145.4375 33.410156 C 145.648438 32.902344 146.214844 32.734375 146.726562 32.511719 C 149.515625 33.152344 153.457031 33.324219 156.890625 32.996094 C 158.753906 32.816406 160.542969 31.949219 161.328125 33.410156 " fill-opacity="1" fill-rule="evenodd"/><path fill="#4bde80" d="M 160.179688 46.578125 C 158.503906 47.402344 155.765625 47.796875 153.167969 47.75 C 150.597656 47.703125 147.890625 47.507812 146.367188 46.441406 C 147.84375 45.632812 150.117188 45.4375 152.378906 45.335938 C 155.265625 45.207031 158.4375 45.40625 160.179688 46.578125 " fill-opacity="1" fill-rule="evenodd"/><path fill="#4bde80" d="M 160.683594 47.613281 L 160.683594 59.679688 C 160.683594 63.796875 160.980469 68.007812 160.683594 71.746094 C 160.488281 74.179688 159.1875 76.40625 157.75 77.605469 C 156.734375 78.453125 155.121094 79.238281 153.453125 79.261719 C 149.4375 79.3125 146.472656 75.703125 146.082031 71.953125 C 145.886719 70.074219 146.082031 67.929688 146.082031 65.882812 L 146.082031 47.679688 C 149.886719 49.132812 157.171875 49.042969 160.683594 47.613281 " fill-opacity="1" fill-rule="evenodd"/></svg>