<svg xmlns="http://www.w3.org/2000/svg" xmlns:xlink="http://www.w3.org/1999/xlink" width="452" zoomAndPan="magnify" viewBox="0 0 339 338.999992" height="452" preserveAspectRatio="xMidYMid meet" version="1.0"><defs><g/><clipPath id="d1d4912c4e"><path d="M 112.21875 49.933594 L 210.96875 49.933594 L 210.96875 162.371094 L 112.21875 162.371094 Z M 112.21875 49.933594 " clip-rule="nonzero"/></clipPath><clipPath id="784168d48b"><path d="M 131.792969 12.207031 L 149.394531 12.207031 L 149.394531 60.117188 L 131.792969 60.117188 Z M 131.792969 12.207031 " clip-rule="nonzero"/></clipPath><clipPath id="c11eab1f09"><path d="M 152.878906 12.207031 L 170.480469 12.207031 L 170.480469 60.117188 L 152.878906 60.117188 Z M 152.878906 12.207031 " clip-rule="nonzero"/></clipPath><clipPath id="db3eb5b1ae"><path d="M 173.964844 12.207031 L 191.566406 12.207031 L 191.566406 60.117188 L 173.964844 60.117188 Z M 173.964844 12.207031 " clip-rule="nonzero"/></clipPath><clipPath id="505f5b67cb"><path d="M 163.058594 25.753906 L 180.65625 25.753906 L 180.65625 73.664062 L 163.058594 73.664062 Z M 163.058594 25.753906 " clip-rule="nonzero"/></clipPath><clipPath id="beb193128b"><path d="M 144.320312 25.753906 L 161.917969 25.753906 L 161.917969 73.664062 L 144.320312 73.664062 Z M 144.320312 25.753906 " clip-rule="nonzero"/></clipPath></defs><g fill="#7ed957" fill-opacity="1"><g transform="translate(26.665059, 200.067774)"><g><path d="M 19.484375 -21.5 C 19.347656 -19.570312 19.28125 -17.847656 19.28125 -16.328125 C 19.28125 -15.378906 19.3125 -14.613281 19.375 -14.03125 L 18.671875 -14.03125 C 18.179688 -16.519531 17.515625 -18.269531 16.671875 -19.28125 C 15.835938 -20.289062 14.691406 -20.796875 13.234375 -20.796875 L 12.53125 -20.796875 L 12.53125 -3.46875 C 12.53125 -2.613281 12.613281 -1.992188 12.78125 -1.609375 C 12.957031 -1.222656 13.265625 -0.960938 13.703125 -0.828125 C 14.140625 -0.703125 14.832031 -0.628906 15.78125 -0.609375 L 15.78125 0 C 13.238281 -0.0625 11.316406 -0.09375 10.015625 -0.09375 C 8.742188 -0.09375 6.894531 -0.0625 4.46875 0 L 4.46875 -0.609375 C 5.414062 -0.628906 6.101562 -0.703125 6.53125 -0.828125 C 6.96875 -0.960938 7.273438 -1.222656 7.453125 -1.609375 C 7.628906 -1.992188 7.71875 -2.613281 7.71875 -3.46875 L 7.71875 -20.796875 L 7.046875 -20.796875 C 6.078125 -20.796875 5.25 -20.582031 4.5625 -20.15625 C 3.882812 -19.726562 3.300781 -19.023438 2.8125 -18.046875 C 2.332031 -17.066406 1.921875 -15.726562 1.578125 -14.03125 L 0.875 -14.03125 C 0.9375 -14.613281 0.96875 -15.378906 0.96875 -16.328125 C 0.96875 -17.847656 0.898438 -19.570312 0.765625 -21.5 C 2.597656 -21.4375 5.722656 -21.40625 10.140625 -21.40625 C 14.554688 -21.40625 17.671875 -21.4375 19.484375 -21.5 Z M 19.484375 -21.5 "/></g></g></g><g fill="#7ed957" fill-opacity="1"><g transform="translate(50.066856, 200.067774)"><g><path d="M 23.28125 -20.890625 C 22.59375 -20.847656 22.097656 -20.765625 21.796875 -20.640625 C 21.492188 -20.523438 21.285156 -20.296875 21.171875 -19.953125 C 21.066406 -19.609375 21.015625 -19.050781 21.015625 -18.28125 L 21.015625 -3.21875 C 21.015625 -2.445312 21.066406 -1.890625 21.171875 -1.546875 C 21.285156 -1.203125 21.492188 -0.96875 21.796875 -0.84375 C 22.097656 -0.726562 22.59375 -0.648438 23.28125 -0.609375 L 23.28125 0 C 22.289062 -0.0625 20.753906 -0.09375 18.671875 -0.09375 C 16.628906 -0.09375 15.039062 -0.0625 13.90625 0 L 13.90625 -0.609375 C 14.570312 -0.648438 15.0625 -0.726562 15.375 -0.84375 C 15.6875 -0.96875 15.898438 -1.203125 16.015625 -1.546875 C 16.128906 -1.890625 16.1875 -2.445312 16.1875 -3.21875 L 16.1875 -10.5 L 8.140625 -10.5 L 8.140625 -3.21875 C 8.140625 -2.445312 8.191406 -1.890625 8.296875 -1.546875 C 8.410156 -1.203125 8.617188 -0.96875 8.921875 -0.84375 C 9.222656 -0.726562 9.71875 -0.648438 10.40625 -0.609375 L 10.40625 0 C 9.320312 -0.0625 7.796875 -0.09375 5.828125 -0.09375 C 3.660156 -0.09375 2.0625 -0.0625 1.03125 0 L 1.03125 -0.609375 C 1.695312 -0.648438 2.1875 -0.726562 2.5 -0.84375 C 2.8125 -0.96875 3.023438 -1.203125 3.140625 -1.546875 C 3.253906 -1.890625 3.3125 -2.445312 3.3125 -3.21875 L 3.3125 -18.28125 C 3.3125 -19.050781 3.253906 -19.609375 3.140625 -19.953125 C 3.023438 -20.296875 2.8125 -20.523438 2.5 -20.640625 C 2.1875 -20.765625 1.695312 -20.847656 1.03125 -20.890625 L 1.03125 -21.5 C 2.0625 -21.4375 3.660156 -21.40625 5.828125 -21.40625 C 7.796875 -21.40625 9.320312 -21.4375 10.40625 -21.5 L 10.40625 -20.890625 C 9.71875 -20.847656 9.222656 -20.765625 8.921875 -20.640625 C 8.617188 -20.523438 8.410156 -20.296875 8.296875 -19.953125 C 8.191406 -19.609375 8.140625 -19.050781 8.140625 -18.28125 L 8.140625 -11.109375 L 16.1875 -11.109375 L 16.1875 -18.28125 C 16.1875 -19.050781 16.128906 -19.609375 16.015625 -19.953125 C 15.898438 -20.296875 15.6875 -20.523438 15.375 -20.640625 C 15.0625 -20.765625 14.570312 -20.847656 13.90625 -20.890625 L 13.90625 -21.5 C 15.039062 -21.4375 16.628906 -21.40625 18.671875 -21.40625 C 20.753906 -21.40625 22.289062 -21.4375 23.28125 -21.5 Z M 23.28125 -20.890625 "/></g></g></g><g fill="#7ed957" fill-opacity="1"><g transform="translate(77.475053, 200.067774)"><g><path d="M 17.671875 -4.609375 C 17.671875 -2.753906 17.738281 -1.21875 17.875 0 C 16.5 -0.0625 14.179688 -0.09375 10.921875 -0.09375 C 6.515625 -0.09375 3.21875 -0.0625 1.03125 0 L 1.03125 -0.609375 C 1.695312 -0.648438 2.1875 -0.726562 2.5 -0.84375 C 2.8125 -0.96875 3.023438 -1.203125 3.140625 -1.546875 C 3.253906 -1.890625 3.3125 -2.445312 3.3125 -3.21875 L 3.3125 -18.28125 C 3.3125 -19.050781 3.253906 -19.609375 3.140625 -19.953125 C 3.023438 -20.296875 2.8125 -20.523438 2.5 -20.640625 C 2.1875 -20.765625 1.695312 -20.847656 1.03125 -20.890625 L 1.03125 -21.5 C 3.21875 -21.4375 6.515625 -21.40625 10.921875 -21.40625 C 13.898438 -21.40625 16.019531 -21.4375 17.28125 -21.5 C 17.132812 -19.8125 17.0625 -18.3125 17.0625 -17 C 17.0625 -16.113281 17.09375 -15.425781 17.15625 -14.9375 L 16.453125 -14.9375 C 16.148438 -17.101562 15.601562 -18.617188 14.8125 -19.484375 C 14.019531 -20.359375 12.90625 -20.796875 11.46875 -20.796875 L 10.234375 -20.796875 C 9.609375 -20.796875 9.148438 -20.742188 8.859375 -20.640625 C 8.578125 -20.546875 8.382812 -20.347656 8.28125 -20.046875 C 8.1875 -19.753906 8.140625 -19.285156 8.140625 -18.640625 L 8.140625 -11.109375 L 9.109375 -11.109375 C 10.179688 -11.109375 10.992188 -11.503906 11.546875 -12.296875 C 12.109375 -13.085938 12.5 -14.03125 12.71875 -15.125 L 13.421875 -15.125 C 13.359375 -14.269531 13.328125 -13.316406 13.328125 -12.265625 L 13.328125 -10.8125 C 13.328125 -9.78125 13.390625 -8.34375 13.515625 -6.5 L 12.8125 -6.5 C 12.382812 -9.164062 11.148438 -10.5 9.109375 -10.5 L 8.140625 -10.5 L 8.140625 -2.859375 C 8.140625 -2.203125 8.1875 -1.726562 8.28125 -1.4375 C 8.382812 -1.144531 8.578125 -0.945312 8.859375 -0.84375 C 9.148438 -0.75 9.609375 -0.703125 10.234375 -0.703125 L 11.71875 -0.703125 C 13.15625 -0.703125 14.3125 -1.191406 15.1875 -2.171875 C 16.070312 -3.148438 16.695312 -4.816406 17.0625 -7.171875 L 17.765625 -7.171875 C 17.703125 -6.492188 17.671875 -5.640625 17.671875 -4.609375 Z M 17.671875 -4.609375 "/></g></g></g><g fill="#7ed957" fill-opacity="1"><g transform="translate(99.844903, 200.067774)"><g/></g></g><g fill="#7ed957" fill-opacity="1"><g transform="translate(110.043792, 200.067774)"><g><path d="M 17.28125 -21.5 C 17.132812 -19.769531 17.0625 -18.226562 17.0625 -16.875 C 17.0625 -15.925781 17.09375 -15.160156 17.15625 -14.578125 L 16.453125 -14.578125 C 16.046875 -16.859375 15.4375 -18.460938 14.625 -19.390625 C 13.820312 -20.328125 12.691406 -20.796875 11.234375 -20.796875 L 10.234375 -20.796875 C 9.609375 -20.796875 9.148438 -20.742188 8.859375 -20.640625 C 8.578125 -20.546875 8.382812 -20.347656 8.28125 -20.046875 C 8.1875 -19.753906 8.140625 -19.285156 8.140625 -18.640625 L 8.140625 -10.984375 L 9.203125 -10.984375 C 10.273438 -10.984375 11.085938 -11.378906 11.640625 -12.171875 C 12.203125 -12.960938 12.59375 -13.90625 12.8125 -15 L 13.515625 -15 C 13.453125 -14.144531 13.421875 -13.191406 13.421875 -12.140625 L 13.421875 -10.6875 C 13.421875 -9.65625 13.476562 -8.21875 13.59375 -6.375 L 12.90625 -6.375 C 12.476562 -9.050781 11.242188 -10.390625 9.203125 -10.390625 L 8.140625 -10.390625 L 8.140625 -3.40625 C 8.140625 -2.59375 8.222656 -2 8.390625 -1.625 C 8.566406 -1.25 8.867188 -1 9.296875 -0.875 C 9.734375 -0.757812 10.429688 -0.691406 11.390625 -0.671875 L 11.390625 0 C 8.898438 -0.0625 7.046875 -0.09375 5.828125 -0.09375 C 4.816406 -0.09375 3.539062 -0.0703125 2 -0.03125 L 1.03125 0 L 1.03125 -0.609375 C 1.695312 -0.648438 2.1875 -0.726562 2.5 -0.84375 C 2.8125 -0.96875 3.023438 -1.203125 3.140625 -1.546875 C 3.253906 -1.890625 3.3125 -2.445312 3.3125 -3.21875 L 3.3125 -18.28125 C 3.3125 -19.050781 3.253906 -19.609375 3.140625 -19.953125 C 3.023438 -20.296875 2.8125 -20.523438 2.5 -20.640625 C 2.1875 -20.765625 1.695312 -20.847656 1.03125 -20.890625 L 1.03125 -21.5 C 3.21875 -21.4375 6.515625 -21.40625 10.921875 -21.40625 C 13.898438 -21.40625 16.019531 -21.4375 17.28125 -21.5 Z M 17.28125 -21.5 "/></g></g></g><g fill="#7ed957" fill-opacity="1"><g transform="translate(131.138885, 200.067774)"><g><path d="M 20.375 -20.890625 C 19.707031 -20.785156 19.210938 -20.609375 18.890625 -20.359375 C 18.578125 -20.117188 18.363281 -19.734375 18.25 -19.203125 C 18.144531 -18.679688 18.09375 -17.90625 18.09375 -16.875 L 18.09375 -8.828125 C 18.09375 -5.941406 17.675781 -3.796875 16.84375 -2.390625 C 16.300781 -1.503906 15.515625 -0.8125 14.484375 -0.3125 C 13.453125 0.175781 12.1875 0.421875 10.6875 0.421875 C 8.34375 0.421875 6.519531 -0.0820312 5.21875 -1.09375 C 4.289062 -1.84375 3.664062 -2.785156 3.34375 -3.921875 C 3.019531 -5.066406 2.859375 -6.675781 2.859375 -8.75 L 2.859375 -18.28125 C 2.859375 -19.050781 2.800781 -19.609375 2.6875 -19.953125 C 2.570312 -20.296875 2.359375 -20.523438 2.046875 -20.640625 C 1.734375 -20.765625 1.242188 -20.847656 0.578125 -20.890625 L 0.578125 -21.5 C 1.609375 -21.4375 3.1875 -21.40625 5.3125 -21.40625 C 7.414062 -21.40625 9.023438 -21.4375 10.140625 -21.5 L 10.140625 -20.890625 C 9.410156 -20.847656 8.878906 -20.765625 8.546875 -20.640625 C 8.210938 -20.523438 7.984375 -20.296875 7.859375 -19.953125 C 7.742188 -19.609375 7.6875 -19.050781 7.6875 -18.28125 L 7.6875 -6.828125 C 7.6875 -4.703125 7.992188 -3.140625 8.609375 -2.140625 C 9.222656 -1.140625 10.3125 -0.640625 11.875 -0.640625 C 13.894531 -0.640625 15.316406 -1.320312 16.140625 -2.6875 C 16.972656 -4.050781 17.390625 -5.988281 17.390625 -8.5 L 17.390625 -16.515625 C 17.390625 -17.691406 17.316406 -18.5625 17.171875 -19.125 C 17.035156 -19.6875 16.765625 -20.09375 16.359375 -20.34375 C 15.953125 -20.601562 15.316406 -20.785156 14.453125 -20.890625 L 14.453125 -21.5 C 15.222656 -21.4375 16.316406 -21.40625 17.734375 -21.40625 C 18.867188 -21.40625 19.75 -21.4375 20.375 -21.5 Z M 20.375 -20.890625 "/></g></g></g><g fill="#7ed957" fill-opacity="1"><g transform="translate(155.178068, 200.067774)"><g><path d="M 10.59375 -20.890625 C 9.863281 -20.847656 9.332031 -20.765625 9 -20.640625 C 8.664062 -20.523438 8.4375 -20.296875 8.3125 -19.953125 C 8.195312 -19.609375 8.140625 -19.050781 8.140625 -18.28125 L 8.140625 -2.859375 C 8.140625 -2.203125 8.1875 -1.726562 8.28125 -1.4375 C 8.382812 -1.144531 8.5625 -0.945312 8.8125 -0.84375 C 9.070312 -0.75 9.484375 -0.703125 10.046875 -0.703125 L 11.53125 -0.703125 C 12.90625 -0.703125 14.09375 -1.316406 15.09375 -2.546875 C 16.101562 -3.785156 16.757812 -5.425781 17.0625 -7.46875 L 17.765625 -7.46875 C 17.703125 -6.78125 17.671875 -5.890625 17.671875 -4.796875 C 17.671875 -2.847656 17.738281 -1.25 17.875 0 C 16.5 -0.0625 14.179688 -0.09375 10.921875 -0.09375 C 6.515625 -0.09375 3.21875 -0.0625 1.03125 0 L 1.03125 -0.609375 C 1.695312 -0.648438 2.1875 -0.726562 2.5 -0.84375 C 2.8125 -0.96875 3.023438 -1.203125 3.140625 -1.546875 C 3.253906 -1.890625 3.3125 -2.445312 3.3125 -3.21875 L 3.3125 -18.28125 C 3.3125 -19.050781 3.253906 -19.609375 3.140625 -19.953125 C 3.023438 -20.296875 2.8125 -20.523438 2.5 -20.640625 C 2.1875 -20.765625 1.695312 -20.847656 1.03125 -20.890625 L 1.03125 -21.5 C 2.0625 -21.4375 3.660156 -21.40625 5.828125 -21.40625 C 7.890625 -21.40625 9.476562 -21.4375 10.59375 -21.5 Z M 10.59375 -20.890625 "/></g></g></g><g fill="#7ed957" fill-opacity="1"><g transform="translate(176.849823, 200.067774)"><g><path d="M 10.59375 -20.890625 C 9.863281 -20.847656 9.332031 -20.765625 9 -20.640625 C 8.664062 -20.523438 8.4375 -20.296875 8.3125 -19.953125 C 8.195312 -19.609375 8.140625 -19.050781 8.140625 -18.28125 L 8.140625 -2.859375 C 8.140625 -2.203125 8.1875 -1.726562 8.28125 -1.4375 C 8.382812 -1.144531 8.5625 -0.945312 8.8125 -0.84375 C 9.070312 -0.75 9.484375 -0.703125 10.046875 -0.703125 L 11.53125 -0.703125 C 12.90625 -0.703125 14.09375 -1.316406 15.09375 -2.546875 C 16.101562 -3.785156 16.757812 -5.425781 17.0625 -7.46875 L 17.765625 -7.46875 C 17.703125 -6.78125 17.671875 -5.890625 17.671875 -4.796875 C 17.671875 -2.847656 17.738281 -1.25 17.875 0 C 16.5 -0.0625 14.179688 -0.09375 10.921875 -0.09375 C 6.515625 -0.09375 3.21875 -0.0625 1.03125 0 L 1.03125 -0.609375 C 1.695312 -0.648438 2.1875 -0.726562 2.5 -0.84375 C 2.8125 -0.96875 3.023438 -1.203125 3.140625 -1.546875 C 3.253906 -1.890625 3.3125 -2.445312 3.3125 -3.21875 L 3.3125 -18.28125 C 3.3125 -19.050781 3.253906 -19.609375 3.140625 -19.953125 C 3.023438 -20.296875 2.8125 -20.523438 2.5 -20.640625 C 2.1875 -20.765625 1.695312 -20.847656 1.03125 -20.890625 L 1.03125 -21.5 C 2.0625 -21.4375 3.660156 -21.40625 5.828125 -21.40625 C 7.890625 -21.40625 9.476562 -21.4375 10.59375 -21.5 Z M 10.59375 -20.890625 "/></g></g></g><g fill="#7ed957" fill-opacity="1"><g transform="translate(198.521579, 200.067774)"><g><path d="M 8.625 -21.890625 C 9.675781 -21.890625 10.515625 -21.785156 11.140625 -21.578125 C 11.765625 -21.378906 12.398438 -21.085938 13.046875 -20.703125 C 13.273438 -20.578125 13.472656 -20.472656 13.640625 -20.390625 C 13.816406 -20.316406 13.96875 -20.28125 14.09375 -20.28125 C 14.269531 -20.28125 14.40625 -20.382812 14.5 -20.59375 C 14.601562 -20.8125 14.6875 -21.148438 14.75 -21.609375 L 15.453125 -21.609375 C 15.347656 -20.253906 15.296875 -17.945312 15.296875 -14.6875 L 14.609375 -14.6875 C 14.523438 -15.78125 14.273438 -16.820312 13.859375 -17.8125 C 13.441406 -18.8125 12.851562 -19.617188 12.09375 -20.234375 C 11.332031 -20.847656 10.445312 -21.15625 9.4375 -21.15625 C 8.445312 -21.15625 7.644531 -20.875 7.03125 -20.3125 C 6.414062 -19.757812 6.109375 -19.007812 6.109375 -18.0625 C 6.109375 -17.351562 6.257812 -16.734375 6.5625 -16.203125 C 6.863281 -15.679688 7.285156 -15.203125 7.828125 -14.765625 C 8.378906 -14.328125 9.222656 -13.738281 10.359375 -13 L 11.328125 -12.328125 C 12.515625 -11.535156 13.453125 -10.84375 14.140625 -10.25 C 14.828125 -9.664062 15.390625 -8.984375 15.828125 -8.203125 C 16.265625 -7.429688 16.484375 -6.53125 16.484375 -5.5 C 16.484375 -4.195312 16.148438 -3.101562 15.484375 -2.21875 C 14.816406 -1.34375 13.910156 -0.679688 12.765625 -0.234375 C 11.617188 0.203125 10.347656 0.421875 8.953125 0.421875 C 7.816406 0.421875 6.875 0.316406 6.125 0.109375 C 5.382812 -0.0859375 4.695312 -0.359375 4.0625 -0.703125 C 3.625 -0.984375 3.28125 -1.125 3.03125 -1.125 C 2.851562 -1.125 2.710938 -1.015625 2.609375 -0.796875 C 2.503906 -0.585938 2.425781 -0.25 2.375 0.21875 L 1.671875 0.21875 C 1.753906 -1.0625 1.796875 -3.796875 1.796875 -7.984375 L 2.484375 -7.984375 C 2.628906 -5.710938 3.132812 -3.875 4 -2.46875 C 4.875 -1.0625 6.210938 -0.359375 8.015625 -0.359375 C 9.109375 -0.359375 10.007812 -0.648438 10.71875 -1.234375 C 11.425781 -1.828125 11.78125 -2.671875 11.78125 -3.765625 C 11.78125 -4.898438 11.414062 -5.867188 10.6875 -6.671875 C 9.957031 -7.484375 8.800781 -8.394531 7.21875 -9.40625 C 6.007812 -10.195312 5.039062 -10.882812 4.3125 -11.46875 C 3.582031 -12.0625 2.984375 -12.753906 2.515625 -13.546875 C 2.054688 -14.347656 1.828125 -15.273438 1.828125 -16.328125 C 1.828125 -17.546875 2.132812 -18.570312 2.75 -19.40625 C 3.363281 -20.25 4.1875 -20.875 5.21875 -21.28125 C 6.25 -21.6875 7.382812 -21.890625 8.625 -21.890625 Z M 8.625 -21.890625 "/></g></g></g><g fill="#7ed957" fill-opacity="1"><g transform="translate(219.373846, 200.067774)"><g><path d="M 19.484375 -21.5 C 19.347656 -19.570312 19.28125 -17.847656 19.28125 -16.328125 C 19.28125 -15.378906 19.3125 -14.613281 19.375 -14.03125 L 18.671875 -14.03125 C 18.179688 -16.519531 17.515625 -18.269531 16.671875 -19.28125 C 15.835938 -20.289062 14.691406 -20.796875 13.234375 -20.796875 L 12.53125 -20.796875 L 12.53125 -3.46875 C 12.53125 -2.613281 12.613281 -1.992188 12.78125 -1.609375 C 12.957031 -1.222656 13.265625 -0.960938 13.703125 -0.828125 C 14.140625 -0.703125 14.832031 -0.628906 15.78125 -0.609375 L 15.78125 0 C 13.238281 -0.0625 11.316406 -0.09375 10.015625 -0.09375 C 8.742188 -0.09375 6.894531 -0.0625 4.46875 0 L 4.46875 -0.609375 C 5.414062 -0.628906 6.101562 -0.703125 6.53125 -0.828125 C 6.96875 -0.960938 7.273438 -1.222656 7.453125 -1.609375 C 7.628906 -1.992188 7.71875 -2.613281 7.71875 -3.46875 L 7.71875 -20.796875 L 7.046875 -20.796875 C 6.078125 -20.796875 5.25 -20.582031 4.5625 -20.15625 C 3.882812 -19.726562 3.300781 -19.023438 2.8125 -18.046875 C 2.332031 -17.066406 1.921875 -15.726562 1.578125 -14.03125 L 0.875 -14.03125 C 0.9375 -14.613281 0.96875 -15.378906 0.96875 -16.328125 C 0.96875 -17.847656 0.898438 -19.570312 0.765625 -21.5 C 2.597656 -21.4375 5.722656 -21.40625 10.140625 -21.40625 C 14.554688 -21.40625 17.671875 -21.4375 19.484375 -21.5 Z M 19.484375 -21.5 "/></g></g></g><g fill="#7ed957" fill-opacity="1"><g transform="translate(242.775639, 200.067774)"><g><path d="M 18.546875 -2.546875 C 18.804688 -1.878906 19.109375 -1.394531 19.453125 -1.09375 C 19.796875 -0.789062 20.132812 -0.628906 20.46875 -0.609375 L 20.46875 0 C 19.25 -0.0625 17.707031 -0.09375 15.84375 -0.09375 C 13.78125 -0.09375 12.242188 -0.0625 11.234375 0 L 11.234375 -0.609375 C 12.003906 -0.648438 12.550781 -0.742188 12.875 -0.890625 C 13.195312 -1.046875 13.359375 -1.316406 13.359375 -1.703125 C 13.359375 -2.066406 13.238281 -2.550781 13 -3.15625 L 11.171875 -8.140625 L 4.546875 -8.140625 L 3.765625 -6.046875 C 3.203125 -4.585938 2.921875 -3.460938 2.921875 -2.671875 C 2.921875 -1.921875 3.144531 -1.398438 3.59375 -1.109375 C 4.050781 -0.816406 4.722656 -0.648438 5.609375 -0.609375 L 5.609375 0 C 4.234375 -0.0625 2.984375 -0.09375 1.859375 -0.09375 C 0.921875 -0.09375 0.148438 -0.0625 -0.453125 0 L -0.453125 -0.609375 C 0.535156 -0.785156 1.40625 -1.847656 2.15625 -3.796875 L 9.078125 -21.5625 C 9.296875 -21.539062 9.648438 -21.53125 10.140625 -21.53125 C 10.628906 -21.53125 10.972656 -21.539062 11.171875 -21.5625 Z M 10.953125 -8.75 L 7.953125 -16.9375 L 4.796875 -8.75 Z M 10.953125 -8.75 "/></g></g></g><g fill="#7ed957" fill-opacity="1"><g transform="translate(266.147082, 200.067774)"><g><path d="M 12.046875 -21.921875 C 13.265625 -21.921875 14.296875 -21.75 15.140625 -21.40625 C 15.992188 -21.0625 16.828125 -20.578125 17.640625 -19.953125 C 17.859375 -19.765625 18.050781 -19.671875 18.21875 -19.671875 C 18.625 -19.671875 18.882812 -20.28125 19 -21.5 L 19.703125 -21.5 C 19.617188 -20.125 19.578125 -17.671875 19.578125 -14.140625 L 18.890625 -14.140625 C 18.703125 -15.640625 18.457031 -16.785156 18.15625 -17.578125 C 17.851562 -18.367188 17.335938 -19.054688 16.609375 -19.640625 C 16.097656 -20.128906 15.507812 -20.5 14.84375 -20.75 C 14.175781 -21 13.476562 -21.125 12.75 -21.125 C 10.707031 -21.125 9.1875 -20.128906 8.1875 -18.140625 C 7.195312 -16.148438 6.703125 -13.664062 6.703125 -10.6875 C 6.703125 -7.726562 7.21875 -5.253906 8.25 -3.265625 C 9.289062 -1.285156 10.832031 -0.296875 12.875 -0.296875 C 13.5625 -0.296875 14.242188 -0.421875 14.921875 -0.671875 C 15.597656 -0.929688 16.171875 -1.304688 16.640625 -1.796875 C 17.390625 -2.359375 17.910156 -3.0625 18.203125 -3.90625 C 18.492188 -4.757812 18.722656 -6.007812 18.890625 -7.65625 L 19.578125 -7.65625 C 19.578125 -3.988281 19.617188 -1.4375 19.703125 0 L 19 0 C 18.9375 -0.644531 18.847656 -1.101562 18.734375 -1.375 C 18.628906 -1.65625 18.476562 -1.796875 18.28125 -1.796875 C 18.113281 -1.796875 17.898438 -1.710938 17.640625 -1.546875 C 16.722656 -0.898438 15.847656 -0.410156 15.015625 -0.078125 C 14.191406 0.253906 13.191406 0.421875 12.015625 0.421875 C 9.867188 0.421875 7.992188 -0.0078125 6.390625 -0.875 C 4.785156 -1.75 3.535156 -3.007812 2.640625 -4.65625 C 1.753906 -6.3125 1.3125 -8.28125 1.3125 -10.5625 C 1.3125 -12.789062 1.765625 -14.765625 2.671875 -16.484375 C 3.578125 -18.203125 4.84375 -19.535156 6.46875 -20.484375 C 8.101562 -21.441406 9.960938 -21.921875 12.046875 -21.921875 Z M 12.046875 -21.921875 "/></g></g></g><g fill="#7ed957" fill-opacity="1"><g transform="translate(290.671884, 200.067774)"><g><path d="M 19.796875 -2.453125 C 20.097656 -1.992188 20.410156 -1.617188 20.734375 -1.328125 C 21.054688 -1.046875 21.472656 -0.804688 21.984375 -0.609375 L 21.984375 0 C 20.566406 -0.0625 18.988281 -0.09375 17.25 -0.09375 C 15.90625 -0.09375 14.617188 -0.0625 13.390625 0 L 13.390625 -0.609375 C 13.953125 -0.648438 14.359375 -0.707031 14.609375 -0.78125 C 14.867188 -0.863281 15 -1.007812 15 -1.21875 C 15 -1.375 14.882812 -1.625 14.65625 -1.96875 L 10.265625 -9.109375 C 9.859375 -9.753906 9.515625 -10.1875 9.234375 -10.40625 C 8.960938 -10.632812 8.597656 -10.769531 8.140625 -10.8125 L 8.140625 -3.21875 C 8.140625 -2.445312 8.191406 -1.890625 8.296875 -1.546875 C 8.410156 -1.203125 8.617188 -0.96875 8.921875 -0.84375 C 9.222656 -0.726562 9.71875 -0.648438 10.40625 -0.609375 L 10.40625 0 C 9.320312 -0.0625 7.796875 -0.09375 5.828125 -0.09375 C 3.660156 -0.09375 2.0625 -0.0625 1.03125 0 L 1.03125 -0.609375 C 1.695312 -0.648438 2.1875 -0.726562 2.5 -0.84375 C 2.8125 -0.96875 3.023438 -1.203125 3.140625 -1.546875 C 3.253906 -1.890625 3.3125 -2.445312 3.3125 -3.21875 L 3.3125 -18.28125 C 3.3125 -19.050781 3.253906 -19.609375 3.140625 -19.953125 C 3.023438 -20.296875 2.8125 -20.523438 2.5 -20.640625 C 2.1875 -20.765625 1.695312 -20.847656 1.03125 -20.890625 L 1.03125 -21.5 C 2.0625 -21.4375 3.660156 -21.40625 5.828125 -21.40625 C 7.796875 -21.40625 9.320312 -21.4375 10.40625 -21.5 L 10.40625 -20.890625 C 9.71875 -20.847656 9.222656 -20.765625 8.921875 -20.640625 C 8.617188 -20.523438 8.410156 -20.296875 8.296875 -19.953125 C 8.191406 -19.609375 8.140625 -19.050781 8.140625 -18.28125 L 8.140625 -11.453125 C 8.941406 -11.484375 9.675781 -11.722656 10.34375 -12.171875 C 11.019531 -12.617188 11.78125 -13.328125 12.625 -14.296875 L 14.421875 -16.453125 C 15.347656 -17.523438 15.8125 -18.46875 15.8125 -19.28125 C 15.8125 -19.757812 15.613281 -20.140625 15.21875 -20.421875 C 14.832031 -20.710938 14.285156 -20.878906 13.578125 -20.921875 L 13.578125 -21.5 C 15.046875 -21.4375 16.539062 -21.40625 18.0625 -21.40625 C 19.238281 -21.40625 20.191406 -21.4375 20.921875 -21.5 L 20.921875 -20.921875 C 19.296875 -20.535156 17.828125 -19.5625 16.515625 -18 L 12.71875 -13.484375 Z M 19.796875 -2.453125 "/></g></g></g><g fill="#7ed957" fill-opacity="1"><g transform="translate(76.30568, 242.067771)"><g><path d="M 8.625 -21.890625 C 9.675781 -21.890625 10.515625 -21.785156 11.140625 -21.578125 C 11.765625 -21.378906 12.398438 -21.085938 13.046875 -20.703125 C 13.273438 -20.578125 13.472656 -20.472656 13.640625 -20.390625 C 13.816406 -20.316406 13.96875 -20.28125 14.09375 -20.28125 C 14.269531 -20.28125 14.40625 -20.382812 14.5 -20.59375 C 14.601562 -20.8125 14.6875 -21.148438 14.75 -21.609375 L 15.453125 -21.609375 C 15.347656 -20.253906 15.296875 -17.945312 15.296875 -14.6875 L 14.609375 -14.6875 C 14.523438 -15.78125 14.273438 -16.820312 13.859375 -17.8125 C 13.441406 -18.8125 12.851562 -19.617188 12.09375 -20.234375 C 11.332031 -20.847656 10.445312 -21.15625 9.4375 -21.15625 C 8.445312 -21.15625 7.644531 -20.875 7.03125 -20.3125 C 6.414062 -19.757812 6.109375 -19.007812 6.109375 -18.0625 C 6.109375 -17.351562 6.257812 -16.734375 6.5625 -16.203125 C 6.863281 -15.679688 7.285156 -15.203125 7.828125 -14.765625 C 8.378906 -14.328125 9.222656 -13.738281 10.359375 -13 L 11.328125 -12.328125 C 12.515625 -11.535156 13.453125 -10.84375 14.140625 -10.25 C 14.828125 -9.664062 15.390625 -8.984375 15.828125 -8.203125 C 16.265625 -7.429688 16.484375 -6.53125 16.484375 -5.5 C 16.484375 -4.195312 16.148438 -3.101562 15.484375 -2.21875 C 14.816406 -1.34375 13.910156 -0.679688 12.765625 -0.234375 C 11.617188 0.203125 10.347656 0.421875 8.953125 0.421875 C 7.816406 0.421875 6.875 0.316406 6.125 0.109375 C 5.382812 -0.0859375 4.695312 -0.359375 4.0625 -0.703125 C 3.625 -0.984375 3.28125 -1.125 3.03125 -1.125 C 2.851562 -1.125 2.710938 -1.015625 2.609375 -0.796875 C 2.503906 -0.585938 2.425781 -0.25 2.375 0.21875 L 1.671875 0.21875 C 1.753906 -1.0625 1.796875 -3.796875 1.796875 -7.984375 L 2.484375 -7.984375 C 2.628906 -5.710938 3.132812 -3.875 4 -2.46875 C 4.875 -1.0625 6.210938 -0.359375 8.015625 -0.359375 C 9.109375 -0.359375 10.007812 -0.648438 10.71875 -1.234375 C 11.425781 -1.828125 11.78125 -2.671875 11.78125 -3.765625 C 11.78125 -4.898438 11.414062 -5.867188 10.6875 -6.671875 C 9.957031 -7.484375 8.800781 -8.394531 7.21875 -9.40625 C 6.007812 -10.195312 5.039062 -10.882812 4.3125 -11.46875 C 3.582031 -12.0625 2.984375 -12.753906 2.515625 -13.546875 C 2.054688 -14.347656 1.828125 -15.273438 1.828125 -16.328125 C 1.828125 -17.546875 2.132812 -18.570312 2.75 -19.40625 C 3.363281 -20.25 4.1875 -20.875 5.21875 -21.28125 C 6.25 -21.6875 7.382812 -21.890625 8.625 -21.890625 Z M 8.625 -21.890625 "/></g></g></g><g fill="#7ed957" fill-opacity="1"><g transform="translate(97.157951, 242.067771)"><g><path d="M 12.046875 -21.921875 C 13.265625 -21.921875 14.296875 -21.75 15.140625 -21.40625 C 15.992188 -21.0625 16.828125 -20.578125 17.640625 -19.953125 C 17.859375 -19.765625 18.050781 -19.671875 18.21875 -19.671875 C 18.625 -19.671875 18.882812 -20.28125 19 -21.5 L 19.703125 -21.5 C 19.617188 -20.125 19.578125 -17.671875 19.578125 -14.140625 L 18.890625 -14.140625 C 18.703125 -15.640625 18.457031 -16.785156 18.15625 -17.578125 C 17.851562 -18.367188 17.335938 -19.054688 16.609375 -19.640625 C 16.097656 -20.128906 15.507812 -20.5 14.84375 -20.75 C 14.175781 -21 13.476562 -21.125 12.75 -21.125 C 10.707031 -21.125 9.1875 -20.128906 8.1875 -18.140625 C 7.195312 -16.148438 6.703125 -13.664062 6.703125 -10.6875 C 6.703125 -7.726562 7.21875 -5.253906 8.25 -3.265625 C 9.289062 -1.285156 10.832031 -0.296875 12.875 -0.296875 C 13.5625 -0.296875 14.242188 -0.421875 14.921875 -0.671875 C 15.597656 -0.929688 16.171875 -1.304688 16.640625 -1.796875 C 17.390625 -2.359375 17.910156 -3.0625 18.203125 -3.90625 C 18.492188 -4.757812 18.722656 -6.007812 18.890625 -7.65625 L 19.578125 -7.65625 C 19.578125 -3.988281 19.617188 -1.4375 19.703125 0 L 19 0 C 18.9375 -0.644531 18.847656 -1.101562 18.734375 -1.375 C 18.628906 -1.65625 18.476562 -1.796875 18.28125 -1.796875 C 18.113281 -1.796875 17.898438 -1.710938 17.640625 -1.546875 C 16.722656 -0.898438 15.847656 -0.410156 15.015625 -0.078125 C 14.191406 0.253906 13.191406 0.421875 12.015625 0.421875 C 9.867188 0.421875 7.992188 -0.0078125 6.390625 -0.875 C 4.785156 -1.75 3.535156 -3.007812 2.640625 -4.65625 C 1.753906 -6.3125 1.3125 -8.28125 1.3125 -10.5625 C 1.3125 -12.789062 1.765625 -14.765625 2.671875 -16.484375 C 3.578125 -18.203125 4.84375 -19.535156 6.46875 -20.484375 C 8.101562 -21.441406 9.960938 -21.921875 12.046875 -21.921875 Z M 12.046875 -21.921875 "/></g></g></g><g fill="#7ed957" fill-opacity="1"><g transform="translate(121.682753, 242.067771)"><g><path d="M 10.40625 -20.890625 C 9.71875 -20.847656 9.222656 -20.765625 8.921875 -20.640625 C 8.617188 -20.523438 8.410156 -20.296875 8.296875 -19.953125 C 8.191406 -19.609375 8.140625 -19.050781 8.140625 -18.28125 L 8.140625 -3.21875 C 8.140625 -2.445312 8.191406 -1.890625 8.296875 -1.546875 C 8.410156 -1.203125 8.617188 -0.96875 8.921875 -0.84375 C 9.222656 -0.726562 9.71875 -0.648438 10.40625 -0.609375 L 10.40625 0 C 9.320312 -0.0625 7.796875 -0.09375 5.828125 -0.09375 C 3.660156 -0.09375 2.0625 -0.0625 1.03125 0 L 1.03125 -0.609375 C 1.695312 -0.648438 2.1875 -0.726562 2.5 -0.84375 C 2.8125 -0.96875 3.023438 -1.203125 3.140625 -1.546875 C 3.253906 -1.890625 3.3125 -2.445312 3.3125 -3.21875 L 3.3125 -18.28125 C 3.3125 -19.050781 3.253906 -19.609375 3.140625 -19.953125 C 3.023438 -20.296875 2.8125 -20.523438 2.5 -20.640625 C 2.1875 -20.765625 1.695312 -20.847656 1.03125 -20.890625 L 1.03125 -21.5 C 2.0625 -21.4375 3.660156 -21.40625 5.828125 -21.40625 C 7.796875 -21.40625 9.320312 -21.4375 10.40625 -21.5 Z M 10.40625 -20.890625 "/></g></g></g><g fill="#7ed957" fill-opacity="1"><g transform="translate(136.221916, 242.067771)"><g><path d="M 17.671875 -4.609375 C 17.671875 -2.753906 17.738281 -1.21875 17.875 0 C 16.5 -0.0625 14.179688 -0.09375 10.921875 -0.09375 C 6.515625 -0.09375 3.21875 -0.0625 1.03125 0 L 1.03125 -0.609375 C 1.695312 -0.648438 2.1875 -0.726562 2.5 -0.84375 C 2.8125 -0.96875 3.023438 -1.203125 3.140625 -1.546875 C 3.253906 -1.890625 3.3125 -2.445312 3.3125 -3.21875 L 3.3125 -18.28125 C 3.3125 -19.050781 3.253906 -19.609375 3.140625 -19.953125 C 3.023438 -20.296875 2.8125 -20.523438 2.5 -20.640625 C 2.1875 -20.765625 1.695312 -20.847656 1.03125 -20.890625 L 1.03125 -21.5 C 3.21875 -21.4375 6.515625 -21.40625 10.921875 -21.40625 C 13.898438 -21.40625 16.019531 -21.4375 17.28125 -21.5 C 17.132812 -19.8125 17.0625 -18.3125 17.0625 -17 C 17.0625 -16.113281 17.09375 -15.425781 17.15625 -14.9375 L 16.453125 -14.9375 C 16.148438 -17.101562 15.601562 -18.617188 14.8125 -19.484375 C 14.019531 -20.359375 12.90625 -20.796875 11.46875 -20.796875 L 10.234375 -20.796875 C 9.609375 -20.796875 9.148438 -20.742188 8.859375 -20.640625 C 8.578125 -20.546875 8.382812 -20.347656 8.28125 -20.046875 C 8.1875 -19.753906 8.140625 -19.285156 8.140625 -18.640625 L 8.140625 -11.109375 L 9.109375 -11.109375 C 10.179688 -11.109375 10.992188 -11.503906 11.546875 -12.296875 C 12.109375 -13.085938 12.5 -14.03125 12.71875 -15.125 L 13.421875 -15.125 C 13.359375 -14.269531 13.328125 -13.316406 13.328125 -12.265625 L 13.328125 -10.8125 C 13.328125 -9.78125 13.390625 -8.34375 13.515625 -6.5 L 12.8125 -6.5 C 12.382812 -9.164062 11.148438 -10.5 9.109375 -10.5 L 8.140625 -10.5 L 8.140625 -2.859375 C 8.140625 -2.203125 8.1875 -1.726562 8.28125 -1.4375 C 8.382812 -1.144531 8.578125 -0.945312 8.859375 -0.84375 C 9.148438 -0.75 9.609375 -0.703125 10.234375 -0.703125 L 11.71875 -0.703125 C 13.15625 -0.703125 14.3125 -1.191406 15.1875 -2.171875 C 16.070312 -3.148438 16.695312 -4.816406 17.0625 -7.171875 L 17.765625 -7.171875 C 17.703125 -6.492188 17.671875 -5.640625 17.671875 -4.609375 Z M 17.671875 -4.609375 "/></g></g></g><g fill="#7ed957" fill-opacity="1"><g transform="translate(158.591766, 242.067771)"><g><path d="M 21.03125 -20.890625 C 20.363281 -20.785156 19.875 -20.609375 19.5625 -20.359375 C 19.25 -20.117188 19.035156 -19.734375 18.921875 -19.203125 C 18.816406 -18.679688 18.765625 -17.90625 18.765625 -16.875 L 18.765625 0.0625 L 18.03125 0.03125 L 17.21875 0.0625 L 4.03125 -16.640625 L 4.03125 -4.984375 C 4.03125 -3.785156 4.09375 -2.90625 4.21875 -2.34375 C 4.34375 -1.789062 4.601562 -1.390625 5 -1.140625 C 5.40625 -0.890625 6.066406 -0.710938 6.984375 -0.609375 L 6.984375 0 C 6.191406 -0.0625 5.097656 -0.09375 3.703125 -0.09375 C 2.585938 -0.09375 1.707031 -0.0625 1.0625 0 L 1.0625 -0.609375 C 1.726562 -0.710938 2.21875 -0.882812 2.53125 -1.125 C 2.84375 -1.363281 3.054688 -1.742188 3.171875 -2.265625 C 3.285156 -2.796875 3.34375 -3.578125 3.34375 -4.609375 L 3.34375 -18.28125 C 3.34375 -19.050781 3.285156 -19.609375 3.171875 -19.953125 C 3.054688 -20.296875 2.84375 -20.523438 2.53125 -20.640625 C 2.21875 -20.765625 1.726562 -20.847656 1.0625 -20.890625 L 1.0625 -21.5 C 1.707031 -21.4375 2.585938 -21.40625 3.703125 -21.40625 C 4.710938 -21.40625 5.582031 -21.4375 6.3125 -21.5 L 18.0625 -7.015625 L 18.0625 -16.515625 C 18.0625 -17.710938 18 -18.585938 17.875 -19.140625 C 17.757812 -19.691406 17.5 -20.09375 17.09375 -20.34375 C 16.6875 -20.601562 16.03125 -20.785156 15.125 -20.890625 L 15.125 -21.5 C 15.90625 -21.4375 16.992188 -21.40625 18.390625 -21.40625 C 19.523438 -21.40625 20.40625 -21.4375 21.03125 -21.5 Z M 21.03125 -20.890625 "/></g></g></g><g fill="#7ed957" fill-opacity="1"><g transform="translate(183.632553, 242.067771)"><g><path d="M 19.484375 -21.5 C 19.347656 -19.570312 19.28125 -17.847656 19.28125 -16.328125 C 19.28125 -15.378906 19.3125 -14.613281 19.375 -14.03125 L 18.671875 -14.03125 C 18.179688 -16.519531 17.515625 -18.269531 16.671875 -19.28125 C 15.835938 -20.289062 14.691406 -20.796875 13.234375 -20.796875 L 12.53125 -20.796875 L 12.53125 -3.46875 C 12.53125 -2.613281 12.613281 -1.992188 12.78125 -1.609375 C 12.957031 -1.222656 13.265625 -0.960938 13.703125 -0.828125 C 14.140625 -0.703125 14.832031 -0.628906 15.78125 -0.609375 L 15.78125 0 C 13.238281 -0.0625 11.316406 -0.09375 10.015625 -0.09375 C 8.742188 -0.09375 6.894531 -0.0625 4.46875 0 L 4.46875 -0.609375 C 5.414062 -0.628906 6.101562 -0.703125 6.53125 -0.828125 C 6.96875 -0.960938 7.273438 -1.222656 7.453125 -1.609375 C 7.628906 -1.992188 7.71875 -2.613281 7.71875 -3.46875 L 7.71875 -20.796875 L 7.046875 -20.796875 C 6.078125 -20.796875 5.25 -20.582031 4.5625 -20.15625 C 3.882812 -19.726562 3.300781 -19.023438 2.8125 -18.046875 C 2.332031 -17.066406 1.921875 -15.726562 1.578125 -14.03125 L 0.875 -14.03125 C 0.9375 -14.613281 0.96875 -15.378906 0.96875 -16.328125 C 0.96875 -17.847656 0.898438 -19.570312 0.765625 -21.5 C 2.597656 -21.4375 5.722656 -21.40625 10.140625 -21.40625 C 14.554688 -21.40625 17.671875 -21.4375 19.484375 -21.5 Z M 19.484375 -21.5 "/></g></g></g><g fill="#7ed957" fill-opacity="1"><g transform="translate(207.034346, 242.067771)"><g><path d="M 10.40625 -20.890625 C 9.71875 -20.847656 9.222656 -20.765625 8.921875 -20.640625 C 8.617188 -20.523438 8.410156 -20.296875 8.296875 -19.953125 C 8.191406 -19.609375 8.140625 -19.050781 8.140625 -18.28125 L 8.140625 -3.21875 C 8.140625 -2.445312 8.191406 -1.890625 8.296875 -1.546875 C 8.410156 -1.203125 8.617188 -0.96875 8.921875 -0.84375 C 9.222656 -0.726562 9.71875 -0.648438 10.40625 -0.609375 L 10.40625 0 C 9.320312 -0.0625 7.796875 -0.09375 5.828125 -0.09375 C 3.660156 -0.09375 2.0625 -0.0625 1.03125 0 L 1.03125 -0.609375 C 1.695312 -0.648438 2.1875 -0.726562 2.5 -0.84375 C 2.8125 -0.96875 3.023438 -1.203125 3.140625 -1.546875 C 3.253906 -1.890625 3.3125 -2.445312 3.3125 -3.21875 L 3.3125 -18.28125 C 3.3125 -19.050781 3.253906 -19.609375 3.140625 -19.953125 C 3.023438 -20.296875 2.8125 -20.523438 2.5 -20.640625 C 2.1875 -20.765625 1.695312 -20.847656 1.03125 -20.890625 L 1.03125 -21.5 C 2.0625 -21.4375 3.660156 -21.40625 5.828125 -21.40625 C 7.796875 -21.40625 9.320312 -21.4375 10.40625 -21.5 Z M 10.40625 -20.890625 "/></g></g></g><g fill="#7ed957" fill-opacity="1"><g transform="translate(221.573503, 242.067771)"><g><path d="M 8.625 -21.890625 C 9.675781 -21.890625 10.515625 -21.785156 11.140625 -21.578125 C 11.765625 -21.378906 12.398438 -21.085938 13.046875 -20.703125 C 13.273438 -20.578125 13.472656 -20.472656 13.640625 -20.390625 C 13.816406 -20.316406 13.96875 -20.28125 14.09375 -20.28125 C 14.269531 -20.28125 14.40625 -20.382812 14.5 -20.59375 C 14.601562 -20.8125 14.6875 -21.148438 14.75 -21.609375 L 15.453125 -21.609375 C 15.347656 -20.253906 15.296875 -17.945312 15.296875 -14.6875 L 14.609375 -14.6875 C 14.523438 -15.78125 14.273438 -16.820312 13.859375 -17.8125 C 13.441406 -18.8125 12.851562 -19.617188 12.09375 -20.234375 C 11.332031 -20.847656 10.445312 -21.15625 9.4375 -21.15625 C 8.445312 -21.15625 7.644531 -20.875 7.03125 -20.3125 C 6.414062 -19.757812 6.109375 -19.007812 6.109375 -18.0625 C 6.109375 -17.351562 6.257812 -16.734375 6.5625 -16.203125 C 6.863281 -15.679688 7.285156 -15.203125 7.828125 -14.765625 C 8.378906 -14.328125 9.222656 -13.738281 10.359375 -13 L 11.328125 -12.328125 C 12.515625 -11.535156 13.453125 -10.84375 14.140625 -10.25 C 14.828125 -9.664062 15.390625 -8.984375 15.828125 -8.203125 C 16.265625 -7.429688 16.484375 -6.53125 16.484375 -5.5 C 16.484375 -4.195312 16.148438 -3.101562 15.484375 -2.21875 C 14.816406 -1.34375 13.910156 -0.679688 12.765625 -0.234375 C 11.617188 0.203125 10.347656 0.421875 8.953125 0.421875 C 7.816406 0.421875 6.875 0.316406 6.125 0.109375 C 5.382812 -0.0859375 4.695312 -0.359375 4.0625 -0.703125 C 3.625 -0.984375 3.28125 -1.125 3.03125 -1.125 C 2.851562 -1.125 2.710938 -1.015625 2.609375 -0.796875 C 2.503906 -0.585938 2.425781 -0.25 2.375 0.21875 L 1.671875 0.21875 C 1.753906 -1.0625 1.796875 -3.796875 1.796875 -7.984375 L 2.484375 -7.984375 C 2.628906 -5.710938 3.132812 -3.875 4 -2.46875 C 4.875 -1.0625 6.210938 -0.359375 8.015625 -0.359375 C 9.109375 -0.359375 10.007812 -0.648438 10.71875 -1.234375 C 11.425781 -1.828125 11.78125 -2.671875 11.78125 -3.765625 C 11.78125 -4.898438 11.414062 -5.867188 10.6875 -6.671875 C 9.957031 -7.484375 8.800781 -8.394531 7.21875 -9.40625 C 6.007812 -10.195312 5.039062 -10.882812 4.3125 -11.46875 C 3.582031 -12.0625 2.984375 -12.753906 2.515625 -13.546875 C 2.054688 -14.347656 1.828125 -15.273438 1.828125 -16.328125 C 1.828125 -17.546875 2.132812 -18.570312 2.75 -19.40625 C 3.363281 -20.25 4.1875 -20.875 5.21875 -21.28125 C 6.25 -21.6875 7.382812 -21.890625 8.625 -21.890625 Z M 8.625 -21.890625 "/></g></g></g><g fill="#7ed957" fill-opacity="1"><g transform="translate(242.425769, 242.067771)"><g><path d="M 19.484375 -21.5 C 19.347656 -19.570312 19.28125 -17.847656 19.28125 -16.328125 C 19.28125 -15.378906 19.3125 -14.613281 19.375 -14.03125 L 18.671875 -14.03125 C 18.179688 -16.519531 17.515625 -18.269531 16.671875 -19.28125 C 15.835938 -20.289062 14.691406 -20.796875 13.234375 -20.796875 L 12.53125 -20.796875 L 12.53125 -3.46875 C 12.53125 -2.613281 12.613281 -1.992188 12.78125 -1.609375 C 12.957031 -1.222656 13.265625 -0.960938 13.703125 -0.828125 C 14.140625 -0.703125 14.832031 -0.628906 15.78125 -0.609375 L 15.78125 0 C 13.238281 -0.0625 11.316406 -0.09375 10.015625 -0.09375 C 8.742188 -0.09375 6.894531 -0.0625 4.46875 0 L 4.46875 -0.609375 C 5.414062 -0.628906 6.101562 -0.703125 6.53125 -0.828125 C 6.96875 -0.960938 7.273438 -1.222656 7.453125 -1.609375 C 7.628906 -1.992188 7.71875 -2.613281 7.71875 -3.46875 L 7.71875 -20.796875 L 7.046875 -20.796875 C 6.078125 -20.796875 5.25 -20.582031 4.5625 -20.15625 C 3.882812 -19.726562 3.300781 -19.023438 2.8125 -18.046875 C 2.332031 -17.066406 1.921875 -15.726562 1.578125 -14.03125 L 0.875 -14.03125 C 0.9375 -14.613281 0.96875 -15.378906 0.96875 -16.328125 C 0.96875 -17.847656 0.898438 -19.570312 0.765625 -21.5 C 2.597656 -21.4375 5.722656 -21.40625 10.140625 -21.40625 C 14.554688 -21.40625 17.671875 -21.4375 19.484375 -21.5 Z M 19.484375 -21.5 "/></g></g></g><g fill="#000000" fill-opacity="1"><g transform="translate(67.332395, 285.684312)"><g><path d="M 19.621094 -17.730469 C 19.621094 -19.230469 18.589844 -20.050781 16.738281 -20.050781 C 14.476562 -20.050781 11.136719 -18.667969 8.640625 -16.710938 C 5.417969 -14.175781 2.792969 -10.707031 2.402344 -8.421875 L 2.390625 -8.34375 C 2.390625 -8.082031 2.597656 -7.871094 2.859375 -7.871094 C 3.09375 -7.871094 3.289062 -8.042969 3.328125 -8.265625 C 3.667969 -10.3125 6.1875 -13.589844 9.21875 -15.980469 C 11.566406 -17.808594 14.671875 -19.113281 16.738281 -19.113281 C 18.082031 -19.113281 18.683594 -18.683594 18.683594 -17.730469 C 18.683594 -14.855469 14.136719 -8.132812 11.03125 -4.375 C 9.949219 -3.054688 8.890625 -1.855469 7.859375 -0.730469 C 7.832031 -0.703125 7.847656 -0.71875 7.820312 -0.71875 C 6.671875 -1.214844 5.3125 -1.476562 3.851562 -1.476562 C -1.539062 -1.476562 -9.398438 2.9375 -9.398438 7.363281 C -9.398438 8.800781 -8.382812 9.648438 -6.65625 9.648438 C -2.636719 9.648438 2.179688 6.644531 7.964844 0.535156 L 8.066406 0.445312 C 9.28125 1.121094 10.128906 2.128906 10.585938 3.40625 C 10.652344 3.589844 10.835938 3.71875 11.03125 3.71875 C 11.292969 3.71875 11.5 3.511719 11.5 3.25 C 11.5 3.183594 11.488281 3.132812 11.476562 3.082031 C 10.953125 1.644531 10.027344 0.523438 8.707031 -0.273438 C 9.699219 -1.34375 10.71875 -2.519531 11.761719 -3.773438 C 14.894531 -7.558594 19.621094 -14.570312 19.621094 -17.730469 Z M -6.65625 8.707031 C -7.859375 8.707031 -8.460938 8.25 -8.460938 7.363281 C -8.460938 3.824219 -1.671875 -0.535156 3.851562 -0.535156 C 5.066406 -0.535156 6.1875 -0.351562 7.167969 0 C 1.617188 5.835938 -2.9375 8.707031 -6.65625 8.707031 Z M -6.65625 8.707031 "/></g></g></g><g fill="#000000" fill-opacity="1"><g transform="translate(84.57737, 285.684312)"><g><path d="M 14.113281 -5.300781 C 14.019531 -5.300781 13.941406 -5.273438 13.878906 -5.222656 C 11.121094 -3.667969 7.074219 -3.863281 3.902344 -5.691406 C 3.902344 -5.691406 3.917969 -5.703125 3.929688 -5.703125 C 3.980469 -5.730469 4.035156 -5.746094 4.085938 -5.757812 C 4.28125 -5.824219 4.414062 -6.003906 4.414062 -6.214844 C 4.414062 -6.460938 4.191406 -6.683594 3.941406 -6.683594 C 3.902344 -6.683594 3.839844 -6.671875 3.785156 -6.65625 C 3.484375 -6.554688 3.199219 -6.449219 2.9375 -6.320312 C 2.910156 -6.304688 2.886719 -6.304688 2.832031 -6.320312 C 2.519531 -6.398438 2.179688 -6.226562 2.089844 -5.914062 C 2.0625 -5.875 2.050781 -5.863281 2.023438 -5.835938 C -0.128906 -4.542969 -1.617188 -2.519531 -1.617188 -0.875 C -1.617188 0.0273438 -1.121094 0.625 -0.367188 0.625 C 1.527344 0.625 3.484375 -2.570312 3.160156 -5.027344 C 6.65625 -2.898438 11.226562 -2.636719 14.335938 -4.414062 C 14.492188 -4.503906 14.582031 -4.660156 14.582031 -4.832031 C 14.582031 -5.078125 14.359375 -5.300781 14.113281 -5.300781 Z M -0.367188 -0.3125 C -0.574219 -0.3125 -0.679688 -0.484375 -0.679688 -0.875 C -0.679688 -2.113281 0.507812 -3.746094 2.230469 -4.871094 C 2.441406 -2.988281 0.914062 -0.3125 -0.367188 -0.3125 Z M -0.367188 -0.3125 "/></g></g></g><g fill="#000000" fill-opacity="1"><g transform="translate(97.357719, 285.684312)"><g><path d="M 0.757812 6.5 C 4.375 6.5 14.671875 -0.167969 20.574219 -4.453125 C 20.691406 -4.53125 20.769531 -4.671875 20.769531 -4.832031 C 20.769531 -5.089844 20.5625 -5.300781 20.300781 -5.300781 C 20.195312 -5.300781 20.105469 -5.273438 20.027344 -5.207031 C 14.136719 -0.953125 4.085938 5.5625 0.757812 5.5625 C 0.167969 5.5625 -0.0273438 5.378906 -0.0273438 4.832031 C -0.0273438 3.160156 2.925781 0.261719 5.824219 -2.597656 C 8.382812 -5.117188 10.925781 -7.625 10.925781 -9.113281 C 10.925781 -9.671875 10.417969 -10.117188 9.765625 -10.707031 C 9.570312 -10.863281 9.359375 -11.042969 9.164062 -11.242188 C 11.59375 -13.839844 13.027344 -15.835938 13.027344 -16.644531 C 13.027344 -17.167969 12.730469 -17.480469 12.21875 -17.480469 C 10.3125 -17.480469 6.148438 -14.28125 6.148438 -12.792969 C 6.148438 -12.285156 6.539062 -11.867188 7.742188 -11.070312 C 5.785156 -9.035156 3.394531 -6.855469 1.058594 -5.207031 C 0.925781 -5.117188 0.847656 -4.972656 0.847656 -4.816406 C 0.847656 -4.554688 1.058594 -4.347656 1.320312 -4.347656 C 1.421875 -4.347656 1.515625 -4.375 1.59375 -4.4375 C 3.734375 -5.953125 6.332031 -8.316406 8.511719 -10.5625 C 9.582031 -9.84375 9.988281 -9.453125 9.988281 -9.113281 C 9.988281 -8.027344 7.714844 -5.785156 5.15625 -3.265625 C 2.257812 -0.40625 -0.964844 2.769531 -0.964844 4.832031 C -0.964844 5.902344 -0.351562 6.5 0.757812 6.5 Z M 8.382812 -11.761719 C 7.546875 -12.324219 7.089844 -12.703125 7.089844 -12.792969 C 7.089844 -13.640625 10.40625 -16.1875 11.761719 -16.476562 C 11.933594 -16.5 12.035156 -16.4375 11.984375 -16.28125 C 11.632812 -15.429688 9.621094 -13.082031 8.382812 -11.761719 Z M 8.382812 -11.761719 "/></g></g></g><g fill="#000000" fill-opacity="1"><g transform="translate(116.312842, 285.684312)"><g><path d="M 17.335938 -5.3125 C 17.246094 -5.3125 17.140625 -5.289062 17.074219 -5.234375 C 13.160156 -2.558594 8.054688 -0.769531 5.964844 -0.769531 C 5.011719 -0.769531 4.648438 -1.042969 4.648438 -1.710938 C 4.648438 -2.152344 5.078125 -3.082031 5.925781 -4.453125 C 6.003906 -4.320312 6.148438 -4.242188 6.320312 -4.242188 C 6.566406 -4.242188 6.777344 -4.4375 6.789062 -4.6875 C 6.816406 -4.988281 6.777344 -5.289062 6.644531 -5.574219 C 6.972656 -6.042969 7.324219 -6.566406 7.703125 -7.101562 C 16.515625 -15.3125 28.695312 -27.9375 28.695312 -29.554688 C 28.695312 -30.132812 28.355469 -30.457031 27.714844 -30.457031 C 25.507812 -30.457031 13.304688 -16.5 7.207031 -7.9375 L 7.234375 -7.949219 C 6.683594 -7.441406 6.160156 -6.957031 5.679688 -6.5 C 5.378906 -6.617188 5.066406 -6.683594 4.710938 -6.683594 C 2.011719 -6.683594 -2.179688 -3.160156 -2.179688 -0.863281 C -2.179688 -0.289062 -1.789062 0.0664062 -1.160156 0.0664062 C -0.5625 0.0664062 1.34375 -1.371094 4.4375 -4.113281 C 4.632812 -4.296875 4.753906 -4.214844 4.621094 -3.980469 C 4.007812 -2.910156 3.707031 -2.140625 3.707031 -1.710938 C 3.707031 -0.496094 4.503906 0.167969 5.964844 0.167969 C 8.210938 0.167969 13.539062 -1.683594 17.585938 -4.4375 C 17.730469 -4.542969 17.808594 -4.6875 17.808594 -4.84375 C 17.808594 -5.105469 17.597656 -5.3125 17.335938 -5.3125 Z M 27.714844 -29.515625 C 27.769531 -29.515625 27.78125 -29.492188 27.78125 -29.453125 C 27.78125 -28.460938 16.226562 -16.644531 11.242188 -11.789062 C 18.066406 -20.507812 26.421875 -29.515625 27.714844 -29.515625 Z M -1.109375 -0.875 C -1.175781 -0.875 -1.238281 -0.886719 -1.238281 -0.992188 C -1.238281 -2.625 2.546875 -5.746094 4.710938 -5.746094 L 4.84375 -5.746094 C 1.4375 -2.625 -0.730469 -0.875 -1.109375 -0.875 Z M -1.109375 -0.875 "/></g></g></g><g fill="#000000" fill-opacity="1"><g transform="translate(132.304586, 285.684312)"><g><path d="M 18.589844 -5.300781 C 18.484375 -5.300781 18.394531 -5.273438 18.316406 -5.207031 C 15 -2.726562 9.792969 -0.769531 7.964844 -0.769531 C 7.023438 -0.769531 6.644531 -1.042969 6.644531 -1.710938 C 6.644531 -2.808594 7.570312 -4.164062 8.265625 -5.15625 C 8.679688 -5.757812 8.941406 -6.148438 8.941406 -6.449219 C 8.941406 -6.761719 8.695312 -6.996094 8.382812 -6.996094 C 8.09375 -6.996094 7.648438 -6.722656 6.175781 -5.652344 C 5.824219 -6.226562 5.351562 -6.460938 4.515625 -6.460938 C 2.453125 -6.460938 -2.976562 -3.066406 -2.976562 -0.992188 C -2.976562 -0.351562 -2.507812 0.0664062 -1.789062 0.0664062 C -0.0898438 0.0664062 3.640625 -2.664062 6.136719 -4.464844 C 6.320312 -4.59375 6.5 -4.726562 6.671875 -4.855469 C 6.878906 -5.011719 6.972656 -4.921875 6.839844 -4.699219 C 6.253906 -3.761719 5.703125 -2.703125 5.703125 -1.710938 C 5.703125 -0.496094 6.5 0.167969 7.964844 0.167969 C 10.078125 0.167969 15.546875 -2.074219 18.851562 -4.4375 C 18.980469 -4.53125 19.058594 -4.671875 19.058594 -4.832031 C 19.058594 -5.078125 18.839844 -5.300781 18.589844 -5.300781 Z M 5.40625 -5.105469 C 2.128906 -2.726562 -0.535156 -0.875 -1.789062 -0.875 C -1.945312 -0.875 -2.035156 -0.941406 -2.035156 -1.097656 C -2.035156 -2.3125 2.570312 -5.523438 4.515625 -5.523438 C 5.050781 -5.523438 5.207031 -5.445312 5.40625 -5.105469 Z M 5.40625 -5.105469 "/></g></g></g><g fill="#000000" fill-opacity="1"><g transform="translate(149.562619, 285.684312)"><g><path d="M -1.65625 0.105469 C -1.476562 0.105469 -1.199219 -0.0507812 -0.445312 -0.613281 C -0.339844 -0.691406 -0.222656 -0.769531 -0.105469 -0.863281 C 2.191406 -2.519531 6.855469 -5.875 8.617188 -5.875 C 8.761719 -5.875 8.824219 -5.785156 8.824219 -5.664062 C 8.824219 -5.429688 8.617188 -4.554688 8.40625 -3.679688 C 8.226562 -2.910156 8.042969 -2.140625 8.042969 -1.777344 C 8.042969 -0.980469 8.589844 -0.496094 9.492188 -0.496094 C 11.65625 -0.496094 15.378906 -2.023438 19.046875 -4.4375 C 19.191406 -4.515625 19.269531 -4.671875 19.269531 -4.832031 C 19.269531 -5.089844 19.058594 -5.300781 18.800781 -5.300781 C 18.707031 -5.300781 18.617188 -5.273438 18.539062 -5.222656 C 15.039062 -2.925781 11.460938 -1.4375 9.492188 -1.4375 C 9.097656 -1.4375 8.980469 -1.527344 8.980469 -1.777344 C 8.980469 -2.035156 9.136719 -2.703125 9.320312 -3.460938 C 9.53125 -4.335938 9.765625 -5.3125 9.765625 -5.847656 C 9.765625 -6.449219 9.347656 -6.816406 8.667969 -6.816406 C 7.191406 -6.816406 4.542969 -5.351562 -0.0664062 -2.050781 C -0.261719 -1.917969 -0.3125 -2.023438 -0.207031 -2.167969 C 0.902344 -3.695312 3.394531 -6.632812 5.757812 -8.40625 C 5.875 -8.5 5.941406 -8.640625 5.941406 -8.785156 C 5.941406 -9.046875 5.730469 -9.257812 5.46875 -9.257812 C 5.367188 -9.257812 5.261719 -9.21875 5.183594 -9.164062 C 1.734375 -6.539062 -2.0625 -1.460938 -2.230469 -0.652344 C -2.324219 -0.234375 -2.0625 0.105469 -1.65625 0.105469 Z M -1.65625 0.105469 "/></g></g></g><g fill="#000000" fill-opacity="1"><g transform="translate(167.016471, 285.684312)"><g/></g></g><g fill="#000000" fill-opacity="1"><g transform="translate(180.070964, 285.684312)"><g><path d="M 32.21875 -15 C 31.996094 -15 31.816406 -14.84375 31.75 -14.621094 C 31.226562 -11.90625 22.570312 -0.429688 17.730469 -0.429688 C 17.0625 -0.429688 16.761719 -0.730469 16.761719 -1.382812 C 16.761719 -2.886719 17.480469 -5.15625 18.773438 -7.792969 C 18.800781 -7.832031 18.8125 -7.859375 18.839844 -7.871094 C 23.851562 -12.246094 27.195312 -16.058594 27.195312 -17.46875 C 27.195312 -17.859375 26.917969 -18.132812 26.539062 -18.132812 C 24.28125 -18.132812 20.378906 -13.171875 17.964844 -8.316406 C 17.9375 -8.277344 17.925781 -8.25 17.898438 -8.238281 C 12.414062 -3.523438 5.769531 1.082031 2.792969 1.082031 C 2.140625 1.082031 1.816406 0.703125 1.816406 -0.0273438 C 1.816406 -5.089844 12.753906 -19.113281 17.519531 -19.113281 C 17.769531 -19.113281 17.988281 -19.335938 17.988281 -19.582031 C 17.988281 -19.832031 17.769531 -20.050781 17.519531 -20.050781 C 12.285156 -20.050781 0.875 -5.40625 0.875 -0.0273438 C 0.875 1.214844 1.632812 2.023438 2.792969 2.023438 C 5.691406 2.023438 11.65625 -1.917969 16.945312 -6.265625 C 17.0625 -6.359375 17.113281 -6.410156 17.113281 -6.421875 C 17.113281 -6.410156 17.074219 -6.359375 17.035156 -6.265625 C 16.265625 -4.464844 15.824219 -2.6875 15.824219 -1.382812 C 15.824219 -0.207031 16.554688 0.507812 17.730469 0.507812 C 23.042969 0.507812 32.089844 -11.515625 32.675781 -14.425781 L 32.691406 -14.515625 C 32.703125 -14.777344 32.480469 -15 32.21875 -15 Z M 26.226562 -17.152344 L 26.226562 -17.140625 C 26.226562 -16.4375 23.304688 -13.121094 20.078125 -10.183594 C 22.074219 -13.640625 25.183594 -17.152344 26.226562 -17.152344 Z M 26.226562 -17.152344 "/></g></g></g><g fill="#000000" fill-opacity="1"><g transform="translate(209.730763, 285.684312)"><g><path d="M 4.28125 -7.46875 C 4.425781 -7.46875 4.570312 -7.53125 4.660156 -7.648438 C 4.699219 -7.714844 4.777344 -7.808594 4.855469 -7.925781 C 5.050781 -8.171875 5.289062 -8.5 5.40625 -8.628906 C 5.46875 -8.722656 5.507812 -8.824219 5.507812 -8.929688 C 5.507812 -9.191406 5.300781 -9.398438 5.039062 -9.398438 C 4.894531 -9.398438 4.765625 -9.335938 4.671875 -9.230469 L 3.917969 -8.226562 C 3.851562 -8.144531 3.8125 -8.042969 3.8125 -7.9375 C 3.8125 -7.675781 4.019531 -7.46875 4.28125 -7.46875 Z M 0.496094 0.46875 C 2.480469 0.46875 8.746094 -2.429688 11.90625 -4.425781 C 12.035156 -4.503906 12.128906 -4.671875 12.128906 -4.832031 C 12.128906 -5.078125 11.90625 -5.300781 11.65625 -5.300781 C 11.578125 -5.300781 11.5 -5.273438 11.410156 -5.234375 C 8.289062 -3.265625 2.273438 -0.46875 0.496094 -0.46875 C -0.0898438 -0.46875 -0.3125 -0.679688 -0.3125 -1.1875 C -0.3125 -1.984375 1.058594 -3.929688 3.054688 -5.980469 L 3.066406 -5.992188 C 3.144531 -6.082031 3.183594 -6.1875 3.183594 -6.304688 C 3.183594 -6.554688 2.964844 -6.777344 2.714844 -6.777344 C 2.585938 -6.777344 2.46875 -6.722656 2.375 -6.632812 C 0.078125 -4.257812 -1.253906 -2.273438 -1.253906 -1.1875 C -1.253906 -0.144531 -0.601562 0.46875 0.496094 0.46875 Z M 0.496094 0.46875 "/></g></g></g><g fill="#000000" fill-opacity="1"><g transform="translate(220.05687, 285.684312)"><g><path d="M 28.929688 -29.125 C 28.929688 -29.960938 28.367188 -30.457031 27.453125 -30.457031 C 22.480469 -30.457031 -1.75 -6.136719 -1.75 0.902344 C -1.75 2.167969 -1.070312 2.753906 0.367188 2.753906 C 2.703125 2.753906 9.398438 -0.941406 14.425781 -4.414062 C 14.554688 -4.503906 14.632812 -4.648438 14.632812 -4.804688 C 14.632812 -5.066406 14.425781 -5.273438 14.164062 -5.273438 C 14.058594 -5.273438 13.96875 -5.25 13.890625 -5.183594 C 8.277344 -1.304688 2.230469 1.816406 0.367188 1.816406 C -0.5625 1.816406 -0.808594 1.617188 -0.808594 0.902344 C -0.808594 -0.207031 -0.117188 -1.90625 1.253906 -4.125 C 11.320312 -10.222656 28.929688 -25.640625 28.929688 -29.125 Z M 27.453125 -29.515625 C 27.871094 -29.515625 27.988281 -29.414062 27.988281 -29.125 C 27.988281 -26.449219 13.015625 -12.886719 2.546875 -6.058594 C 9.269531 -15.625 23.996094 -29.515625 27.453125 -29.515625 Z M 27.453125 -29.515625 "/></g></g></g><g fill="#000000" fill-opacity="1"><g transform="translate(232.915541, 285.684312)"><g><path d="M 28.929688 -29.125 C 28.929688 -29.960938 28.367188 -30.457031 27.453125 -30.457031 C 22.480469 -30.457031 -1.75 -6.136719 -1.75 0.902344 C -1.75 2.167969 -1.070312 2.753906 0.367188 2.753906 C 2.703125 2.753906 9.398438 -0.941406 14.425781 -4.414062 C 14.554688 -4.503906 14.632812 -4.648438 14.632812 -4.804688 C 14.632812 -5.066406 14.425781 -5.273438 14.164062 -5.273438 C 14.058594 -5.273438 13.96875 -5.25 13.890625 -5.183594 C 8.277344 -1.304688 2.230469 1.816406 0.367188 1.816406 C -0.5625 1.816406 -0.808594 1.617188 -0.808594 0.902344 C -0.808594 -0.207031 -0.117188 -1.90625 1.253906 -4.125 C 11.320312 -10.222656 28.929688 -25.640625 28.929688 -29.125 Z M 27.453125 -29.515625 C 27.871094 -29.515625 27.988281 -29.414062 27.988281 -29.125 C 27.988281 -26.449219 13.015625 -12.886719 2.546875 -6.058594 C 9.269531 -15.625 23.996094 -29.515625 27.453125 -29.515625 Z M 27.453125 -29.515625 "/></g></g></g><g fill="#000000" fill-opacity="1"><g transform="translate(245.774213, 285.684312)"><g><path d="M 4.28125 -7.46875 C 4.425781 -7.46875 4.570312 -7.53125 4.660156 -7.648438 C 4.699219 -7.714844 4.777344 -7.808594 4.855469 -7.925781 C 5.050781 -8.171875 5.289062 -8.5 5.40625 -8.628906 C 5.46875 -8.722656 5.507812 -8.824219 5.507812 -8.929688 C 5.507812 -9.191406 5.300781 -9.398438 5.039062 -9.398438 C 4.894531 -9.398438 4.765625 -9.335938 4.671875 -9.230469 L 3.917969 -8.226562 C 3.851562 -8.144531 3.8125 -8.042969 3.8125 -7.9375 C 3.8125 -7.675781 4.019531 -7.46875 4.28125 -7.46875 Z M 0.496094 0.46875 C 2.480469 0.46875 8.746094 -2.429688 11.90625 -4.425781 C 12.035156 -4.503906 12.128906 -4.671875 12.128906 -4.832031 C 12.128906 -5.078125 11.90625 -5.300781 11.65625 -5.300781 C 11.578125 -5.300781 11.5 -5.273438 11.410156 -5.234375 C 8.289062 -3.265625 2.273438 -0.46875 0.496094 -0.46875 C -0.0898438 -0.46875 -0.3125 -0.679688 -0.3125 -1.1875 C -0.3125 -1.984375 1.058594 -3.929688 3.054688 -5.980469 L 3.066406 -5.992188 C 3.144531 -6.082031 3.183594 -6.1875 3.183594 -6.304688 C 3.183594 -6.554688 2.964844 -6.777344 2.714844 -6.777344 C 2.585938 -6.777344 2.46875 -6.722656 2.375 -6.632812 C 0.078125 -4.257812 -1.253906 -2.273438 -1.253906 -1.1875 C -1.253906 -0.144531 -0.601562 0.46875 0.496094 0.46875 Z M 0.496094 0.46875 "/></g></g></g><g fill="#000000" fill-opacity="1"><g transform="translate(256.10032, 285.684312)"><g><path d="M 16.878906 -5.300781 C 16.816406 -5.300781 16.761719 -5.289062 16.722656 -5.273438 C 14.949219 -4.671875 12.859375 -4.074219 10.808594 -3.472656 C 9.175781 -3.015625 7.570312 -2.53125 6.199219 -2.101562 C 6.226562 -2.191406 6.242188 -2.296875 6.253906 -2.375 C 6.304688 -2.964844 5.847656 -3.304688 5.050781 -3.304688 C 4.570312 -3.304688 3.917969 -3.199219 3.289062 -3.09375 C 2.609375 -2.976562 1.957031 -2.871094 1.4375 -2.871094 C 0.980469 -2.871094 0.824219 -2.9375 0.824219 -3.132812 C 0.824219 -4.28125 3.878906 -6.59375 5.535156 -6.59375 C 5.679688 -6.59375 5.796875 -6.554688 5.796875 -6.449219 C 5.796875 -6.109375 5.339844 -5.484375 4.894531 -5.222656 C 4.753906 -5.144531 4.660156 -4.988281 4.660156 -4.816406 C 4.660156 -4.554688 4.871094 -4.347656 5.128906 -4.347656 C 5.207031 -4.347656 5.300781 -4.375 5.378906 -4.414062 C 5.964844 -4.765625 6.527344 -5.523438 6.710938 -6.226562 C 6.722656 -6.292969 6.738281 -6.410156 6.738281 -6.5 C 6.738281 -7.128906 6.265625 -7.53125 5.535156 -7.53125 C 3.316406 -7.53125 -0.117188 -4.816406 -0.117188 -3.042969 C -0.117188 -2.324219 0.445312 -1.933594 1.4375 -1.933594 C 2.023438 -1.933594 2.769531 -2.050781 3.445312 -2.167969 C 4.308594 -2.3125 5.234375 -2.53125 5.339844 -2.351562 C 5.390625 -2.257812 5.222656 -1.984375 5.050781 -1.734375 L 4.972656 -1.683594 C 1.160156 -0.351562 -1.398438 1.097656 -1.398438 2.074219 C -1.398438 2.625 -0.964844 2.964844 -0.246094 2.964844 C 1.75 2.964844 4.347656 0.847656 5.5625 -0.863281 C 5.574219 -0.886719 5.601562 -0.902344 5.640625 -0.925781 C 7.179688 -1.4375 9.085938 -1.984375 11.070312 -2.570312 C 13.121094 -3.171875 15.234375 -3.785156 17.023438 -4.386719 C 17.21875 -4.4375 17.351562 -4.621094 17.351562 -4.832031 C 17.351562 -5.089844 17.140625 -5.300781 16.878906 -5.300781 Z M -0.0664062 2.023438 C -0.195312 2.023438 -0.261719 1.984375 -0.261719 1.933594 C -0.261719 1.867188 -0.195312 1.789062 -0.0898438 1.722656 C 0.613281 1.226562 2.246094 0.390625 3.917969 -0.300781 C 2.53125 1.097656 0.902344 2.023438 -0.0664062 2.023438 Z M -0.0664062 2.023438 "/></g></g></g><g clip-path="url(#d1d4912c4e)"><path fill="#7ed957" d="M 206.515625 77.574219 L 116.671875 77.574219 L 121.753906 55.457031 C 121.960938 54.558594 122.757812 53.925781 123.679688 53.925781 L 131.96875 53.925781 C 133.058594 53.925781 133.941406 53.042969 133.941406 51.953125 C 133.941406 50.867188 133.058594 49.984375 131.96875 49.984375 C 131.96875 49.984375 127.0625 49.984375 123.679688 49.984375 C 120.917969 49.984375 118.519531 51.886719 117.902344 54.574219 L 112.277344 79.0625 C 112.253906 79.152344 112.238281 79.242188 112.230469 79.335938 C 112.21875 79.417969 112.214844 79.5 112.21875 79.582031 L 112.21875 99.253906 C 112.21875 100.765625 112.789062 102.148438 113.726562 103.195312 C 112.789062 104.242188 112.21875 105.625 112.21875 107.136719 L 112.21875 115.019531 C 112.21875 116.109375 113.101562 116.992188 114.191406 116.992188 C 115.28125 116.992188 116.167969 116.109375 116.167969 115.019531 L 116.167969 107.136719 C 116.167969 106.050781 117.050781 105.167969 118.140625 105.167969 C 133.5625 105.167969 189.621094 105.167969 205.042969 105.167969 C 206.132812 105.167969 207.019531 106.050781 207.019531 107.136719 C 207.019531 107.136719 207.019531 126.84375 207.019531 126.84375 C 207.019531 127.933594 206.132812 128.816406 205.042969 128.816406 C 205.042969 128.816406 118.140625 128.816406 118.140625 128.816406 C 117.050781 128.816406 116.167969 127.933594 116.167969 126.84375 L 116.167969 122.902344 C 116.167969 121.816406 115.28125 120.933594 114.191406 120.933594 C 113.101562 120.933594 112.21875 121.816406 112.21875 122.902344 L 112.21875 126.84375 C 112.21875 128.359375 112.789062 129.738281 113.726562 130.785156 C 112.757812 131.867188 112.21875 133.269531 112.21875 134.726562 C 112.21875 138.640625 112.21875 144.609375 112.21875 148.523438 C 112.21875 150.09375 112.839844 151.597656 113.953125 152.703125 C 115.0625 153.8125 116.570312 154.4375 118.140625 154.4375 C 118.140625 154.4375 118.140625 160.347656 118.140625 160.347656 C 118.140625 161.4375 119.027344 162.320312 120.117188 162.320312 L 203.070312 162.320312 C 204.160156 162.320312 205.042969 161.4375 205.042969 160.347656 L 205.042969 154.4375 C 208.316406 154.4375 210.96875 151.789062 210.96875 148.523438 L 210.96875 144.582031 C 210.96875 143.496094 210.085938 142.613281 208.992188 142.613281 C 207.902344 142.613281 207.019531 143.496094 207.019531 144.582031 L 207.019531 148.523438 C 207.019531 149.613281 206.132812 150.496094 205.042969 150.496094 C 189.621094 150.496094 133.5625 150.496094 118.140625 150.496094 C 117.617188 150.496094 117.113281 150.289062 116.746094 149.917969 C 116.375 149.546875 116.167969 149.046875 116.167969 148.523438 L 116.167969 134.726562 C 116.167969 134.207031 116.375 133.703125 116.746094 133.335938 C 117.113281 132.964844 117.617188 132.757812 118.140625 132.757812 C 118.140625 132.757812 205.042969 132.757812 205.042969 132.757812 C 206.132812 132.757812 207.019531 133.640625 207.019531 134.726562 L 207.019531 138.667969 C 207.019531 139.757812 207.902344 140.640625 208.992188 140.640625 C 210.085938 140.640625 210.96875 139.757812 210.96875 138.667969 L 210.96875 134.726562 C 210.96875 133.214844 210.398438 131.832031 209.460938 130.785156 C 210.398438 129.738281 210.96875 128.359375 210.96875 126.84375 L 210.96875 107.136719 C 210.96875 105.625 210.398438 104.242188 209.460938 103.195312 C 210.429688 102.113281 210.96875 100.710938 210.96875 99.253906 C 210.96875 96.511719 210.96875 93.339844 210.96875 93.339844 C 210.96875 92.253906 210.085938 91.371094 208.992188 91.371094 C 207.902344 91.371094 207.019531 92.253906 207.019531 93.339844 C 207.019531 93.339844 207.019531 96.511719 207.019531 99.253906 C 207.019531 99.777344 206.8125 100.277344 206.441406 100.648438 C 206.070312 101.019531 205.566406 101.226562 205.042969 101.226562 C 189.621094 101.226562 133.5625 101.226562 118.140625 101.226562 C 117.050781 101.226562 116.167969 100.339844 116.167969 99.253906 C 116.167969 99.253906 116.167969 81.515625 116.167969 81.515625 C 116.167969 81.515625 207.019531 81.515625 207.019531 81.515625 C 207.019531 81.515625 207.019531 87.429688 207.019531 87.429688 C 207.019531 88.515625 207.902344 89.398438 208.992188 89.398438 C 210.085938 89.398438 210.96875 88.515625 210.96875 87.429688 L 210.96875 79.582031 C 210.972656 79.5 210.96875 79.417969 210.957031 79.335938 C 210.945312 79.242188 210.929688 79.152344 210.910156 79.0625 L 205.28125 54.574219 C 204.664062 51.886719 202.269531 49.984375 199.507812 49.984375 L 147.769531 49.984375 C 146.675781 49.984375 145.792969 50.867188 145.792969 51.953125 C 145.792969 53.042969 146.675781 53.925781 147.769531 53.925781 L 199.507812 53.925781 C 200.429688 53.925781 201.226562 54.558594 201.429688 55.457031 Z M 201.09375 154.4375 L 122.09375 154.4375 L 122.09375 158.378906 C 122.09375 158.378906 201.09375 158.378906 201.09375 158.378906 Z M 197.144531 138.667969 C 194.964844 138.667969 193.195312 140.4375 193.195312 142.613281 C 193.195312 144.789062 194.964844 146.554688 197.144531 146.554688 C 199.324219 146.554688 201.09375 144.789062 201.09375 142.613281 C 201.09375 140.4375 199.324219 138.667969 197.144531 138.667969 Z M 185.292969 138.667969 C 183.113281 138.667969 181.34375 140.4375 181.34375 142.613281 C 181.34375 144.789062 183.113281 146.554688 185.292969 146.554688 C 187.472656 146.554688 189.242188 144.789062 189.242188 142.613281 C 189.242188 140.4375 187.472656 138.667969 185.292969 138.667969 Z M 122.09375 144.582031 L 145.792969 144.582031 C 146.882812 144.582031 147.769531 143.699219 147.769531 142.613281 C 147.769531 141.523438 146.882812 140.640625 145.792969 140.640625 L 122.09375 140.640625 C 121.003906 140.640625 120.117188 141.523438 120.117188 142.613281 C 120.117188 143.699219 121.003906 144.582031 122.09375 144.582031 Z M 197.144531 114.035156 C 194.964844 114.035156 193.195312 115.800781 193.195312 117.976562 C 193.195312 120.152344 194.964844 121.917969 197.144531 121.917969 C 199.324219 121.917969 201.09375 120.152344 201.09375 117.976562 C 201.09375 115.800781 199.324219 114.035156 197.144531 114.035156 Z M 185.292969 114.035156 C 183.113281 114.035156 181.34375 115.800781 181.34375 117.976562 C 181.34375 120.152344 183.113281 121.917969 185.292969 121.917969 C 187.472656 121.917969 189.242188 120.152344 189.242188 117.976562 C 189.242188 115.800781 187.472656 114.035156 185.292969 114.035156 Z M 122.09375 118.960938 L 145.792969 118.960938 C 146.882812 118.960938 147.769531 118.078125 147.769531 116.992188 C 147.769531 115.902344 146.882812 115.019531 145.792969 115.019531 L 122.09375 115.019531 C 121.003906 115.019531 120.117188 115.902344 120.117188 116.992188 C 120.117188 118.078125 121.003906 118.960938 122.09375 118.960938 Z M 197.144531 88.414062 C 194.964844 88.414062 193.195312 90.179688 193.195312 92.355469 C 193.195312 94.53125 194.964844 96.296875 197.144531 96.296875 C 199.324219 96.296875 201.09375 94.53125 201.09375 92.355469 C 201.09375 90.179688 199.324219 88.414062 197.144531 88.414062 Z M 185.292969 88.414062 C 183.113281 88.414062 181.34375 90.179688 181.34375 92.355469 C 181.34375 94.53125 183.113281 96.296875 185.292969 96.296875 C 187.472656 96.296875 189.242188 94.53125 189.242188 92.355469 C 189.242188 90.179688 187.472656 88.414062 185.292969 88.414062 Z M 122.09375 93.339844 L 145.792969 93.339844 C 146.882812 93.339844 147.769531 92.457031 147.769531 91.371094 C 147.769531 90.28125 146.882812 89.398438 145.792969 89.398438 L 122.09375 89.398438 C 121.003906 89.398438 120.117188 90.28125 120.117188 91.371094 C 120.117188 92.457031 121.003906 93.339844 122.09375 93.339844 Z M 137.894531 53.925781 L 141.84375 53.925781 C 142.933594 53.925781 143.816406 53.042969 143.816406 51.953125 C 143.816406 50.867188 142.933594 49.984375 141.84375 49.984375 L 137.894531 49.984375 C 136.800781 49.984375 135.917969 50.867188 135.917969 51.953125 C 135.917969 53.042969 136.800781 53.925781 137.894531 53.925781 Z M 137.894531 53.925781 " fill-opacity="1" fill-rule="evenodd"/></g><g clip-path="url(#784168d48b)"><path fill="#323653" d="M 134 30.5625 L 134 47.15625 C 134 49.019531 133.824219 50.972656 134 52.6875 C 134.359375 56.105469 137.0625 59.394531 140.722656 59.347656 C 142.242188 59.328125 143.710938 58.609375 144.636719 57.839844 C 145.949219 56.746094 147.132812 54.71875 147.308594 52.496094 C 147.582031 49.09375 147.308594 45.253906 147.308594 41.5 L 147.308594 30.5 C 144.113281 31.804688 137.472656 31.886719 134 30.5625 Z M 139.742188 28.429688 C 137.679688 28.519531 135.605469 28.695312 134.261719 29.433594 C 135.652344 30.40625 138.121094 30.585938 140.460938 30.628906 C 142.828125 30.671875 145.324219 30.3125 146.855469 29.558594 C 145.261719 28.492188 142.371094 28.308594 139.742188 28.429688 Z M 132.957031 15.730469 L 132.957031 17.429688 C 133.191406 17.789062 133.757812 17.828125 134 18.183594 L 134 28.429688 C 137.003906 27.265625 142.925781 27.179688 146.136719 28.113281 C 146.648438 28.261719 147.023438 28.472656 147.308594 28.429688 L 147.308594 18.183594 C 148.261719 18.007812 148.484375 16.800781 148.222656 15.667969 C 144.21875 17.027344 137.066406 16.917969 132.957031 15.730469 Z M 133.089844 14.476562 C 136.882812 16.007812 144.457031 16.082031 148.15625 14.414062 C 144.289062 12.917969 136.855469 12.8125 133.089844 14.476562 Z M 149.332031 13.972656 C 149.203125 15.550781 149.519531 16.324219 149.332031 17.304688 C 149.179688 18.117188 148.363281 18.277344 148.222656 18.9375 C 147.976562 20.097656 148.222656 21.753906 148.222656 23.210938 L 148.222656 44.265625 C 148.222656 47.101562 148.4375 49.859375 148.222656 52.6875 C 147.953125 56.257812 145.234375 59.65625 141.765625 60.039062 C 138.488281 60.402344 136.566406 59.074219 135.242188 57.589844 C 134.121094 56.335938 133.257812 54.816406 133.085938 52.9375 C 132.847656 50.292969 133.085938 47.28125 133.085938 44.390625 L 133.085938 23.085938 C 133.085938 21.828125 133.375 19.976562 133.085938 18.875 C 132.9375 18.296875 132.191406 18.308594 131.976562 17.617188 C 131.796875 17.03125 131.707031 14.722656 131.914062 14.097656 C 132.199219 13.234375 133.75 12.917969 134.847656 12.714844 C 137.929688 12.152344 141.46875 12.082031 144.832031 12.464844 C 146.597656 12.664062 148.320312 12.988281 149.332031 13.972656 " fill-opacity="1" fill-rule="evenodd"/></g><path fill="#f9fbef" d="M 148.160156 14.414062 C 144.457031 16.082031 136.882812 16.007812 133.089844 14.476562 C 136.855469 12.8125 144.289062 12.917969 148.160156 14.414062 " fill-opacity="1" fill-rule="evenodd"/><path fill="#f9fbef" d="M 143.851562 17.175781 C 140.722656 17.480469 137.132812 17.320312 134.589844 16.738281 C 134.125 16.941406 133.609375 17.09375 133.414062 17.554688 C 137.449219 18.664062 143.851562 18.625 147.898438 17.554688 C 147.183594 16.226562 145.554688 17.015625 143.851562 17.175781 Z M 148.222656 15.667969 C 148.484375 16.800781 148.261719 18.007812 147.308594 18.183594 L 147.308594 28.429688 C 147.023438 28.472656 146.648438 28.261719 146.136719 28.113281 C 142.925781 27.179688 137.007812 27.265625 134 28.429688 L 134 18.183594 C 133.757812 17.828125 133.191406 17.789062 132.957031 17.429688 L 132.957031 15.730469 C 137.066406 16.917969 144.21875 17.027344 148.222656 15.667969 " fill-opacity="1" fill-rule="evenodd"/><path fill="#323653" d="M 147.898438 17.554688 C 143.851562 18.625 137.449219 18.664062 133.414062 17.554688 C 133.609375 17.09375 134.125 16.941406 134.589844 16.738281 C 137.132812 17.320312 140.722656 17.480469 143.851562 17.175781 C 145.550781 17.015625 147.183594 16.226562 147.898438 17.554688 " fill-opacity="1" fill-rule="evenodd"/><path fill="#7ed957" d="M 146.855469 29.558594 C 145.324219 30.3125 142.828125 30.671875 140.460938 30.628906 C 138.121094 30.585938 135.652344 30.40625 134.261719 29.433594 C 135.605469 28.695312 137.679688 28.519531 139.742188 28.429688 C 142.371094 28.308594 145.261719 28.492188 146.855469 29.558594 " fill-opacity="1" fill-rule="evenodd"/><path fill="#7ed957" d="M 147.308594 30.5 L 147.308594 41.5 C 147.308594 45.253906 147.582031 49.09375 147.308594 52.496094 C 147.132812 54.71875 145.949219 56.746094 144.636719 57.839844 C 143.710938 58.609375 142.242188 59.328125 140.722656 59.347656 C 137.0625 59.394531 134.359375 56.105469 134 52.6875 C 133.824219 50.972656 134 49.019531 134 47.15625 L 134 30.5625 C 137.472656 31.886719 144.113281 31.804688 147.308594 30.5 " fill-opacity="1" fill-rule="evenodd"/><g clip-path="url(#c11eab1f09)"><path fill="#323653" d="M 155.085938 30.5625 L 155.085938 47.15625 C 155.085938 49.019531 154.910156 50.972656 155.085938 52.6875 C 155.445312 56.105469 158.148438 59.394531 161.808594 59.347656 C 163.328125 59.328125 164.796875 58.609375 165.722656 57.839844 C 167.035156 56.746094 168.21875 54.71875 168.394531 52.496094 C 168.667969 49.09375 168.394531 45.253906 168.394531 41.5 L 168.394531 30.5 C 165.199219 31.804688 158.554688 31.886719 155.085938 30.5625 Z M 160.828125 28.429688 C 158.765625 28.519531 156.691406 28.695312 155.347656 29.433594 C 156.738281 30.40625 159.203125 30.585938 161.546875 30.628906 C 163.914062 30.671875 166.410156 30.3125 167.9375 29.558594 C 166.347656 28.492188 163.457031 28.308594 160.828125 28.429688 Z M 154.042969 15.730469 L 154.042969 17.429688 C 154.277344 17.789062 154.84375 17.828125 155.085938 18.183594 L 155.085938 28.429688 C 158.089844 27.265625 164.011719 27.179688 167.222656 28.113281 C 167.734375 28.261719 168.109375 28.472656 168.394531 28.429688 L 168.394531 18.183594 C 169.347656 18.007812 169.570312 16.800781 169.308594 15.667969 C 165.304688 17.027344 158.152344 16.917969 154.042969 15.730469 Z M 154.171875 14.476562 C 157.96875 16.007812 165.542969 16.082031 169.242188 14.414062 C 165.375 12.917969 157.9375 12.8125 154.171875 14.476562 Z M 170.417969 13.972656 C 170.289062 15.550781 170.605469 16.324219 170.417969 17.304688 C 170.261719 18.117188 169.449219 18.277344 169.308594 18.9375 C 169.0625 20.097656 169.308594 21.753906 169.308594 23.210938 L 169.308594 44.265625 C 169.308594 47.101562 169.523438 49.859375 169.308594 52.6875 C 169.039062 56.257812 166.320312 59.65625 162.851562 60.039062 C 159.574219 60.402344 157.652344 59.074219 156.324219 57.589844 C 155.207031 56.335938 154.34375 54.816406 154.171875 52.9375 C 153.929688 50.292969 154.171875 47.28125 154.171875 44.390625 L 154.171875 23.085938 C 154.171875 21.828125 154.460938 19.976562 154.171875 18.875 C 154.023438 18.296875 153.277344 18.308594 153.0625 17.617188 C 152.882812 17.03125 152.792969 14.722656 153 14.097656 C 153.285156 13.234375 154.832031 12.917969 155.933594 12.714844 C 159.015625 12.152344 162.554688 12.082031 165.917969 12.464844 C 167.683594 12.664062 169.40625 12.988281 170.417969 13.972656 " fill-opacity="1" fill-rule="evenodd"/></g><path fill="#f9fbef" d="M 169.242188 14.414062 C 165.542969 16.082031 157.96875 16.007812 154.175781 14.476562 C 157.941406 12.8125 165.375 12.917969 169.242188 14.414062 " fill-opacity="1" fill-rule="evenodd"/><path fill="#f9fbef" d="M 164.9375 17.175781 C 161.808594 17.480469 158.21875 17.320312 155.675781 16.738281 C 155.210938 16.941406 154.695312 17.09375 154.5 17.554688 C 158.535156 18.664062 164.9375 18.625 168.984375 17.554688 C 168.269531 16.226562 166.640625 17.015625 164.9375 17.175781 Z M 169.308594 15.667969 C 169.570312 16.800781 169.347656 18.007812 168.394531 18.183594 L 168.394531 28.429688 C 168.109375 28.472656 167.734375 28.261719 167.222656 28.113281 C 164.011719 27.179688 158.089844 27.265625 155.085938 28.429688 L 155.085938 18.183594 C 154.84375 17.828125 154.277344 17.789062 154.042969 17.429688 L 154.042969 15.730469 C 158.152344 16.917969 165.304688 17.027344 169.308594 15.667969 " fill-opacity="1" fill-rule="evenodd"/><path fill="#323653" d="M 168.984375 17.554688 C 164.9375 18.625 158.535156 18.664062 154.5 17.554688 C 154.695312 17.09375 155.210938 16.941406 155.675781 16.738281 C 158.21875 17.320312 161.808594 17.480469 164.9375 17.175781 C 166.636719 17.015625 168.269531 16.226562 168.984375 17.554688 " fill-opacity="1" fill-rule="evenodd"/><path fill="#7ed957" d="M 167.9375 29.558594 C 166.410156 30.3125 163.914062 30.671875 161.546875 30.628906 C 159.203125 30.585938 156.738281 30.40625 155.347656 29.433594 C 156.691406 28.695312 158.765625 28.519531 160.828125 28.429688 C 163.457031 28.308594 166.347656 28.492188 167.9375 29.558594 " fill-opacity="1" fill-rule="evenodd"/><path fill="#7ed957" d="M 168.394531 30.5 L 168.394531 41.5 C 168.394531 45.253906 168.667969 49.09375 168.394531 52.496094 C 168.21875 54.71875 167.035156 56.746094 165.722656 57.839844 C 164.796875 58.609375 163.328125 59.328125 161.808594 59.347656 C 158.148438 59.394531 155.445312 56.105469 155.085938 52.6875 C 154.910156 50.972656 155.085938 49.019531 155.085938 47.15625 L 155.085938 30.5625 C 158.554688 31.886719 165.199219 31.804688 168.394531 30.5 " fill-opacity="1" fill-rule="evenodd"/><g clip-path="url(#db3eb5b1ae)"><path fill="#323653" d="M 176.171875 30.5625 L 176.171875 47.15625 C 176.171875 49.019531 175.992188 50.972656 176.171875 52.6875 C 176.527344 56.105469 179.234375 59.394531 182.890625 59.347656 C 184.414062 59.328125 185.882812 58.609375 186.808594 57.839844 C 188.117188 56.746094 189.304688 54.71875 189.480469 52.496094 C 189.753906 49.09375 189.480469 45.253906 189.480469 41.5 L 189.480469 30.5 C 186.285156 31.804688 179.640625 31.886719 176.171875 30.5625 Z M 181.914062 28.429688 C 179.851562 28.519531 177.777344 28.695312 176.433594 29.433594 C 177.824219 30.40625 180.289062 30.585938 182.632812 30.628906 C 185 30.671875 187.496094 30.3125 189.023438 29.558594 C 187.433594 28.492188 184.542969 28.308594 181.914062 28.429688 Z M 175.128906 15.730469 L 175.128906 17.429688 C 175.363281 17.789062 175.929688 17.828125 176.171875 18.183594 L 176.171875 28.429688 C 179.175781 27.265625 185.097656 27.179688 188.308594 28.113281 C 188.820312 28.261719 189.195312 28.472656 189.480469 28.429688 L 189.480469 18.183594 C 190.433594 18.007812 190.65625 16.800781 190.394531 15.667969 C 186.390625 17.027344 179.238281 16.917969 175.128906 15.730469 Z M 175.257812 14.476562 C 179.054688 16.007812 186.628906 16.082031 190.328125 14.414062 C 186.460938 12.917969 179.023438 12.8125 175.257812 14.476562 Z M 191.503906 13.972656 C 191.375 15.550781 191.6875 16.324219 191.503906 17.304688 C 191.347656 18.117188 190.535156 18.277344 190.394531 18.9375 C 190.144531 20.097656 190.394531 21.753906 190.394531 23.210938 L 190.394531 44.265625 C 190.394531 47.101562 190.609375 49.859375 190.394531 52.6875 C 190.125 56.257812 187.40625 59.65625 183.9375 60.039062 C 180.660156 60.402344 178.738281 59.074219 177.410156 57.589844 C 176.289062 56.335938 175.429688 54.816406 175.257812 52.9375 C 175.015625 50.292969 175.257812 47.28125 175.257812 44.390625 L 175.257812 23.085938 C 175.257812 21.828125 175.546875 19.976562 175.257812 18.875 C 175.105469 18.296875 174.363281 18.308594 174.148438 17.617188 C 173.96875 17.03125 173.875 14.722656 174.085938 14.097656 C 174.371094 13.234375 175.917969 12.917969 177.019531 12.714844 C 180.097656 12.152344 183.640625 12.082031 187.003906 12.464844 C 188.769531 12.664062 190.492188 12.988281 191.503906 13.972656 " fill-opacity="1" fill-rule="evenodd"/></g><path fill="#f9fbef" d="M 190.328125 14.414062 C 186.628906 16.082031 179.054688 16.007812 175.257812 14.476562 C 179.027344 12.8125 186.460938 12.917969 190.328125 14.414062 " fill-opacity="1" fill-rule="evenodd"/><path fill="#f9fbef" d="M 186.023438 17.175781 C 182.894531 17.480469 179.304688 17.320312 176.757812 16.738281 C 176.296875 16.941406 175.777344 17.09375 175.585938 17.554688 C 179.621094 18.664062 186.019531 18.625 190.070312 17.554688 C 189.355469 16.226562 187.722656 17.015625 186.023438 17.175781 Z M 190.394531 15.667969 C 190.65625 16.800781 190.433594 18.007812 189.480469 18.183594 L 189.480469 28.429688 C 189.195312 28.472656 188.820312 28.261719 188.308594 28.113281 C 185.097656 27.179688 179.175781 27.265625 176.171875 28.429688 L 176.171875 18.183594 C 175.929688 17.828125 175.363281 17.789062 175.128906 17.429688 L 175.128906 15.730469 C 179.238281 16.917969 186.390625 17.027344 190.394531 15.667969 " fill-opacity="1" fill-rule="evenodd"/><path fill="#323653" d="M 190.070312 17.554688 C 186.019531 18.625 179.621094 18.664062 175.585938 17.554688 C 175.777344 17.09375 176.296875 16.941406 176.757812 16.738281 C 179.304688 17.320312 182.894531 17.480469 186.023438 17.175781 C 187.722656 17.015625 189.355469 16.226562 190.070312 17.554688 " fill-opacity="1" fill-rule="evenodd"/><path fill="#7ed957" d="M 189.023438 29.558594 C 187.496094 30.3125 185 30.671875 182.632812 30.628906 C 180.289062 30.585938 177.824219 30.40625 176.433594 29.433594 C 177.777344 28.695312 179.851562 28.519531 181.914062 28.429688 C 184.542969 28.308594 187.433594 28.492188 189.023438 29.558594 " fill-opacity="1" fill-rule="evenodd"/><path fill="#7ed957" d="M 189.480469 30.5 L 189.480469 41.5 C 189.480469 45.253906 189.753906 49.09375 189.480469 52.496094 C 189.304688 54.71875 188.117188 56.746094 186.808594 57.839844 C 185.882812 58.609375 184.414062 59.328125 182.890625 59.347656 C 179.234375 59.394531 176.527344 56.105469 176.171875 52.6875 C 175.992188 50.972656 176.171875 49.019531 176.171875 47.15625 L 176.171875 30.5625 C 179.640625 31.886719 186.285156 31.804688 189.480469 30.5 " fill-opacity="1" fill-rule="evenodd"/><g clip-path="url(#505f5b67cb)"><path fill="#323653" d="M 165.265625 44.109375 L 165.265625 60.703125 C 165.265625 62.566406 165.085938 64.519531 165.265625 66.234375 C 165.621094 69.652344 168.328125 72.941406 171.984375 72.894531 C 173.507812 72.875 174.976562 72.15625 175.898438 71.386719 C 177.210938 70.292969 178.398438 68.265625 178.574219 66.042969 C 178.847656 62.640625 178.574219 58.796875 178.574219 55.046875 L 178.574219 44.046875 C 175.375 45.351562 168.734375 45.433594 165.265625 44.109375 Z M 171.007812 41.972656 C 168.945312 42.066406 166.871094 42.242188 165.527344 42.980469 C 166.914062 43.953125 169.382812 44.132812 171.722656 44.175781 C 174.09375 44.214844 176.589844 43.859375 178.117188 43.105469 C 176.527344 42.039062 173.636719 41.855469 171.007812 41.972656 Z M 164.222656 29.277344 L 164.222656 30.976562 C 164.457031 31.335938 165.023438 31.375 165.265625 31.730469 L 165.265625 41.972656 C 168.269531 40.8125 174.191406 40.726562 177.398438 41.660156 C 177.914062 41.808594 178.289062 42.019531 178.574219 41.972656 L 178.574219 31.730469 C 179.523438 31.554688 179.746094 30.347656 179.488281 29.214844 C 175.484375 30.574219 168.332031 30.464844 164.222656 29.277344 Z M 164.351562 28.023438 C 168.148438 29.554688 175.722656 29.628906 179.421875 27.957031 C 175.554688 26.464844 168.117188 26.359375 164.351562 28.023438 Z M 180.597656 27.519531 C 180.46875 29.097656 180.78125 29.871094 180.597656 30.851562 C 180.441406 31.664062 179.628906 31.824219 179.488281 32.484375 C 179.238281 33.644531 179.488281 35.300781 179.488281 36.757812 L 179.488281 57.8125 C 179.488281 60.648438 179.703125 63.40625 179.488281 66.234375 C 179.21875 69.804688 176.496094 73.203125 173.027344 73.585938 C 169.753906 73.949219 167.832031 72.621094 166.503906 71.136719 C 165.382812 69.882812 164.523438 68.363281 164.351562 66.484375 C 164.109375 63.839844 164.351562 60.828125 164.351562 57.9375 L 164.351562 36.632812 C 164.351562 35.375 164.640625 33.519531 164.351562 32.421875 C 164.199219 31.84375 163.457031 31.855469 163.242188 31.164062 C 163.058594 30.578125 162.96875 28.269531 163.175781 27.644531 C 163.464844 26.777344 165.011719 26.460938 166.113281 26.261719 C 169.191406 25.699219 172.734375 25.628906 176.09375 26.011719 C 177.859375 26.210938 179.585938 26.535156 180.597656 27.519531 " fill-opacity="1" fill-rule="evenodd"/></g><path fill="#f9fbef" d="M 179.421875 27.957031 C 175.722656 29.628906 168.148438 29.554688 164.351562 28.023438 C 168.117188 26.359375 175.554688 26.464844 179.421875 27.957031 " fill-opacity="1" fill-rule="evenodd"/><path fill="#f9fbef" d="M 175.117188 30.722656 C 171.988281 31.027344 168.394531 30.867188 165.851562 30.285156 C 165.390625 30.488281 164.871094 30.636719 164.679688 31.101562 C 168.714844 32.210938 175.113281 32.171875 179.164062 31.101562 C 178.449219 29.769531 176.816406 30.558594 175.117188 30.722656 Z M 179.488281 29.214844 C 179.746094 30.347656 179.523438 31.554688 178.574219 31.730469 L 178.574219 41.972656 C 178.289062 42.019531 177.914062 41.808594 177.398438 41.660156 C 174.191406 40.726562 168.269531 40.8125 165.265625 41.972656 L 165.265625 31.730469 C 165.023438 31.375 164.457031 31.335938 164.222656 30.976562 L 164.222656 29.277344 C 168.332031 30.464844 175.484375 30.574219 179.488281 29.214844 " fill-opacity="1" fill-rule="evenodd"/><path fill="#323653" d="M 179.160156 31.101562 C 175.113281 32.171875 168.714844 32.210938 164.675781 31.101562 C 164.871094 30.636719 165.390625 30.488281 165.851562 30.285156 C 168.394531 30.867188 171.988281 31.027344 175.117188 30.722656 C 176.816406 30.558594 178.445312 29.769531 179.160156 31.101562 " fill-opacity="1" fill-rule="evenodd"/><path fill="#7ed957" d="M 178.117188 43.105469 C 176.589844 43.859375 174.09375 44.214844 171.722656 44.175781 C 169.382812 44.132812 166.914062 43.953125 165.527344 42.980469 C 166.871094 42.242188 168.945312 42.066406 171.007812 41.972656 C 173.636719 41.855469 176.527344 42.039062 178.117188 43.105469 " fill-opacity="1" fill-rule="evenodd"/><path fill="#7ed957" d="M 178.574219 44.046875 L 178.574219 55.046875 C 178.574219 58.796875 178.847656 62.640625 178.574219 66.042969 C 178.398438 68.265625 177.210938 70.292969 175.898438 71.386719 C 174.976562 72.15625 173.507812 72.875 171.984375 72.894531 C 168.328125 72.941406 165.621094 69.652344 165.265625 66.234375 C 165.085938 64.519531 165.265625 62.566406 165.265625 60.703125 L 165.265625 44.109375 C 168.734375 45.433594 175.375 45.351562 178.574219 44.046875 " fill-opacity="1" fill-rule="evenodd"/><g clip-path="url(#beb193128b)"><path fill="#323653" d="M 146.527344 44.109375 L 146.527344 60.703125 C 146.527344 62.566406 146.347656 64.519531 146.527344 66.234375 C 146.882812 69.652344 149.585938 72.941406 153.246094 72.894531 C 154.765625 72.875 156.234375 72.15625 157.160156 71.386719 C 158.472656 70.292969 159.65625 68.265625 159.835938 66.042969 C 160.109375 62.640625 159.835938 58.796875 159.835938 55.046875 L 159.835938 44.046875 C 156.636719 45.351562 149.996094 45.433594 146.527344 44.109375 Z M 152.265625 41.972656 C 150.207031 42.066406 148.132812 42.242188 146.785156 42.980469 C 148.175781 43.953125 150.644531 44.132812 152.984375 44.175781 C 155.355469 44.214844 157.851562 43.859375 159.378906 43.105469 C 157.785156 42.039062 154.898438 41.855469 152.265625 41.972656 Z M 145.480469 29.277344 L 145.480469 30.976562 C 145.71875 31.335938 146.285156 31.375 146.527344 31.730469 L 146.527344 41.972656 C 149.53125 40.8125 155.453125 40.726562 158.660156 41.660156 C 159.171875 41.808594 159.546875 42.019531 159.835938 41.972656 L 159.835938 31.730469 C 160.785156 31.554688 161.007812 30.347656 160.75 29.214844 C 156.746094 30.574219 149.589844 30.464844 145.484375 29.277344 Z M 145.613281 28.023438 C 149.410156 29.554688 156.980469 29.628906 160.683594 27.957031 C 156.8125 26.464844 149.378906 26.359375 145.613281 28.023438 Z M 161.855469 27.519531 C 161.726562 29.097656 162.042969 29.871094 161.855469 30.851562 C 161.703125 31.664062 160.890625 31.824219 160.75 32.484375 C 160.5 33.644531 160.75 35.300781 160.75 36.757812 L 160.75 57.8125 C 160.75 60.648438 160.960938 63.40625 160.75 66.234375 C 160.476562 69.804688 157.757812 73.203125 154.289062 73.585938 C 151.015625 73.949219 149.09375 72.621094 147.765625 71.136719 C 146.644531 69.882812 145.785156 68.363281 145.613281 66.484375 C 145.371094 63.839844 145.613281 60.828125 145.613281 57.9375 L 145.613281 36.632812 C 145.613281 35.375 145.902344 33.519531 145.613281 32.421875 C 145.460938 31.84375 144.71875 31.855469 144.503906 31.164062 C 144.320312 30.578125 144.230469 28.269531 144.4375 27.644531 C 144.726562 26.777344 146.273438 26.460938 147.375 26.261719 C 150.453125 25.699219 153.992188 25.628906 157.355469 26.011719 C 159.121094 26.210938 160.84375 26.535156 161.855469 27.519531 " fill-opacity="1" fill-rule="evenodd"/></g><path fill="#f9fbef" d="M 160.683594 27.957031 C 156.980469 29.628906 149.410156 29.554688 145.613281 28.023438 C 149.378906 26.359375 156.8125 26.464844 160.683594 27.957031 " fill-opacity="1" fill-rule="evenodd"/><path fill="#f9fbef" d="M 156.378906 30.722656 C 153.25 31.027344 149.65625 30.867188 147.113281 30.285156 C 146.648438 30.488281 146.132812 30.636719 145.9375 31.101562 C 149.976562 32.210938 156.375 32.171875 160.421875 31.101562 C 159.707031 29.769531 158.078125 30.558594 156.378906 30.722656 Z M 160.75 29.214844 C 161.007812 30.347656 160.785156 31.554688 159.835938 31.730469 L 159.835938 41.972656 C 159.546875 42.019531 159.175781 41.808594 158.660156 41.660156 C 155.453125 40.726562 149.53125 40.8125 146.527344 41.972656 L 146.527344 31.730469 C 146.285156 31.375 145.71875 31.335938 145.480469 30.976562 L 145.480469 29.277344 C 149.589844 30.464844 156.746094 30.574219 160.75 29.214844 " fill-opacity="1" fill-rule="evenodd"/><path fill="#323653" d="M 160.421875 31.101562 C 156.375 32.171875 149.976562 32.210938 145.9375 31.101562 C 146.132812 30.636719 146.648438 30.488281 147.113281 30.285156 C 149.65625 30.867188 153.25 31.027344 156.378906 30.722656 C 158.078125 30.558594 159.707031 29.769531 160.421875 31.101562 " fill-opacity="1" fill-rule="evenodd"/><path fill="#7ed957" d="M 159.378906 43.105469 C 157.851562 43.859375 155.355469 44.214844 152.984375 44.175781 C 150.644531 44.132812 148.175781 43.953125 146.785156 42.980469 C 148.132812 42.242188 150.207031 42.066406 152.265625 41.972656 C 154.898438 41.855469 157.785156 42.039062 159.378906 43.105469 " fill-opacity="1" fill-rule="evenodd"/><path fill="#7ed957" d="M 159.835938 44.046875 L 159.835938 55.046875 C 159.835938 58.796875 160.109375 62.640625 159.835938 66.042969 C 159.65625 68.265625 158.472656 70.292969 157.160156 71.386719 C 156.234375 72.15625 154.765625 72.875 153.246094 72.894531 C 149.585938 72.941406 146.882812 69.652344 146.527344 66.234375 C 146.347656 64.519531 146.527344 62.566406 146.527344 60.703125 L 146.527344 44.109375 C 149.996094 45.433594 156.636719 45.351562 159.835938 44.046875 " fill-opacity="1" fill-rule="evenodd"/></svg>