<svg xmlns="http://www.w3.org/2000/svg" xmlns:xlink="http://www.w3.org/1999/xlink" width="250" zoomAndPan="magnify" viewBox="0 0 187.5 187.499992" height="250" preserveAspectRatio="xMidYMid meet" version="1.0"><defs><g/><clipPath id="90b2d49ee0"><path d="M 55.988281 54.148438 L 125.738281 54.148438 L 125.738281 133.648438 L 55.988281 133.648438 Z M 55.988281 54.148438 " clip-rule="nonzero"/></clipPath><clipPath id="30b7e4bde5"><path d="M 65.328125 16.375 L 80.453125 16.375 L 80.453125 57.214844 L 65.328125 57.214844 Z M 65.328125 16.375 " clip-rule="nonzero"/></clipPath><clipPath id="5ae04e4b97"><path d="M 83.371094 16.375 L 98.496094 16.375 L 98.496094 57.214844 L 83.371094 57.214844 Z M 83.371094 16.375 " clip-rule="nonzero"/></clipPath><clipPath id="0dfae92f15"><path d="M 101.410156 16.375 L 116.539062 16.375 L 116.539062 57.214844 L 101.410156 57.214844 Z M 101.410156 16.375 " clip-rule="nonzero"/></clipPath><clipPath id="018899984b"><path d="M 92.078125 27.964844 L 107.207031 27.964844 L 107.207031 68.804688 L 92.078125 68.804688 Z M 92.078125 27.964844 " clip-rule="nonzero"/></clipPath><clipPath id="f96404454a"><path d="M 93 43 L 106 43 L 106 68.804688 L 93 68.804688 Z M 93 43 " clip-rule="nonzero"/></clipPath><clipPath id="0a863df697"><path d="M 76.042969 27.964844 L 91.171875 27.964844 L 91.171875 68.804688 L 76.042969 68.804688 Z M 76.042969 27.964844 " clip-rule="nonzero"/></clipPath><clipPath id="044fc0081d"><path d="M 77 43 L 90 43 L 90 68.804688 L 77 68.804688 Z M 77 43 " clip-rule="nonzero"/></clipPath></defs><g clip-path="url(#90b2d49ee0)"><path fill="#7ed957" d="M 122.59375 73.691406 L 59.132812 73.691406 L 62.726562 58.050781 C 62.871094 57.417969 63.433594 56.96875 64.082031 56.96875 L 69.9375 56.96875 C 70.707031 56.96875 71.332031 56.34375 71.332031 55.574219 C 71.332031 54.804688 70.707031 54.179688 69.9375 54.179688 C 69.9375 54.179688 66.472656 54.179688 64.082031 54.179688 C 62.132812 54.179688 60.441406 55.527344 60.003906 57.425781 L 56.03125 74.742188 C 56.015625 74.804688 56.003906 74.871094 55.996094 74.933594 C 55.988281 74.992188 55.988281 75.050781 55.988281 75.109375 L 55.988281 89.019531 C 55.988281 90.089844 56.390625 91.066406 57.054688 91.804688 C 56.390625 92.546875 55.988281 93.523438 55.988281 94.59375 L 55.988281 100.167969 C 55.988281 100.9375 56.613281 101.5625 57.382812 101.5625 C 58.152344 101.5625 58.777344 100.9375 58.777344 100.167969 L 58.777344 94.59375 C 58.777344 93.824219 59.402344 93.199219 60.171875 93.199219 C 71.066406 93.199219 110.660156 93.199219 121.554688 93.199219 C 122.324219 93.199219 122.949219 93.824219 122.949219 94.59375 C 122.949219 94.59375 122.949219 108.527344 122.949219 108.527344 C 122.949219 109.296875 122.324219 109.921875 121.554688 109.921875 C 121.554688 109.921875 60.171875 109.921875 60.171875 109.921875 C 59.402344 109.921875 58.777344 109.296875 58.777344 108.527344 L 58.777344 105.742188 C 58.777344 104.972656 58.152344 104.347656 57.382812 104.347656 C 56.613281 104.347656 55.988281 104.972656 55.988281 105.742188 L 55.988281 108.527344 C 55.988281 109.597656 56.390625 110.574219 57.054688 111.316406 C 56.371094 112.082031 55.988281 113.070312 55.988281 114.101562 C 55.988281 116.871094 55.988281 121.089844 55.988281 123.859375 C 55.988281 124.96875 56.429688 126.03125 57.214844 126.8125 C 58 127.597656 59.0625 128.039062 60.171875 128.039062 C 60.171875 128.039062 60.171875 132.21875 60.171875 132.21875 C 60.171875 132.988281 60.796875 133.613281 61.566406 133.613281 L 120.160156 133.613281 C 120.929688 133.613281 121.554688 132.988281 121.554688 132.21875 L 121.554688 128.039062 C 123.863281 128.039062 125.738281 126.167969 125.738281 123.859375 L 125.738281 121.070312 C 125.738281 120.300781 125.113281 119.675781 124.34375 119.675781 C 123.574219 119.675781 122.949219 120.300781 122.949219 121.070312 L 122.949219 123.859375 C 122.949219 124.628906 122.324219 125.25 121.554688 125.25 C 110.660156 125.25 71.066406 125.25 60.171875 125.25 C 59.804688 125.25 59.449219 125.105469 59.1875 124.84375 C 58.925781 124.582031 58.777344 124.226562 58.777344 123.859375 L 58.777344 114.101562 C 58.777344 113.734375 58.925781 113.378906 59.1875 113.117188 C 59.449219 112.855469 59.804688 112.710938 60.171875 112.710938 C 60.171875 112.710938 121.554688 112.710938 121.554688 112.710938 C 122.324219 112.710938 122.949219 113.332031 122.949219 114.101562 L 122.949219 116.890625 C 122.949219 117.660156 123.574219 118.285156 124.34375 118.285156 C 125.113281 118.285156 125.738281 117.660156 125.738281 116.890625 L 125.738281 114.101562 C 125.738281 113.03125 125.335938 112.054688 124.671875 111.316406 C 125.335938 110.574219 125.738281 109.597656 125.738281 108.527344 L 125.738281 94.59375 C 125.738281 93.523438 125.335938 92.546875 124.671875 91.804688 C 125.359375 91.042969 125.738281 90.050781 125.738281 89.019531 C 125.738281 87.078125 125.738281 84.839844 125.738281 84.839844 C 125.738281 84.070312 125.113281 83.445312 124.34375 83.445312 C 123.574219 83.445312 122.949219 84.070312 122.949219 84.839844 C 122.949219 84.839844 122.949219 87.078125 122.949219 89.019531 C 122.949219 89.386719 122.800781 89.742188 122.539062 90.003906 C 122.277344 90.265625 121.921875 90.414062 121.554688 90.414062 C 110.660156 90.414062 71.066406 90.414062 60.171875 90.414062 C 59.402344 90.414062 58.777344 89.789062 58.777344 89.019531 C 58.777344 89.019531 58.777344 76.476562 58.777344 76.476562 C 58.777344 76.476562 122.949219 76.476562 122.949219 76.476562 C 122.949219 76.476562 122.949219 80.65625 122.949219 80.65625 C 122.949219 81.425781 123.574219 82.050781 124.34375 82.050781 C 125.113281 82.050781 125.738281 81.425781 125.738281 80.65625 L 125.738281 75.109375 C 125.738281 75.050781 125.738281 74.992188 125.730469 74.933594 C 125.722656 74.871094 125.710938 74.804688 125.695312 74.742188 L 121.722656 57.425781 C 121.285156 55.527344 119.59375 54.179688 117.644531 54.179688 L 81.097656 54.179688 C 80.328125 54.179688 79.703125 54.804688 79.703125 55.574219 C 79.703125 56.34375 80.328125 56.96875 81.097656 56.96875 L 117.644531 56.96875 C 118.292969 56.96875 118.855469 57.417969 119 58.050781 Z M 118.761719 128.039062 L 62.964844 128.039062 L 62.964844 130.824219 C 62.964844 130.824219 118.761719 130.824219 118.761719 130.824219 Z M 115.972656 116.890625 C 114.433594 116.890625 113.183594 118.140625 113.183594 119.675781 C 113.183594 121.214844 114.433594 122.464844 115.972656 122.464844 C 117.511719 122.464844 118.761719 121.214844 118.761719 119.675781 C 118.761719 118.140625 117.511719 116.890625 115.972656 116.890625 Z M 107.601562 116.890625 C 106.0625 116.890625 104.8125 118.140625 104.8125 119.675781 C 104.8125 121.214844 106.0625 122.464844 107.601562 122.464844 C 109.144531 122.464844 110.394531 121.214844 110.394531 119.675781 C 110.394531 118.140625 109.144531 116.890625 107.601562 116.890625 Z M 62.964844 121.070312 L 79.703125 121.070312 C 80.472656 121.070312 81.097656 120.445312 81.097656 119.675781 C 81.097656 118.90625 80.472656 118.285156 79.703125 118.285156 L 62.964844 118.285156 C 62.191406 118.285156 61.566406 118.90625 61.566406 119.675781 C 61.566406 120.445312 62.191406 121.070312 62.964844 121.070312 Z M 115.972656 99.472656 C 114.433594 99.472656 113.183594 100.71875 113.183594 102.257812 C 113.183594 103.796875 114.433594 105.046875 115.972656 105.046875 C 117.511719 105.046875 118.761719 103.796875 118.761719 102.257812 C 118.761719 100.71875 117.511719 99.472656 115.972656 99.472656 Z M 107.601562 99.472656 C 106.0625 99.472656 104.8125 100.71875 104.8125 102.257812 C 104.8125 103.796875 106.0625 105.046875 107.601562 105.046875 C 109.144531 105.046875 110.394531 103.796875 110.394531 102.257812 C 110.394531 100.71875 109.144531 99.472656 107.601562 99.472656 Z M 62.964844 102.953125 L 79.703125 102.953125 C 80.472656 102.953125 81.097656 102.332031 81.097656 101.5625 C 81.097656 100.792969 80.472656 100.167969 79.703125 100.167969 L 62.964844 100.167969 C 62.191406 100.167969 61.566406 100.792969 61.566406 101.5625 C 61.566406 102.332031 62.191406 102.953125 62.964844 102.953125 Z M 115.972656 81.355469 C 114.433594 81.355469 113.183594 82.601562 113.183594 84.140625 C 113.183594 85.679688 114.433594 86.929688 115.972656 86.929688 C 117.511719 86.929688 118.761719 85.679688 118.761719 84.140625 C 118.761719 82.601562 117.511719 81.355469 115.972656 81.355469 Z M 107.601562 81.355469 C 106.0625 81.355469 104.8125 82.601562 104.8125 84.140625 C 104.8125 85.679688 106.0625 86.929688 107.601562 86.929688 C 109.144531 86.929688 110.394531 85.679688 110.394531 84.140625 C 110.394531 82.601562 109.144531 81.355469 107.601562 81.355469 Z M 62.964844 84.839844 L 79.703125 84.839844 C 80.472656 84.839844 81.097656 84.214844 81.097656 83.445312 C 81.097656 82.675781 80.472656 82.050781 79.703125 82.050781 L 62.964844 82.050781 C 62.191406 82.050781 61.566406 82.675781 61.566406 83.445312 C 61.566406 84.214844 62.191406 84.839844 62.964844 84.839844 Z M 74.125 56.96875 L 76.914062 56.96875 C 77.683594 56.96875 78.308594 56.34375 78.308594 55.574219 C 78.308594 54.804688 77.683594 54.179688 76.914062 54.179688 L 74.125 54.179688 C 73.351562 54.179688 72.726562 54.804688 72.726562 55.574219 C 72.726562 56.34375 73.351562 56.96875 74.125 56.96875 Z M 74.125 56.96875 " fill-opacity="1" fill-rule="evenodd"/></g><g fill="#7ed957" fill-opacity="1"><g transform="translate(63.114711, 169.865355)"><g><path d="M 17.875 -23.390625 C 17.71875 -21.828125 17.640625 -20.414062 17.640625 -19.15625 C 17.640625 -18.050781 17.671875 -17.148438 17.734375 -16.453125 L 16.984375 -16.453125 C 16.804688 -18.148438 16.582031 -19.410156 16.3125 -20.234375 C 16.050781 -21.054688 15.585938 -21.660156 14.921875 -22.046875 C 14.265625 -22.429688 13.253906 -22.625 11.890625 -22.625 L 9.8125 -22.625 C 9.019531 -22.625 8.441406 -22.5625 8.078125 -22.4375 C 7.710938 -22.320312 7.460938 -22.078125 7.328125 -21.703125 C 7.203125 -21.328125 7.140625 -20.722656 7.140625 -19.890625 L 7.140625 -11.765625 L 9.546875 -11.765625 C 10.316406 -11.765625 10.910156 -11.941406 11.328125 -12.296875 C 11.742188 -12.660156 12.023438 -13.085938 12.171875 -13.578125 C 12.316406 -14.078125 12.429688 -14.703125 12.515625 -15.453125 L 12.625 -16.125 L 13.375 -16.125 C 13.3125 -15.195312 13.28125 -14.160156 13.28125 -13.015625 L 13.28125 -11.421875 C 13.28125 -10.304688 13.347656 -8.742188 13.484375 -6.734375 L 12.71875 -6.734375 C 12.695312 -6.890625 12.628906 -7.425781 12.515625 -8.34375 C 12.410156 -9.257812 12.109375 -9.945312 11.609375 -10.40625 C 11.117188 -10.863281 10.429688 -11.09375 9.546875 -11.09375 L 7.140625 -11.09375 L 7.140625 -3.5 C 7.140625 -2.664062 7.222656 -2.0625 7.390625 -1.6875 C 7.566406 -1.3125 7.875 -1.054688 8.3125 -0.921875 C 8.757812 -0.796875 9.476562 -0.707031 10.46875 -0.65625 L 10.46875 0 C 9.320312 -0.0625 7.703125 -0.09375 5.609375 -0.09375 C 3.722656 -0.09375 2.316406 -0.0625 1.390625 0 L 1.390625 -0.65625 C 2.179688 -0.707031 2.757812 -0.796875 3.125 -0.921875 C 3.488281 -1.054688 3.734375 -1.3125 3.859375 -1.6875 C 3.992188 -2.0625 4.0625 -2.664062 4.0625 -3.5 L 4.0625 -19.890625 C 4.0625 -20.722656 3.992188 -21.328125 3.859375 -21.703125 C 3.734375 -22.078125 3.488281 -22.328125 3.125 -22.453125 C 2.757812 -22.585938 2.179688 -22.675781 1.390625 -22.71875 L 1.390625 -23.390625 C 3.546875 -23.316406 6.738281 -23.28125 10.96875 -23.28125 C 14.207031 -23.28125 16.507812 -23.316406 17.875 -23.390625 Z M 17.875 -23.390625 "/></g></g></g><g fill="#7ed957" fill-opacity="1"><g transform="translate(85.307819, 169.865355)"><g><path d="M 8.453125 -23.75 C 9.421875 -23.75 10.1875 -23.644531 10.75 -23.4375 C 11.3125 -23.226562 11.890625 -22.925781 12.484375 -22.53125 C 12.972656 -22.21875 13.347656 -22.0625 13.609375 -22.0625 C 13.804688 -22.0625 13.957031 -22.175781 14.0625 -22.40625 C 14.175781 -22.644531 14.265625 -23.015625 14.328125 -23.515625 L 15.09375 -23.515625 C 14.988281 -22.242188 14.9375 -20 14.9375 -16.78125 L 14.171875 -16.78125 C 14.035156 -18.5625 13.519531 -20.0625 12.625 -21.28125 C 11.738281 -22.507812 10.445312 -23.125 8.75 -23.125 C 7.5625 -23.125 6.59375 -22.765625 5.84375 -22.046875 C 5.09375 -21.328125 4.71875 -20.410156 4.71875 -19.296875 C 4.71875 -18.453125 4.910156 -17.722656 5.296875 -17.109375 C 5.679688 -16.492188 6.171875 -15.960938 6.765625 -15.515625 C 7.359375 -15.078125 8.207031 -14.519531 9.3125 -13.84375 L 10.265625 -13.25 C 11.660156 -12.382812 12.757812 -11.628906 13.5625 -10.984375 C 14.363281 -10.335938 15.003906 -9.59375 15.484375 -8.75 C 15.972656 -7.914062 16.21875 -6.9375 16.21875 -5.8125 C 16.21875 -3.8125 15.554688 -2.265625 14.234375 -1.171875 C 12.910156 -0.078125 11.238281 0.46875 9.21875 0.46875 C 8.15625 0.46875 7.285156 0.351562 6.609375 0.125 C 5.941406 -0.09375 5.300781 -0.390625 4.6875 -0.765625 C 4.207031 -1.066406 3.832031 -1.21875 3.5625 -1.21875 C 3.363281 -1.21875 3.207031 -1.101562 3.09375 -0.875 C 2.988281 -0.644531 2.90625 -0.273438 2.84375 0.234375 L 2.078125 0.234375 C 2.171875 -0.972656 2.21875 -3.617188 2.21875 -7.703125 L 2.96875 -7.703125 C 3.125 -5.472656 3.675781 -3.664062 4.625 -2.28125 C 5.570312 -0.894531 7.023438 -0.203125 8.984375 -0.203125 C 10.171875 -0.203125 11.179688 -0.566406 12.015625 -1.296875 C 12.859375 -2.035156 13.28125 -3.132812 13.28125 -4.59375 C 13.28125 -5.820312 12.863281 -6.863281 12.03125 -7.71875 C 11.207031 -8.582031 9.90625 -9.554688 8.125 -10.640625 C 6.820312 -11.429688 5.769531 -12.132812 4.96875 -12.75 C 4.164062 -13.363281 3.507812 -14.101562 3 -14.96875 C 2.5 -15.84375 2.25 -16.863281 2.25 -18.03125 C 2.25 -19.882812 2.84375 -21.300781 4.03125 -22.28125 C 5.21875 -23.257812 6.691406 -23.75 8.453125 -23.75 Z M 8.453125 -23.75 "/></g></g></g><g fill="#7ed957" fill-opacity="1"><g transform="translate(106.543251, 169.865355)"><g><path d="M 8.453125 -23.75 C 9.421875 -23.75 10.1875 -23.644531 10.75 -23.4375 C 11.3125 -23.226562 11.890625 -22.925781 12.484375 -22.53125 C 12.972656 -22.21875 13.347656 -22.0625 13.609375 -22.0625 C 13.804688 -22.0625 13.957031 -22.175781 14.0625 -22.40625 C 14.175781 -22.644531 14.265625 -23.015625 14.328125 -23.515625 L 15.09375 -23.515625 C 14.988281 -22.242188 14.9375 -20 14.9375 -16.78125 L 14.171875 -16.78125 C 14.035156 -18.5625 13.519531 -20.0625 12.625 -21.28125 C 11.738281 -22.507812 10.445312 -23.125 8.75 -23.125 C 7.5625 -23.125 6.59375 -22.765625 5.84375 -22.046875 C 5.09375 -21.328125 4.71875 -20.410156 4.71875 -19.296875 C 4.71875 -18.453125 4.910156 -17.722656 5.296875 -17.109375 C 5.679688 -16.492188 6.171875 -15.960938 6.765625 -15.515625 C 7.359375 -15.078125 8.207031 -14.519531 9.3125 -13.84375 L 10.265625 -13.25 C 11.660156 -12.382812 12.757812 -11.628906 13.5625 -10.984375 C 14.363281 -10.335938 15.003906 -9.59375 15.484375 -8.75 C 15.972656 -7.914062 16.21875 -6.9375 16.21875 -5.8125 C 16.21875 -3.8125 15.554688 -2.265625 14.234375 -1.171875 C 12.910156 -0.078125 11.238281 0.46875 9.21875 0.46875 C 8.15625 0.46875 7.285156 0.351562 6.609375 0.125 C 5.941406 -0.09375 5.300781 -0.390625 4.6875 -0.765625 C 4.207031 -1.066406 3.832031 -1.21875 3.5625 -1.21875 C 3.363281 -1.21875 3.207031 -1.101562 3.09375 -0.875 C 2.988281 -0.644531 2.90625 -0.273438 2.84375 0.234375 L 2.078125 0.234375 C 2.171875 -0.972656 2.21875 -3.617188 2.21875 -7.703125 L 2.96875 -7.703125 C 3.125 -5.472656 3.675781 -3.664062 4.625 -2.28125 C 5.570312 -0.894531 7.023438 -0.203125 8.984375 -0.203125 C 10.171875 -0.203125 11.179688 -0.566406 12.015625 -1.296875 C 12.859375 -2.035156 13.28125 -3.132812 13.28125 -4.59375 C 13.28125 -5.820312 12.863281 -6.863281 12.03125 -7.71875 C 11.207031 -8.582031 9.90625 -9.554688 8.125 -10.640625 C 6.820312 -11.429688 5.769531 -12.132812 4.96875 -12.75 C 4.164062 -13.363281 3.507812 -14.101562 3 -14.96875 C 2.5 -15.84375 2.25 -16.863281 2.25 -18.03125 C 2.25 -19.882812 2.84375 -21.300781 4.03125 -22.28125 C 5.21875 -23.257812 6.691406 -23.75 8.453125 -23.75 Z M 8.453125 -23.75 "/></g></g></g><g clip-path="url(#30b7e4bde5)"><path fill="#323653" d="M 67.222656 32.023438 L 67.222656 46.160156 C 67.222656 47.75 67.070312 49.414062 67.222656 50.875 C 67.53125 53.785156 69.855469 56.589844 73 56.550781 C 74.308594 56.53125 75.570312 55.921875 76.363281 55.265625 C 77.492188 54.332031 78.511719 52.605469 78.664062 50.710938 C 78.898438 47.8125 78.664062 44.539062 78.664062 41.339844 L 78.664062 31.96875 C 75.914062 33.082031 70.207031 33.152344 67.222656 32.023438 Z M 72.160156 30.203125 C 70.386719 30.28125 68.605469 30.429688 67.449219 31.058594 C 68.644531 31.886719 70.765625 32.039062 72.777344 32.078125 C 74.8125 32.113281 76.957031 31.808594 78.269531 31.164062 C 76.902344 30.257812 74.417969 30.101562 72.160156 30.203125 Z M 66.328125 19.386719 L 66.328125 20.832031 C 66.527344 21.136719 67.015625 21.171875 67.222656 21.472656 L 67.222656 30.203125 C 69.808594 29.210938 74.894531 29.140625 77.652344 29.933594 C 78.09375 30.0625 78.417969 30.242188 78.664062 30.203125 L 78.664062 21.472656 C 79.480469 21.324219 79.671875 20.292969 79.449219 19.332031 C 76.007812 20.488281 69.859375 20.394531 66.328125 19.386719 Z M 66.441406 18.3125 C 69.703125 19.621094 76.210938 19.683594 79.390625 18.261719 C 76.066406 16.988281 69.675781 16.898438 66.441406 18.3125 Z M 80.402344 17.886719 C 80.289062 19.230469 80.5625 19.890625 80.402344 20.722656 C 80.269531 21.417969 79.570312 21.550781 79.449219 22.117188 C 79.234375 23.105469 79.449219 24.515625 79.449219 25.757812 L 79.449219 43.699219 C 79.449219 46.117188 79.632812 48.464844 79.449219 50.875 C 79.214844 53.917969 76.878906 56.8125 73.898438 57.136719 C 71.082031 57.449219 69.429688 56.316406 68.289062 55.050781 C 67.328125 53.984375 66.585938 52.6875 66.4375 51.085938 C 66.230469 48.832031 66.4375 46.269531 66.4375 43.804688 L 66.4375 25.652344 C 66.4375 24.578125 66.6875 23 66.4375 22.0625 C 66.308594 21.570312 65.671875 21.578125 65.484375 20.992188 C 65.328125 20.492188 65.25 18.523438 65.429688 17.992188 C 65.675781 17.253906 67.007812 16.984375 67.953125 16.8125 C 70.597656 16.335938 73.644531 16.273438 76.53125 16.601562 C 78.050781 16.769531 79.53125 17.046875 80.402344 17.886719 " fill-opacity="1" fill-rule="evenodd"/></g><path fill="#f9fbef" d="M 79.390625 18.261719 C 76.210938 19.683594 69.703125 19.621094 66.441406 18.3125 C 69.675781 16.898438 76.066406 16.988281 79.390625 18.261719 " fill-opacity="1" fill-rule="evenodd"/><path fill="#f9fbef" d="M 75.691406 20.617188 C 73.003906 20.875 69.914062 20.738281 67.730469 20.242188 C 67.332031 20.414062 66.886719 20.542969 66.71875 20.9375 C 70.1875 21.882812 75.6875 21.851562 79.167969 20.9375 C 78.554688 19.804688 77.152344 20.476562 75.691406 20.617188 Z M 79.449219 19.332031 C 79.671875 20.292969 79.480469 21.324219 78.664062 21.472656 L 78.664062 30.203125 C 78.417969 30.242188 78.09375 30.0625 77.652344 29.933594 C 74.894531 29.140625 69.808594 29.210938 67.222656 30.203125 L 67.222656 21.472656 C 67.015625 21.171875 66.53125 21.136719 66.328125 20.832031 L 66.328125 19.386719 C 69.859375 20.394531 76.007812 20.488281 79.449219 19.332031 " fill-opacity="1" fill-rule="evenodd"/><path fill="#323653" d="M 79.167969 20.9375 C 75.6875 21.851562 70.1875 21.882812 66.71875 20.9375 C 66.886719 20.542969 67.332031 20.414062 67.730469 20.242188 C 69.914062 20.738281 73.003906 20.875 75.691406 20.617188 C 77.152344 20.476562 78.554688 19.804688 79.167969 20.9375 " fill-opacity="1" fill-rule="evenodd"/><path fill="#7ed957" d="M 78.269531 31.164062 C 76.957031 31.808594 74.8125 32.113281 72.777344 32.078125 C 70.765625 32.039062 68.644531 31.886719 67.449219 31.058594 C 68.605469 30.429688 70.386719 30.28125 72.160156 30.203125 C 74.417969 30.101562 76.902344 30.257812 78.269531 31.164062 " fill-opacity="1" fill-rule="evenodd"/><path fill="#7ed957" d="M 78.664062 31.96875 L 78.664062 41.339844 C 78.664062 44.539062 78.898438 47.8125 78.664062 50.710938 C 78.511719 52.605469 77.492188 54.332031 76.363281 55.265625 C 75.570312 55.921875 74.308594 56.53125 73 56.550781 C 69.855469 56.589844 67.53125 53.785156 67.222656 50.875 C 67.070312 49.414062 67.222656 47.75 67.222656 46.160156 L 67.222656 32.023438 C 70.207031 33.152344 75.914062 33.082031 78.664062 31.96875 " fill-opacity="1" fill-rule="evenodd"/><g clip-path="url(#5ae04e4b97)"><path fill="#323653" d="M 85.265625 32.023438 L 85.265625 46.160156 C 85.265625 47.75 85.113281 49.414062 85.265625 50.875 C 85.574219 53.785156 87.898438 56.589844 91.042969 56.550781 C 92.347656 56.53125 93.613281 55.921875 94.40625 55.265625 C 95.535156 54.332031 96.554688 52.605469 96.707031 50.710938 C 96.941406 47.8125 96.707031 44.539062 96.707031 41.339844 L 96.707031 31.96875 C 93.957031 33.082031 88.25 33.152344 85.265625 32.023438 Z M 90.203125 30.203125 C 88.429688 30.28125 86.648438 30.429688 85.492188 31.058594 C 86.683594 31.886719 88.804688 32.039062 90.816406 32.078125 C 92.855469 32.113281 95 31.808594 96.3125 31.164062 C 94.945312 30.257812 92.460938 30.101562 90.203125 30.203125 Z M 84.371094 19.386719 L 84.371094 20.832031 C 84.570312 21.136719 85.058594 21.171875 85.265625 21.472656 L 85.265625 30.203125 C 87.847656 29.210938 92.9375 29.140625 95.695312 29.933594 C 96.136719 30.0625 96.460938 30.242188 96.707031 30.203125 L 96.707031 21.472656 C 97.523438 21.324219 97.714844 20.292969 97.492188 19.332031 C 94.050781 20.488281 87.902344 20.394531 84.371094 19.386719 Z M 84.480469 18.3125 C 87.742188 19.621094 94.253906 19.683594 97.433594 18.261719 C 94.109375 16.988281 87.71875 16.898438 84.480469 18.3125 Z M 98.445312 17.886719 C 98.332031 19.230469 98.601562 19.890625 98.445312 20.722656 C 98.3125 21.417969 97.613281 21.550781 97.492188 22.117188 C 97.277344 23.105469 97.492188 24.515625 97.492188 25.757812 L 97.492188 43.699219 C 97.492188 46.117188 97.675781 48.464844 97.492188 50.875 C 97.257812 53.917969 94.921875 56.8125 91.9375 57.136719 C 89.125 57.449219 87.472656 56.316406 86.332031 55.050781 C 85.367188 53.984375 84.628906 52.6875 84.480469 51.085938 C 84.273438 48.832031 84.480469 46.269531 84.480469 43.804688 L 84.480469 25.652344 C 84.480469 24.578125 84.730469 23 84.480469 22.0625 C 84.351562 21.570312 83.710938 21.578125 83.527344 20.992188 C 83.371094 20.492188 83.292969 18.523438 83.472656 17.992188 C 83.71875 17.253906 85.050781 16.984375 85.996094 16.8125 C 88.640625 16.335938 91.683594 16.273438 94.574219 16.601562 C 96.09375 16.769531 97.574219 17.046875 98.445312 17.886719 " fill-opacity="1" fill-rule="evenodd"/></g><path fill="#f9fbef" d="M 97.433594 18.261719 C 94.253906 19.683594 87.742188 19.621094 84.480469 18.3125 C 87.71875 16.898438 94.109375 16.988281 97.433594 18.261719 " fill-opacity="1" fill-rule="evenodd"/><path fill="#f9fbef" d="M 93.734375 20.617188 C 91.046875 20.875 87.957031 20.738281 85.769531 20.242188 C 85.375 20.414062 84.929688 20.542969 84.761719 20.9375 C 88.230469 21.882812 93.730469 21.851562 97.210938 20.9375 C 96.597656 19.804688 95.195312 20.476562 93.734375 20.617188 Z M 97.492188 19.332031 C 97.714844 20.292969 97.523438 21.324219 96.707031 21.472656 L 96.707031 30.203125 C 96.460938 30.242188 96.136719 30.0625 95.695312 29.933594 C 92.9375 29.140625 87.847656 29.210938 85.265625 30.203125 L 85.265625 21.472656 C 85.058594 21.171875 84.570312 21.136719 84.371094 20.832031 L 84.371094 19.386719 C 87.902344 20.394531 94.050781 20.488281 97.492188 19.332031 " fill-opacity="1" fill-rule="evenodd"/><path fill="#323653" d="M 97.210938 20.9375 C 93.730469 21.851562 88.230469 21.882812 84.761719 20.9375 C 84.929688 20.542969 85.375 20.414062 85.769531 20.242188 C 87.957031 20.738281 91.046875 20.875 93.734375 20.617188 C 95.195312 20.476562 96.597656 19.804688 97.210938 20.9375 " fill-opacity="1" fill-rule="evenodd"/><path fill="#7ed957" d="M 96.3125 31.164062 C 95 31.808594 92.855469 32.113281 90.816406 32.078125 C 88.804688 32.039062 86.683594 31.886719 85.492188 31.058594 C 86.648438 30.429688 88.429688 30.28125 90.203125 30.203125 C 92.460938 30.101562 94.945312 30.257812 96.3125 31.164062 " fill-opacity="1" fill-rule="evenodd"/><path fill="#7ed957" d="M 96.707031 31.96875 L 96.707031 41.339844 C 96.707031 44.539062 96.941406 47.8125 96.707031 50.710938 C 96.554688 52.605469 95.535156 54.332031 94.40625 55.265625 C 93.613281 55.921875 92.347656 56.53125 91.042969 56.550781 C 87.898438 56.589844 85.574219 53.785156 85.265625 50.875 C 85.113281 49.414062 85.265625 47.75 85.265625 46.160156 L 85.265625 32.023438 C 88.25 33.152344 93.957031 33.082031 96.707031 31.96875 " fill-opacity="1" fill-rule="evenodd"/><g clip-path="url(#0dfae92f15)"><path fill="#323653" d="M 103.308594 32.023438 L 103.308594 46.160156 C 103.308594 47.75 103.15625 49.414062 103.308594 50.875 C 103.617188 53.785156 105.941406 56.589844 109.085938 56.550781 C 110.390625 56.53125 111.652344 55.921875 112.449219 55.265625 C 113.578125 54.332031 114.59375 52.605469 114.746094 50.710938 C 114.980469 47.8125 114.746094 44.539062 114.746094 41.339844 L 114.746094 31.96875 C 112 33.082031 106.289062 33.152344 103.308594 32.023438 Z M 108.242188 30.203125 C 106.472656 30.28125 104.6875 30.429688 103.535156 31.058594 C 104.726562 31.886719 106.847656 32.039062 108.859375 32.078125 C 110.894531 32.113281 113.042969 31.808594 114.355469 31.164062 C 112.988281 30.257812 110.503906 30.101562 108.242188 30.203125 Z M 102.410156 19.386719 L 102.410156 20.832031 C 102.613281 21.136719 103.101562 21.171875 103.308594 21.472656 L 103.308594 30.203125 C 105.890625 29.210938 110.980469 29.140625 113.738281 29.933594 C 114.179688 30.0625 114.5 30.242188 114.746094 30.203125 L 114.746094 21.472656 C 115.5625 21.324219 115.757812 20.292969 115.53125 19.332031 C 112.089844 20.488281 105.945312 20.394531 102.414062 19.386719 Z M 102.523438 18.3125 C 105.785156 19.621094 112.296875 19.683594 115.476562 18.261719 C 112.152344 16.988281 105.761719 16.898438 102.523438 18.3125 Z M 116.484375 17.886719 C 116.375 19.230469 116.644531 19.890625 116.484375 20.722656 C 116.351562 21.417969 115.652344 21.550781 115.53125 22.117188 C 115.320312 23.105469 115.53125 24.515625 115.53125 25.757812 L 115.53125 43.699219 C 115.53125 46.117188 115.714844 48.464844 115.53125 50.875 C 115.300781 53.917969 112.964844 56.8125 109.980469 57.136719 C 107.167969 57.449219 105.515625 56.316406 104.375 55.050781 C 103.410156 53.984375 102.671875 52.6875 102.523438 51.085938 C 102.316406 48.832031 102.523438 46.269531 102.523438 43.804688 L 102.523438 25.652344 C 102.523438 24.578125 102.773438 23 102.523438 22.0625 C 102.394531 21.570312 101.753906 21.578125 101.570312 20.992188 C 101.414062 20.492188 101.335938 18.523438 101.515625 17.992188 C 101.761719 17.253906 103.089844 16.984375 104.039062 16.8125 C 106.683594 16.335938 109.726562 16.273438 112.617188 16.601562 C 114.132812 16.769531 115.617188 17.046875 116.484375 17.886719 " fill-opacity="1" fill-rule="evenodd"/></g><path fill="#f9fbef" d="M 115.476562 18.261719 C 112.296875 19.683594 105.785156 19.621094 102.523438 18.3125 C 105.761719 16.898438 112.152344 16.988281 115.476562 18.261719 " fill-opacity="1" fill-rule="evenodd"/><path fill="#f9fbef" d="M 111.777344 20.617188 C 109.085938 20.875 106 20.738281 103.8125 20.242188 C 103.414062 20.414062 102.972656 20.542969 102.804688 20.9375 C 106.273438 21.882812 111.773438 21.851562 115.253906 20.9375 C 114.636719 19.804688 113.238281 20.476562 111.777344 20.617188 Z M 115.53125 19.332031 C 115.757812 20.292969 115.5625 21.324219 114.746094 21.472656 L 114.746094 30.203125 C 114.5 30.242188 114.179688 30.0625 113.738281 29.933594 C 110.980469 29.140625 105.890625 29.210938 103.308594 30.203125 L 103.308594 21.472656 C 103.101562 21.171875 102.613281 21.136719 102.410156 20.832031 L 102.410156 19.386719 C 105.945312 20.394531 112.089844 20.488281 115.53125 19.332031 " fill-opacity="1" fill-rule="evenodd"/><path fill="#323653" d="M 115.253906 20.9375 C 111.773438 21.851562 106.273438 21.882812 102.804688 20.9375 C 102.972656 20.542969 103.414062 20.414062 103.8125 20.242188 C 106 20.738281 109.085938 20.875 111.777344 20.617188 C 113.238281 20.476562 114.636719 19.804688 115.253906 20.9375 " fill-opacity="1" fill-rule="evenodd"/><path fill="#7ed957" d="M 114.355469 31.164062 C 113.042969 31.808594 110.894531 32.113281 108.859375 32.078125 C 106.847656 32.039062 104.726562 31.886719 103.535156 31.058594 C 104.6875 30.429688 106.472656 30.28125 108.242188 30.203125 C 110.503906 30.101562 112.988281 30.257812 114.355469 31.164062 " fill-opacity="1" fill-rule="evenodd"/><path fill="#7ed957" d="M 114.746094 31.96875 L 114.746094 41.339844 C 114.746094 44.539062 114.980469 47.8125 114.746094 50.710938 C 114.59375 52.605469 113.578125 54.332031 112.449219 55.265625 C 111.652344 55.921875 110.390625 56.53125 109.085938 56.550781 C 105.941406 56.589844 103.617188 53.785156 103.308594 50.875 C 103.15625 49.414062 103.308594 47.75 103.308594 46.160156 L 103.308594 32.023438 C 106.289062 33.152344 112 33.082031 114.746094 31.96875 " fill-opacity="1" fill-rule="evenodd"/><g clip-path="url(#018899984b)"><path fill="#323653" d="M 93.976562 43.613281 L 93.976562 57.753906 C 93.976562 59.339844 93.824219 61.003906 93.976562 62.464844 C 94.28125 65.378906 96.605469 68.179688 99.75 68.140625 C 101.058594 68.125 102.320312 67.511719 103.117188 66.855469 C 104.242188 65.925781 105.261719 64.195312 105.414062 62.304688 C 105.648438 59.402344 105.414062 56.128906 105.414062 52.933594 L 105.414062 43.5625 C 102.667969 44.671875 96.957031 44.742188 93.976562 43.613281 Z M 98.910156 41.792969 C 97.140625 41.871094 95.355469 42.023438 94.199219 42.648438 C 95.394531 43.476562 97.515625 43.632812 99.527344 43.667969 C 101.5625 43.703125 103.710938 43.398438 105.023438 42.757812 C 103.65625 41.847656 101.171875 41.695312 98.910156 41.792969 Z M 93.078125 30.976562 L 93.078125 32.421875 C 93.28125 32.730469 93.769531 32.761719 93.976562 33.066406 L 93.976562 41.792969 C 96.558594 40.804688 101.648438 40.730469 104.40625 41.527344 C 104.847656 41.652344 105.167969 41.832031 105.414062 41.792969 L 105.414062 33.066406 C 106.230469 32.914062 106.421875 31.886719 106.199219 30.921875 C 102.757812 32.082031 96.609375 31.984375 93.078125 30.976562 Z M 93.191406 29.90625 C 96.453125 31.210938 102.964844 31.273438 106.144531 29.851562 C 102.820312 28.578125 96.429688 28.488281 93.191406 29.90625 Z M 107.152344 29.476562 C 107.042969 30.824219 107.3125 31.480469 107.152344 32.316406 C 107.019531 33.007812 106.320312 33.144531 106.199219 33.707031 C 105.984375 34.695312 106.199219 36.105469 106.199219 37.347656 L 106.199219 55.289062 C 106.199219 57.707031 106.382812 60.054688 106.199219 62.464844 C 105.96875 65.507812 103.628906 68.402344 100.648438 68.730469 C 97.832031 69.039062 96.179688 67.90625 95.042969 66.640625 C 94.078125 65.574219 93.339844 64.277344 93.191406 62.679688 C 92.984375 60.425781 93.191406 57.859375 93.191406 55.394531 L 93.191406 37.242188 C 93.191406 36.167969 93.441406 34.589844 93.191406 33.652344 C 93.058594 33.164062 92.421875 33.171875 92.238281 32.582031 C 92.082031 32.082031 92.003906 30.117188 92.179688 29.582031 C 92.429688 28.847656 93.757812 28.578125 94.703125 28.40625 C 97.351562 27.925781 100.394531 27.867188 103.285156 28.191406 C 104.800781 28.363281 106.28125 28.636719 107.152344 29.476562 " fill-opacity="1" fill-rule="evenodd"/></g><path fill="#f9fbef" d="M 106.144531 29.851562 C 102.964844 31.273438 96.453125 31.210938 93.191406 29.90625 C 96.429688 28.488281 102.820312 28.578125 106.144531 29.851562 " fill-opacity="1" fill-rule="evenodd"/><path fill="#f9fbef" d="M 102.441406 32.207031 C 99.753906 32.464844 96.667969 32.332031 94.480469 31.832031 C 94.082031 32.007812 93.636719 32.136719 93.472656 32.53125 C 96.941406 33.476562 102.441406 33.441406 105.921875 32.53125 C 105.304688 31.394531 103.90625 32.070312 102.445312 32.207031 Z M 106.199219 30.921875 C 106.421875 31.886719 106.230469 32.914062 105.414062 33.066406 L 105.414062 41.792969 C 105.167969 41.832031 104.847656 41.652344 104.40625 41.527344 C 101.648438 40.730469 96.558594 40.804688 93.976562 41.792969 L 93.976562 33.066406 C 93.769531 32.761719 93.28125 32.730469 93.078125 32.421875 L 93.078125 30.976562 C 96.609375 31.984375 102.757812 32.082031 106.199219 30.921875 " fill-opacity="1" fill-rule="evenodd"/><path fill="#323653" d="M 105.917969 32.53125 C 102.441406 33.441406 96.941406 33.476562 93.472656 32.53125 C 93.636719 32.136719 94.082031 32.007812 94.480469 31.832031 C 96.667969 32.332031 99.753906 32.464844 102.441406 32.207031 C 103.902344 32.070312 105.304688 31.394531 105.917969 32.53125 " fill-opacity="1" fill-rule="evenodd"/><path fill="#7ed957" d="M 105.023438 42.757812 C 103.710938 43.398438 101.5625 43.703125 99.527344 43.667969 C 97.515625 43.632812 95.394531 43.476562 94.199219 42.648438 C 95.355469 42.023438 97.140625 41.871094 98.910156 41.792969 C 101.171875 41.695312 103.65625 41.847656 105.023438 42.757812 " fill-opacity="1" fill-rule="evenodd"/><g clip-path="url(#f96404454a)"><path fill="#7ed957" d="M 105.414062 43.5625 L 105.414062 52.933594 C 105.414062 56.128906 105.648438 59.402344 105.414062 62.304688 C 105.261719 64.195312 104.242188 65.925781 103.117188 66.855469 C 102.320312 67.511719 101.058594 68.125 99.75 68.140625 C 96.605469 68.179688 94.28125 65.378906 93.976562 62.464844 C 93.824219 61.003906 93.976562 59.339844 93.976562 57.753906 L 93.976562 43.613281 C 96.957031 44.742188 102.667969 44.671875 105.414062 43.5625 " fill-opacity="1" fill-rule="evenodd"/></g><g clip-path="url(#0a863df697)"><path fill="#323653" d="M 77.941406 43.613281 L 77.941406 57.753906 C 77.941406 59.339844 77.789062 61.003906 77.941406 62.464844 C 78.246094 65.378906 80.570312 68.179688 83.71875 68.140625 C 85.023438 68.125 86.285156 67.511719 87.082031 66.855469 C 88.207031 65.925781 89.226562 64.195312 89.378906 62.304688 C 89.613281 59.402344 89.378906 56.128906 89.378906 52.933594 L 89.378906 43.5625 C 86.632812 44.671875 80.921875 44.742188 77.941406 43.613281 Z M 82.875 41.792969 C 81.105469 41.871094 79.320312 42.023438 78.164062 42.648438 C 79.359375 43.476562 81.480469 43.632812 83.492188 43.667969 C 85.527344 43.703125 87.675781 43.398438 88.988281 42.757812 C 87.621094 41.847656 85.136719 41.695312 82.875 41.792969 Z M 77.042969 30.976562 L 77.042969 32.421875 C 77.246094 32.730469 77.734375 32.761719 77.941406 33.066406 L 77.941406 41.792969 C 80.523438 40.804688 85.613281 40.730469 88.371094 41.527344 C 88.8125 41.652344 89.132812 41.832031 89.378906 41.792969 L 89.378906 33.066406 C 90.195312 32.914062 90.386719 31.886719 90.164062 30.921875 C 86.722656 32.082031 80.574219 31.984375 77.042969 30.976562 Z M 77.15625 29.90625 C 80.417969 31.210938 86.929688 31.273438 90.109375 29.851562 C 86.785156 28.578125 80.394531 28.488281 77.15625 29.90625 Z M 91.117188 29.476562 C 91.007812 30.824219 91.277344 31.480469 91.117188 32.316406 C 90.984375 33.007812 90.285156 33.144531 90.164062 33.707031 C 89.953125 34.695312 90.164062 36.105469 90.164062 37.347656 L 90.164062 55.289062 C 90.164062 57.707031 90.347656 60.054688 90.164062 62.464844 C 89.933594 65.507812 87.59375 68.402344 84.613281 68.730469 C 81.796875 69.039062 80.148438 67.90625 79.007812 66.640625 C 78.042969 65.574219 77.304688 64.277344 77.15625 62.679688 C 76.949219 60.425781 77.15625 57.859375 77.15625 55.394531 L 77.15625 37.242188 C 77.15625 36.167969 77.40625 34.589844 77.15625 33.652344 C 77.027344 33.164062 76.386719 33.171875 76.203125 32.582031 C 76.046875 32.082031 75.96875 30.117188 76.148438 29.582031 C 76.394531 28.847656 77.722656 28.578125 78.671875 28.40625 C 81.316406 27.925781 84.359375 27.867188 87.25 28.191406 C 88.765625 28.363281 90.25 28.636719 91.117188 29.476562 " fill-opacity="1" fill-rule="evenodd"/></g><path fill="#f9fbef" d="M 90.109375 29.851562 C 86.929688 31.273438 80.417969 31.210938 77.15625 29.90625 C 80.394531 28.488281 86.785156 28.578125 90.109375 29.851562 " fill-opacity="1" fill-rule="evenodd"/><path fill="#f9fbef" d="M 86.410156 32.207031 C 83.71875 32.464844 80.632812 32.332031 78.445312 31.832031 C 78.046875 32.007812 77.601562 32.136719 77.4375 32.53125 C 80.90625 33.476562 86.40625 33.441406 89.886719 32.53125 C 89.269531 31.394531 87.871094 32.070312 86.410156 32.207031 Z M 90.164062 30.921875 C 90.386719 31.886719 90.195312 32.914062 89.378906 33.066406 L 89.378906 41.792969 C 89.132812 41.832031 88.8125 41.652344 88.371094 41.527344 C 85.613281 40.730469 80.523438 40.804688 77.941406 41.792969 L 77.941406 33.066406 C 77.734375 32.761719 77.246094 32.730469 77.042969 32.421875 L 77.042969 30.976562 C 80.574219 31.984375 86.722656 32.082031 90.164062 30.921875 " fill-opacity="1" fill-rule="evenodd"/><path fill="#323653" d="M 89.886719 32.53125 C 86.40625 33.441406 80.90625 33.476562 77.4375 32.53125 C 77.601562 32.136719 78.046875 32.007812 78.445312 31.832031 C 80.632812 32.332031 83.71875 32.464844 86.410156 32.207031 C 87.871094 32.070312 89.269531 31.394531 89.886719 32.53125 " fill-opacity="1" fill-rule="evenodd"/><path fill="#7ed957" d="M 88.988281 42.757812 C 87.675781 43.398438 85.527344 43.703125 83.492188 43.667969 C 81.480469 43.632812 79.359375 43.476562 78.164062 42.648438 C 79.320312 42.023438 81.105469 41.871094 82.875 41.792969 C 85.136719 41.695312 87.621094 41.847656 88.988281 42.757812 " fill-opacity="1" fill-rule="evenodd"/><g clip-path="url(#044fc0081d)"><path fill="#7ed957" d="M 89.378906 43.5625 L 89.378906 52.933594 C 89.378906 56.128906 89.613281 59.402344 89.378906 62.304688 C 89.226562 64.195312 88.207031 65.925781 87.082031 66.855469 C 86.285156 67.511719 85.023438 68.125 83.71875 68.140625 C 80.570312 68.179688 78.246094 65.378906 77.941406 62.464844 C 77.789062 61.003906 77.941406 59.339844 77.941406 57.753906 L 77.941406 43.613281 C 80.921875 44.742188 86.632812 44.671875 89.378906 43.5625 " fill-opacity="1" fill-rule="evenodd"/></g></svg>